{"glyphs":{"0":{"ha":878,"x_min":0,"x_max":0,"o":"m 439 -14 b 831 493 686 -14 831 183 b 439 1000 831 813 678 1000 b 47 493 204 1000 47 818 b 439 -14 47 189 186 -14 z m 439 138 b 246 493 322 138 246 253 b 439 849 246 707 307 849 b 632 493 556 849 632 736 b 439 138 632 281 571 138 z "},"1":{"ha":547,"x_min":0,"x_max":0,"o":"m 257 0 l 442 0 l 442 986 l 274 986 b 17 779 261 863 206 779 l 17 667 l 257 667 z "},"2":{"ha":840,"x_min":0,"x_max":0,"o":"m 61 0 l 796 0 l 796 161 l 265 161 b 532 374 269 222 361 279 b 789 700 700 465 789 549 b 440 1000 789 879 651 1000 b 82 663 222 1000 82 865 l 82 628 l 271 628 b 440 849 264 760 321 849 b 597 704 536 849 597 792 b 401 483 597 594 522 554 b 61 0 189 363 71 301 z "},"3":{"ha":842,"x_min":0,"x_max":0,"o":"m 428 -14 b 801 281 653 -14 801 96 b 622 506 801 389 722 483 l 622 508 b 769 722 710 539 769 617 b 421 1000 769 888 640 1000 b 56 679 201 1000 56 881 l 254 679 b 424 849 254 781 307 849 b 578 715 518 849 578 800 b 406 585 578 628 521 578 l 321 588 l 321 425 l 406 429 b 603 281 526 435 603 389 b 429 138 600 194 540 138 b 239 335 314 138 239 197 l 40 335 b 428 -14 40 125 179 -14 z "},"4":{"ha":892,"x_min":0,"x_max":0,"o":"m 529 -1 l 714 -1 l 714 214 l 864 214 l 864 375 l 714 375 l 714 986 l 515 986 l 36 375 l 36 214 l 529 214 z m 210 375 l 210 379 b 292 468 210 379 246 411 l 436 650 b 525 774 493 719 525 774 l 529 774 l 529 375 z "},"5":{"ha":886,"x_min":0,"x_max":0,"o":"m 446 -14 b 825 328 674 -14 825 122 b 482 668 825 532 689 668 b 267 581 389 668 311 633 l 264 581 l 304 825 l 767 825 l 767 986 l 151 986 l 67 394 l 257 394 b 442 517 271 468 343 517 b 626 328 553 517 626 440 b 435 138 626 214 550 138 b 260 275 333 138 264 193 l 61 275 b 446 -14 68 101 222 -14 z "},"6":{"ha":851,"x_min":0,"x_max":0,"o":"m 447 -14 b 811 319 668 -14 811 119 b 457 654 811 521 671 654 b 221 513 347 654 260 597 l 217 513 b 456 849 221 708 304 849 b 614 714 547 849 606 796 l 807 714 b 456 1000 794 872 663 1000 b 47 465 210 1000 47 814 b 447 -14 47 174 194 -14 z m 440 138 b 263 319 333 138 263 210 b 440 503 263 431 333 503 b 613 319 544 503 613 431 b 440 138 613 210 544 138 z "},"7":{"ha":771,"x_min":0,"x_max":0,"o":"m 167 0 l 375 0 b 756 839 392 344 513 658 l 756 986 l 15 986 l 15 825 l 272 825 b 531 832 482 825 531 832 l 531 829 b 167 0 336 663 204 367 z "},"8":{"ha":868,"x_min":0,"x_max":0,"o":"m 433 -14 b 818 283 661 -14 818 103 b 643 522 818 400 749 490 l 643 526 b 782 731 726 556 782 639 b 433 1000 782 893 640 1000 b 86 731 228 1000 86 893 b 225 526 86 639 142 556 l 225 522 b 50 283 119 489 50 400 b 433 -14 50 103 206 -14 z m 433 582 b 278 714 343 582 278 632 b 433 849 278 794 340 849 b 590 714 528 849 590 794 b 433 582 590 632 525 582 z m 433 138 b 249 300 325 138 249 197 b 433 460 249 396 322 460 b 619 300 546 460 619 396 b 433 138 619 197 542 138 z "},"9":{"ha":858,"x_min":0,"x_max":0,"o":"m 410 -14 b 804 531 646 -14 804 174 b 413 1000 804 818 650 1000 b 40 674 189 1000 40 869 b 388 346 40 476 179 346 b 621 468 499 346 589 396 l 625 468 b 410 138 622 267 558 138 b 240 278 310 138 246 186 l 47 278 b 410 -14 49 113 203 -14 z m 413 497 b 239 674 308 497 239 568 b 413 849 239 778 308 849 b 585 674 517 849 585 781 b 413 497 585 565 517 497 z "},"A":{"ha":1006,"x_min":0,"x_max":0,"o":"m 6 0 l 207 0 l 289 233 l 710 233 l 792 0 l 1000 0 l 606 1014 l 394 1014 z m 344 394 l 435 644 b 497 863 497 829 497 863 l 500 863 b 564 644 500 863 501 829 l 654 394 z "},"Á":{"ha":1006,"x_min":0,"x_max":0,"o":"m 410 1069 l 594 1069 l 736 1256 l 507 1256 z m 6 0 l 207 0 l 289 233 l 710 233 l 792 0 l 1000 0 l 606 1014 l 394 1014 z m 344 394 l 435 644 b 497 863 497 829 497 863 l 500 863 b 564 644 500 863 501 829 l 654 394 z "},"Ă":{"ha":1006,"x_min":0,"x_max":0,"o":"m 501 1063 b 726 1258 624 1063 713 1133 l 600 1258 b 501 1186 588 1215 551 1186 b 401 1258 454 1186 415 1213 l 276 1258 b 501 1063 288 1142 371 1063 z m 6 0 l 207 0 l 289 233 l 710 233 l 792 0 l 1000 0 l 606 1014 l 394 1014 z m 344 394 l 435 644 b 497 863 497 829 497 863 l 500 863 b 564 644 500 863 501 829 l 654 394 z "},"Â":{"ha":1006,"x_min":0,"x_max":0,"o":"m 238 1064 l 397 1064 l 501 1161 l 607 1064 l 767 1064 l 571 1265 l 433 1265 z m 6 0 l 207 0 l 289 233 l 710 233 l 792 0 l 1000 0 l 606 1014 l 394 1014 z m 344 394 l 435 644 b 497 863 497 829 497 863 l 500 863 b 564 644 500 863 501 829 l 654 394 z "},"Ä":{"ha":1006,"x_min":0,"x_max":0,"o":"m 221 1074 l 410 1074 l 410 1244 l 221 1244 z m 592 1074 l 782 1074 l 782 1244 l 592 1244 z m 6 0 l 207 0 l 289 233 l 710 233 l 792 0 l 1000 0 l 606 1014 l 394 1014 z m 344 394 l 435 644 b 497 863 497 829 497 863 l 500 863 b 564 644 500 863 501 829 l 654 394 z "},"À":{"ha":1006,"x_min":0,"x_max":0,"o":"m 410 1069 l 594 1069 l 497 1256 l 268 1256 z m 6 0 l 207 0 l 289 233 l 710 233 l 792 0 l 1000 0 l 606 1014 l 394 1014 z m 344 394 l 435 644 b 497 863 497 829 497 863 l 500 863 b 564 644 500 863 501 829 l 654 394 z "},"Ā":{"ha":1006,"x_min":0,"x_max":0,"o":"m 269 1104 l 733 1104 l 733 1242 l 269 1242 z m 6 0 l 207 0 l 289 233 l 710 233 l 792 0 l 1000 0 l 606 1014 l 394 1014 z m 344 394 l 435 644 b 497 863 497 829 497 863 l 500 863 b 564 644 500 863 501 829 l 654 394 z "},"Ą":{"ha":1010,"x_min":0,"x_max":0,"o":"m 939 -156 b 889 -106 907 -156 889 -137 b 1001 0 889 -65 931 -28 l 1000 0 l 606 1014 l 394 1014 l 6 0 l 207 0 l 289 233 l 710 233 l 792 0 l 850 0 b 728 -151 760 -36 728 -92 b 885 -276 728 -226 785 -276 b 1001 -249 942 -276 971 -268 l 1001 -142 l 992 -142 b 939 -156 974 -151 958 -156 z m 344 394 l 435 644 b 497 863 497 829 497 863 l 500 863 b 564 644 500 863 501 829 l 654 394 z "},"Å":{"ha":1006,"x_min":0,"x_max":0,"o":"m 501 1063 b 653 1208 588 1063 653 1122 b 501 1356 653 1294 588 1356 b 350 1208 415 1356 350 1294 b 501 1063 350 1122 415 1063 z m 501 1136 b 429 1208 461 1136 429 1165 b 501 1282 429 1253 461 1282 b 574 1208 543 1282 574 1253 b 501 1136 574 1165 543 1136 z m 6 0 l 207 0 l 289 233 l 710 233 l 792 0 l 1000 0 l 606 1014 l 394 1014 z m 344 394 l 435 644 b 497 863 497 829 497 863 l 500 863 b 564 644 500 863 501 829 l 654 394 z "},"Ǻ":{"ha":1010,"x_min":0,"x_max":0,"o":"m 739 1471 l 510 1471 l 413 1285 l 597 1285 z m 610 1003 b 654 1110 638 1029 654 1067 b 503 1257 654 1196 589 1257 b 351 1110 417 1257 351 1196 b 392 1007 351 1068 367 1033 l 6 0 l 207 0 l 289 233 l 710 233 l 792 0 l 1000 0 z m 503 1183 b 575 1110 544 1183 575 1154 b 503 1038 575 1067 544 1038 b 431 1110 463 1038 431 1067 b 503 1183 431 1154 463 1183 z m 344 394 l 435 644 b 497 863 497 829 497 863 l 500 863 b 564 644 500 863 501 829 l 654 394 z "},"Ã":{"ha":1006,"x_min":0,"x_max":0,"o":"m 601 1063 b 782 1192 683 1063 751 1115 l 693 1249 b 599 1193 672 1215 644 1193 b 401 1251 543 1193 467 1251 b 221 1122 319 1251 251 1200 l 310 1067 b 404 1122 331 1099 358 1122 b 601 1063 460 1122 536 1063 z m 6 0 l 207 0 l 289 233 l 710 233 l 792 0 l 1000 0 l 606 1014 l 394 1014 z m 344 394 l 435 644 b 497 863 497 829 497 863 l 500 863 b 564 644 500 863 501 829 l 654 394 z "},"Æ":{"ha":1440,"x_min":0,"x_max":0,"o":"m 6 0 l 207 0 l 306 233 l 710 233 l 771 0 l 1383 0 l 1383 165 l 918 165 l 843 453 l 1307 453 l 1307 614 l 800 614 l 736 851 l 1342 851 l 1342 1014 l 460 1014 z m 368 394 l 515 758 b 547 863 536 814 547 863 l 551 863 b 574 758 551 863 560 814 l 667 394 z "},"Ǽ":{"ha":1440,"x_min":0,"x_max":0,"o":"m 506 1069 l 690 1069 l 832 1256 l 603 1256 z m 6 0 l 207 0 l 306 233 l 710 233 l 771 0 l 1383 0 l 1383 165 l 918 165 l 843 453 l 1307 453 l 1307 614 l 800 614 l 736 851 l 1342 851 l 1342 1014 l 460 1014 z m 368 394 l 515 758 b 547 863 536 814 547 863 l 551 863 b 574 758 551 863 560 814 l 667 394 z "},"B":{"ha":940,"x_min":0,"x_max":0,"o":"m 99 0 l 521 0 b 876 281 735 0 876 92 b 676 531 876 404 801 504 l 676 535 b 840 757 775 557 840 633 b 494 1014 840 915 721 1014 l 99 1014 z m 293 603 l 293 853 l 485 853 b 639 728 576 853 639 814 b 476 603 639 653 586 603 z m 293 161 l 293 442 l 499 442 b 668 301 600 442 668 397 b 499 161 668 217 614 161 z "},"C":{"ha":1015,"x_min":0,"x_max":0,"o":"m 529 -14 b 972 354 774 -14 951 135 l 771 354 b 529 151 750 233 653 151 b 249 507 360 151 249 294 b 528 863 249 719 360 863 b 765 660 651 863 747 781 l 968 660 b 528 1028 942 881 765 1028 b 47 507 239 1028 47 819 b 529 -14 47 194 239 -14 z "},"Ć":{"ha":1015,"x_min":0,"x_max":0,"o":"m 436 1069 l 621 1069 l 763 1256 l 533 1256 z m 529 -14 b 972 354 774 -14 951 135 l 771 354 b 529 151 750 233 653 151 b 249 507 360 151 249 294 b 528 863 249 719 360 863 b 765 660 651 863 747 781 l 968 660 b 528 1028 942 881 765 1028 b 47 507 239 1028 47 819 b 529 -14 47 194 239 -14 z "},"Č":{"ha":1015,"x_min":0,"x_max":0,"o":"m 460 1064 l 597 1064 l 793 1265 l 633 1265 l 528 1168 l 424 1265 l 264 1265 z m 529 -14 b 972 354 774 -14 951 135 l 771 354 b 529 151 750 233 653 151 b 249 507 360 151 249 294 b 528 863 249 719 360 863 b 765 660 651 863 747 781 l 968 660 b 528 1028 942 881 765 1028 b 47 507 239 1028 47 819 b 529 -14 47 194 239 -14 z "},"Ç":{"ha":1015,"x_min":0,"x_max":0,"o":"m 972 354 l 771 354 b 529 151 750 233 653 151 b 249 507 360 151 249 294 b 528 863 249 719 360 863 b 765 660 651 863 747 781 l 968 660 b 528 1028 942 881 765 1028 b 47 507 239 1028 47 819 b 482 -12 47 211 218 10 l 425 -78 l 453 -125 b 504 -108 453 -125 468 -108 b 550 -146 532 -108 550 -119 b 490 -185 550 -169 532 -185 b 392 -153 440 -185 410 -165 l 369 -206 b 511 -257 390 -229 449 -257 b 671 -149 607 -257 671 -214 b 519 -54 671 -79 610 -40 l 517 -51 l 554 -14 b 972 354 786 -3 953 143 z "},"Ĉ":{"ha":1015,"x_min":0,"x_max":0,"o":"m 264 1064 l 424 1064 l 528 1161 l 633 1064 l 793 1064 l 597 1265 l 460 1265 z m 529 -14 b 972 354 774 -14 951 135 l 771 354 b 529 151 750 233 653 151 b 249 507 360 151 249 294 b 528 863 249 719 360 863 b 765 660 651 863 747 781 l 968 660 b 528 1028 942 881 765 1028 b 47 507 239 1028 47 819 b 529 -14 47 194 239 -14 z "},"Ċ":{"ha":1015,"x_min":0,"x_max":0,"o":"m 433 1074 l 621 1074 l 621 1244 l 433 1244 z m 529 -14 b 972 354 774 -14 951 135 l 771 354 b 529 151 750 233 653 151 b 249 507 360 151 249 294 b 528 863 249 719 360 863 b 765 660 651 863 747 781 l 968 660 b 528 1028 942 881 765 1028 b 47 507 239 1028 47 819 b 529 -14 47 194 239 -14 z "},"D":{"ha":1014,"x_min":0,"x_max":0,"o":"m 99 0 l 486 0 b 967 514 778 0 967 194 b 486 1014 967 813 793 1014 l 99 1014 z m 293 161 l 293 853 l 475 853 b 765 514 654 853 765 731 b 475 161 765 301 663 161 z "},"Ð":{"ha":1014,"x_min":0,"x_max":0,"o":"m 486 1014 l 99 1014 l 99 581 l 1 581 l 1 429 l 99 429 l 99 0 l 486 0 b 967 514 778 0 967 194 b 486 1014 967 813 793 1014 z m 475 161 l 293 161 l 293 429 l 513 429 l 513 581 l 293 581 l 293 853 l 475 853 b 765 514 654 853 765 731 b 475 161 765 301 663 161 z "},"Ď":{"ha":1014,"x_min":0,"x_max":0,"o":"m 418 1064 l 556 1064 l 751 1265 l 592 1265 l 486 1168 l 382 1265 l 222 1265 z m 99 0 l 486 0 b 967 514 778 0 967 194 b 486 1014 967 813 793 1014 l 99 1014 z m 293 161 l 293 853 l 475 853 b 765 514 654 853 765 731 b 475 161 765 301 663 161 z "},"Đ":{"ha":1014,"x_min":0,"x_max":0,"o":"m 486 1014 l 99 1014 l 99 581 l 1 581 l 1 429 l 99 429 l 99 0 l 486 0 b 967 514 778 0 967 194 b 486 1014 967 813 793 1014 z m 475 161 l 293 161 l 293 429 l 513 429 l 513 581 l 293 581 l 293 853 l 475 853 b 765 514 654 853 765 731 b 475 161 765 301 663 161 z "},"E":{"ha":856,"x_min":0,"x_max":0,"o":"m 99 0 l 799 0 l 799 165 l 293 165 l 293 450 l 743 450 l 743 611 l 293 611 l 293 853 l 792 853 l 792 1014 l 99 1014 z "},"É":{"ha":856,"x_min":0,"x_max":0,"o":"m 353 1069 l 538 1069 l 679 1256 l 450 1256 z m 99 0 l 799 0 l 799 165 l 293 165 l 293 450 l 743 450 l 743 611 l 293 611 l 293 853 l 792 853 l 792 1014 l 99 1014 z "},"Ĕ":{"ha":856,"x_min":0,"x_max":0,"o":"m 444 1063 b 669 1258 567 1063 656 1133 l 543 1258 b 444 1186 531 1215 494 1186 b 344 1258 397 1186 358 1213 l 219 1258 b 444 1063 231 1142 314 1063 z m 99 0 l 799 0 l 799 165 l 293 165 l 293 450 l 743 450 l 743 611 l 293 611 l 293 853 l 792 853 l 792 1014 l 99 1014 z "},"Ě":{"ha":856,"x_min":0,"x_max":0,"o":"m 376 1064 l 514 1064 l 710 1265 l 550 1265 l 444 1168 l 340 1265 l 181 1265 z m 99 0 l 799 0 l 799 165 l 293 165 l 293 450 l 743 450 l 743 611 l 293 611 l 293 853 l 792 853 l 792 1014 l 99 1014 z "},"Ê":{"ha":856,"x_min":0,"x_max":0,"o":"m 181 1064 l 340 1064 l 444 1161 l 550 1064 l 710 1064 l 514 1265 l 376 1265 z m 99 0 l 799 0 l 799 165 l 293 165 l 293 450 l 743 450 l 743 611 l 293 611 l 293 853 l 792 853 l 792 1014 l 99 1014 z "},"Ë":{"ha":856,"x_min":0,"x_max":0,"o":"m 164 1074 l 353 1074 l 353 1244 l 164 1244 z m 535 1074 l 725 1074 l 725 1244 l 535 1244 z m 99 0 l 799 0 l 799 165 l 293 165 l 293 450 l 743 450 l 743 611 l 293 611 l 293 853 l 792 853 l 792 1014 l 99 1014 z "},"Ė":{"ha":856,"x_min":0,"x_max":0,"o":"m 350 1074 l 538 1074 l 538 1244 l 350 1244 z m 99 0 l 799 0 l 799 165 l 293 165 l 293 450 l 743 450 l 743 611 l 293 611 l 293 853 l 792 853 l 792 1014 l 99 1014 z "},"È":{"ha":856,"x_min":0,"x_max":0,"o":"m 353 1069 l 538 1069 l 440 1256 l 211 1256 z m 99 0 l 799 0 l 799 165 l 293 165 l 293 450 l 743 450 l 743 611 l 293 611 l 293 853 l 792 853 l 792 1014 l 99 1014 z "},"Ē":{"ha":856,"x_min":0,"x_max":0,"o":"m 213 1104 l 676 1104 l 676 1242 l 213 1242 z m 99 0 l 799 0 l 799 165 l 293 165 l 293 450 l 743 450 l 743 611 l 293 611 l 293 853 l 792 853 l 792 1014 l 99 1014 z "},"Ę":{"ha":856,"x_min":0,"x_max":0,"o":"m 799 0 l 799 165 l 293 165 l 293 450 l 743 450 l 743 611 l 293 611 l 293 853 l 792 853 l 792 1014 l 99 1014 l 99 0 l 653 0 b 525 -151 557 -35 525 -94 b 682 -276 525 -226 582 -276 b 799 -249 739 -276 768 -268 l 799 -142 l 789 -142 b 736 -156 771 -151 756 -156 b 686 -106 703 -156 686 -137 b 799 0 686 -65 726 -28 z "},"F":{"ha":851,"x_min":0,"x_max":0,"o":"m 99 0 l 293 0 l 293 436 l 772 436 l 772 597 l 293 597 l 293 853 l 807 853 l 807 1014 l 99 1014 z "},"G":{"ha":1017,"x_min":0,"x_max":0,"o":"m 535 -14 b 974 401 790 -14 965 153 l 974 529 l 515 529 l 515 374 l 786 374 l 786 360 b 535 151 776 235 682 151 b 249 508 365 151 249 275 b 528 863 249 721 353 863 b 765 669 653 863 746 793 l 967 669 b 528 1028 942 885 771 1028 b 47 508 239 1028 47 819 b 535 -14 47 190 242 -14 z "},"Ğ":{"ha":1017,"x_min":0,"x_max":0,"o":"m 528 1063 b 753 1258 650 1063 739 1133 l 626 1258 b 528 1186 614 1215 578 1186 b 428 1258 481 1186 442 1213 l 303 1258 b 528 1063 314 1142 397 1063 z m 535 -14 b 974 401 790 -14 965 153 l 974 529 l 515 529 l 515 374 l 786 374 l 786 360 b 535 151 776 235 682 151 b 249 508 365 151 249 275 b 528 863 249 721 353 863 b 765 669 653 863 746 793 l 967 669 b 528 1028 942 885 771 1028 b 47 508 239 1028 47 819 b 535 -14 47 190 242 -14 z "},"Ĝ":{"ha":1017,"x_min":0,"x_max":0,"o":"m 264 1064 l 424 1064 l 528 1161 l 633 1064 l 793 1064 l 597 1265 l 460 1265 z m 535 -14 b 974 401 790 -14 965 153 l 974 529 l 515 529 l 515 374 l 786 374 l 786 360 b 535 151 776 235 682 151 b 249 508 365 151 249 275 b 528 863 249 721 353 863 b 765 669 653 863 746 793 l 967 669 b 528 1028 942 885 771 1028 b 47 508 239 1028 47 819 b 535 -14 47 190 242 -14 z "},"Ģ":{"ha":1017,"x_min":0,"x_max":0,"o":"m 535 -14 b 974 401 790 -14 965 153 l 974 529 l 515 529 l 515 374 l 786 374 l 786 360 b 535 151 776 235 682 151 b 249 508 365 151 249 275 b 528 863 249 721 353 863 b 765 669 653 863 746 793 l 967 669 b 528 1028 942 885 771 1028 b 47 508 239 1028 47 819 b 535 -14 47 190 242 -14 z m 431 -342 l 514 -342 l 625 -212 l 625 -56 l 444 -56 l 444 -206 l 515 -206 l 515 -212 z "},"Ġ":{"ha":1017,"x_min":0,"x_max":0,"o":"m 433 1074 l 621 1074 l 621 1244 l 433 1244 z m 535 -14 b 974 401 790 -14 965 153 l 974 529 l 515 529 l 515 374 l 786 374 l 786 360 b 535 151 776 235 682 151 b 249 508 365 151 249 275 b 528 863 249 721 353 863 b 765 669 653 863 746 793 l 967 669 b 528 1028 942 885 771 1028 b 47 508 239 1028 47 819 b 535 -14 47 190 242 -14 z "},"H":{"ha":1051,"x_min":0,"x_max":0,"o":"m 99 0 l 293 0 l 293 447 l 758 447 l 758 0 l 953 0 l 953 1014 l 758 1014 l 758 608 l 293 608 l 293 1014 l 99 1014 z "},"Ħ":{"ha":1022,"x_min":0,"x_max":0,"o":"m 1007 889 l 938 889 l 938 1014 l 743 1014 l 743 889 l 278 889 l 278 1014 l 83 1014 l 83 889 l 15 889 l 15 729 l 83 729 l 83 0 l 278 0 l 278 447 l 743 447 l 743 0 l 938 0 l 938 729 l 1007 729 z m 743 608 l 278 608 l 278 729 l 743 729 z "},"Ĥ":{"ha":1051,"x_min":0,"x_max":0,"o":"m 263 1064 l 422 1064 l 526 1161 l 632 1064 l 792 1064 l 596 1265 l 458 1265 z m 99 0 l 293 0 l 293 447 l 758 447 l 758 0 l 953 0 l 953 1014 l 758 1014 l 758 608 l 293 608 l 293 1014 l 99 1014 z "},"I":{"ha":390,"x_min":0,"x_max":0,"o":"m 99 0 l 293 0 l 293 1014 l 99 1014 z "},"Ĳ":{"ha":843,"x_min":0,"x_max":0,"o":"m 425 -14 b 754 314 625 -14 754 93 l 754 1014 l 560 1014 l 560 314 b 425 147 560 208 514 147 b 283 335 338 147 283 213 l 89 335 b 425 -14 89 100 222 -14 z m 89 474 l 283 474 l 283 1014 l 89 1014 z "},"Í":{"ha":390,"x_min":0,"x_max":0,"o":"m 104 1069 l 289 1069 l 431 1256 l 201 1256 z m 99 0 l 293 0 l 293 1014 l 99 1014 z "},"Î":{"ha":390,"x_min":0,"x_max":0,"o":"m -68 1064 l 92 1064 l 196 1161 l 301 1064 l 461 1064 l 265 1265 l 128 1265 z m 99 0 l 293 0 l 293 1014 l 99 1014 z "},"Ï":{"ha":390,"x_min":0,"x_max":0,"o":"m -64 1074 l 126 1074 l 126 1244 l -64 1244 z m 265 1074 l 454 1074 l 454 1244 l 265 1244 z m 99 0 l 293 0 l 293 1014 l 99 1014 z "},"İ":{"ha":390,"x_min":0,"x_max":0,"o":"m 101 1074 l 289 1074 l 289 1244 l 101 1244 z m 99 0 l 293 0 l 293 1014 l 99 1014 z "},"Ì":{"ha":390,"x_min":0,"x_max":0,"o":"m 104 1069 l 289 1069 l 192 1256 l -37 1256 z m 99 0 l 293 0 l 293 1014 l 99 1014 z "},"Ī":{"ha":390,"x_min":0,"x_max":0,"o":"m -36 1104 l 428 1104 l 428 1242 l -36 1242 z m 99 0 l 293 0 l 293 1014 l 99 1014 z "},"Į":{"ha":390,"x_min":0,"x_max":0,"o":"m 293 0 l 293 1014 l 99 1014 l 99 0 l 144 0 b 19 -151 54 -33 19 -92 b 175 -276 19 -226 76 -276 b 293 -249 233 -276 263 -268 l 293 -142 l 283 -142 b 231 -156 265 -151 250 -156 b 181 -106 197 -156 181 -137 b 293 0 181 -65 221 -28 z "},"Ĩ":{"ha":390,"x_min":0,"x_max":0,"o":"m 296 1063 b 476 1192 378 1063 446 1115 l 388 1249 b 293 1193 367 1215 339 1193 b 96 1251 238 1193 161 1251 b -85 1122 14 1251 -54 1200 l 4 1067 b 99 1122 25 1099 53 1122 b 296 1063 154 1122 231 1063 z m 99 0 l 293 0 l 293 1014 l 99 1014 z "},"J":{"ha":763,"x_min":0,"x_max":0,"o":"m 343 -14 b 674 314 543 -14 674 93 l 674 1014 l 479 1014 l 479 314 b 343 147 479 208 432 147 b 201 335 256 147 201 213 l 201 404 l 7 404 l 7 335 b 343 -14 7 100 142 -14 z "},"Ĵ":{"ha":763,"x_min":0,"x_max":0,"o":"m 313 1064 l 472 1064 l 576 1161 l 682 1064 l 842 1064 l 646 1265 l 508 1265 z m 343 -14 b 674 314 543 -14 674 93 l 674 1014 l 479 1014 l 479 314 b 343 147 479 208 432 147 b 201 335 256 147 201 213 l 201 404 l 7 404 l 7 335 b 343 -14 7 100 142 -14 z "},"K":{"ha":997,"x_min":0,"x_max":0,"o":"m 99 0 l 293 0 l 293 353 l 381 444 l 751 0 l 990 0 l 508 565 l 953 1014 l 696 1014 l 290 596 l 286 596 b 293 786 286 596 292 622 l 293 1014 l 99 1014 z "},"Ķ":{"ha":997,"x_min":0,"x_max":0,"o":"m 99 0 l 293 0 l 293 353 l 381 444 l 751 0 l 990 0 l 508 565 l 953 1014 l 696 1014 l 290 596 l 286 596 b 293 786 286 596 292 622 l 293 1014 l 99 1014 z m 411 -342 l 494 -342 l 606 -212 l 606 -56 l 425 -56 l 425 -206 l 496 -206 l 496 -212 z "},"L":{"ha":828,"x_min":0,"x_max":0,"o":"m 99 0 l 808 0 l 808 165 l 293 165 l 293 1014 l 99 1014 z "},"Ĺ":{"ha":828,"x_min":0,"x_max":0,"o":"m 104 1069 l 289 1069 l 431 1256 l 201 1256 z m 99 0 l 808 0 l 808 165 l 293 165 l 293 1014 l 99 1014 z "},"Ľ":{"ha":828,"x_min":0,"x_max":0,"o":"m 99 0 l 808 0 l 808 165 l 293 165 l 293 1014 l 99 1014 z m 475 764 l 544 764 l 629 874 l 629 1014 l 475 1014 l 475 879 l 531 879 l 531 874 z "},"Ļ":{"ha":828,"x_min":0,"x_max":0,"o":"m 99 0 l 808 0 l 808 165 l 293 165 l 293 1014 l 99 1014 z m 339 -342 l 422 -342 l 533 -212 l 533 -56 l 353 -56 l 353 -206 l 424 -206 l 424 -212 z "},"Ŀ":{"ha":835,"x_min":0,"x_max":0,"o":"m 99 0 l 808 0 l 808 165 l 293 165 l 293 1014 l 99 1014 z m 514 415 l 713 415 l 713 619 l 514 619 z "},"Ł":{"ha":828,"x_min":0,"x_max":0,"o":"m 293 165 l 293 431 l 625 622 l 551 754 l 293 606 l 293 1014 l 99 1014 l 99 493 l -43 411 l 32 279 l 99 318 l 99 0 l 808 0 l 808 165 z "},"M":{"ha":1282,"x_min":0,"x_max":0,"o":"m 99 0 l 293 0 l 293 826 l 296 826 b 350 608 296 826 310 733 l 543 0 l 736 0 l 935 608 b 988 826 974 722 988 826 l 992 826 l 989 0 l 1183 0 l 1183 1014 l 901 1014 l 714 485 b 643 189 647 296 643 189 l 639 189 b 569 485 639 189 633 293 l 388 1014 l 99 1014 z "},"N":{"ha":1081,"x_min":0,"x_max":0,"o":"m 99 0 l 293 0 l 293 786 l 296 786 b 396 576 296 786 317 707 l 744 0 l 982 0 l 982 1014 l 788 1014 l 790 229 l 786 229 b 671 454 786 229 774 285 l 335 1014 l 99 1014 z "},"Ń":{"ha":1081,"x_min":0,"x_max":0,"o":"m 454 1069 l 639 1069 l 781 1256 l 551 1256 z m 99 0 l 293 0 l 293 786 l 296 786 b 396 576 296 786 317 707 l 744 0 l 982 0 l 982 1014 l 788 1014 l 790 229 l 786 229 b 671 454 786 229 774 285 l 335 1014 l 99 1014 z "},"Ň":{"ha":1081,"x_min":0,"x_max":0,"o":"m 478 1064 l 615 1064 l 811 1265 l 651 1265 l 546 1168 l 442 1265 l 282 1265 z m 99 0 l 293 0 l 293 786 l 296 786 b 396 576 296 786 317 707 l 744 0 l 982 0 l 982 1014 l 788 1014 l 790 229 l 786 229 b 671 454 786 229 774 285 l 335 1014 l 99 1014 z "},"Ņ":{"ha":1081,"x_min":0,"x_max":0,"o":"m 99 0 l 293 0 l 293 786 l 296 786 b 396 576 296 786 317 707 l 744 0 l 982 0 l 982 1014 l 788 1014 l 790 229 l 786 229 b 671 454 786 229 774 285 l 335 1014 l 99 1014 z m 436 -342 l 519 -342 l 631 -212 l 631 -56 l 450 -56 l 450 -206 l 521 -206 l 521 -212 z "},"Ŋ":{"ha":1081,"x_min":0,"x_max":0,"o":"m 642 -271 b 982 0 853 -271 982 -217 l 982 1014 l 788 1014 l 790 229 l 786 229 b 671 454 786 229 774 283 l 338 1014 l 99 1014 l 99 0 l 293 0 l 293 786 l 296 786 b 396 576 296 786 317 707 l 743 0 l 815 0 b 642 -119 815 -72 781 -119 z "},"Ñ":{"ha":1081,"x_min":0,"x_max":0,"o":"m 646 1063 b 826 1192 728 1063 796 1115 l 738 1249 b 643 1193 717 1215 689 1193 b 446 1251 588 1193 511 1251 b 265 1122 364 1251 296 1200 l 354 1067 b 449 1122 375 1099 403 1122 b 646 1063 504 1122 581 1063 z m 99 0 l 293 0 l 293 786 l 296 786 b 396 576 296 786 317 707 l 744 0 l 982 0 l 982 1014 l 788 1014 l 790 229 l 786 229 b 671 454 786 229 774 285 l 335 1014 l 99 1014 z "},"O":{"ha":1079,"x_min":0,"x_max":0,"o":"m 540 -14 b 1026 507 832 -14 1026 194 b 540 1028 1026 819 832 1028 b 54 507 249 1028 54 819 b 540 -14 54 194 249 -14 z m 540 151 b 256 507 369 151 256 294 b 540 863 256 719 369 863 b 825 507 711 863 825 719 b 540 151 825 294 711 151 z "},"Ó":{"ha":1079,"x_min":0,"x_max":0,"o":"m 449 1069 l 633 1069 l 775 1256 l 546 1256 z m 540 -14 b 1026 507 832 -14 1026 194 b 540 1028 1026 819 832 1028 b 54 507 249 1028 54 819 b 540 -14 54 194 249 -14 z m 540 151 b 256 507 369 151 256 294 b 540 863 256 719 369 863 b 825 507 711 863 825 719 b 540 151 825 294 711 151 z "},"Ŏ":{"ha":1079,"x_min":0,"x_max":0,"o":"m 540 1063 b 765 1258 663 1063 751 1133 l 639 1258 b 540 1186 626 1215 590 1186 b 440 1258 493 1186 454 1213 l 315 1258 b 540 1063 326 1142 410 1063 z m 540 -14 b 1026 507 832 -14 1026 194 b 540 1028 1026 819 832 1028 b 54 507 249 1028 54 819 b 540 -14 54 194 249 -14 z m 540 151 b 256 507 369 151 256 294 b 540 863 256 719 369 863 b 825 507 711 863 825 719 b 540 151 825 294 711 151 z "},"Ô":{"ha":1079,"x_min":0,"x_max":0,"o":"m 276 1064 l 436 1064 l 540 1161 l 646 1064 l 806 1064 l 610 1265 l 472 1265 z m 540 -14 b 1026 507 832 -14 1026 194 b 540 1028 1026 819 832 1028 b 54 507 249 1028 54 819 b 540 -14 54 194 249 -14 z m 540 151 b 256 507 369 151 256 294 b 540 863 256 719 369 863 b 825 507 711 863 825 719 b 540 151 825 294 711 151 z "},"Ö":{"ha":1079,"x_min":0,"x_max":0,"o":"m 260 1074 l 449 1074 l 449 1244 l 260 1244 z m 631 1074 l 821 1074 l 821 1244 l 631 1244 z m 540 -14 b 1026 507 832 -14 1026 194 b 540 1028 1026 819 832 1028 b 54 507 249 1028 54 819 b 540 -14 54 194 249 -14 z m 540 151 b 256 507 369 151 256 294 b 540 863 256 719 369 863 b 825 507 711 863 825 719 b 540 151 825 294 711 151 z "},"Ò":{"ha":1079,"x_min":0,"x_max":0,"o":"m 449 1069 l 633 1069 l 536 1256 l 307 1256 z m 540 -14 b 1026 507 832 -14 1026 194 b 540 1028 1026 819 832 1028 b 54 507 249 1028 54 819 b 540 -14 54 194 249 -14 z m 540 151 b 256 507 369 151 256 294 b 540 863 256 719 369 863 b 825 507 711 863 825 719 b 540 151 825 294 711 151 z "},"Ő":{"ha":1079,"x_min":0,"x_max":0,"o":"m 349 1069 l 501 1069 l 597 1258 l 417 1258 z m 578 1069 l 731 1069 l 826 1258 l 646 1258 z m 540 -14 b 1026 507 832 -14 1026 194 b 540 1028 1026 819 832 1028 b 54 507 249 1028 54 819 b 540 -14 54 194 249 -14 z m 540 151 b 256 507 369 151 256 294 b 540 863 256 719 369 863 b 825 507 711 863 825 719 b 540 151 825 294 711 151 z "},"Ō":{"ha":1079,"x_min":0,"x_max":0,"o":"m 308 1104 l 772 1104 l 772 1242 l 308 1242 z m 540 -14 b 1026 507 832 -14 1026 194 b 540 1028 1026 819 832 1028 b 54 507 249 1028 54 819 b 540 -14 54 194 249 -14 z m 540 151 b 256 507 369 151 256 294 b 540 863 256 719 369 863 b 825 507 711 863 825 719 b 540 151 825 294 711 151 z "},"Ø":{"ha":1079,"x_min":0,"x_max":0,"o":"m 899 878 l 947 936 l 894 981 l 849 926 b 540 1028 768 992 663 1028 b 54 507 249 1028 54 819 b 185 133 54 353 101 224 l 136 75 l 189 31 l 235 86 b 540 -14 315 22 419 -14 b 1026 507 832 -14 1026 194 b 899 878 1026 660 981 788 z m 256 507 b 540 863 256 719 369 863 b 729 783 617 863 681 835 l 311 283 b 256 507 275 342 256 418 z m 540 151 b 354 228 465 151 401 179 l 772 726 b 825 507 806 668 825 593 b 540 151 825 294 711 151 z "},"Ǿ":{"ha":1079,"x_min":0,"x_max":0,"o":"m 775 1256 l 546 1256 l 449 1069 l 633 1069 z m 899 878 l 947 936 l 894 981 l 849 926 b 540 1028 768 992 663 1028 b 54 507 249 1028 54 819 b 185 133 54 353 101 224 l 136 75 l 189 31 l 235 86 b 540 -14 315 22 419 -14 b 1026 507 832 -14 1026 194 b 899 878 1026 660 981 788 z m 256 507 b 540 863 256 719 369 863 b 729 783 617 863 681 835 l 311 283 b 256 507 275 342 256 418 z m 540 151 b 354 228 465 151 401 179 l 772 726 b 825 507 806 668 825 593 b 540 151 825 294 711 151 z "},"Õ":{"ha":1079,"x_min":0,"x_max":0,"o":"m 640 1063 b 821 1192 722 1063 790 1115 l 732 1249 b 638 1193 711 1215 683 1193 b 440 1251 582 1193 506 1251 b 260 1122 358 1251 290 1200 l 349 1067 b 443 1122 369 1099 397 1122 b 640 1063 499 1122 575 1063 z m 540 -14 b 1026 507 832 -14 1026 194 b 540 1028 1026 819 832 1028 b 54 507 249 1028 54 819 b 540 -14 54 194 249 -14 z m 540 151 b 256 507 369 151 256 294 b 540 863 256 719 369 863 b 825 507 711 863 825 719 b 540 151 825 294 711 151 z "},"Œ":{"ha":1586,"x_min":0,"x_max":0,"o":"m 542 -14 b 829 78 656 -14 754 19 l 829 0 l 1529 0 l 1529 165 l 1024 165 l 1024 450 l 1474 450 l 1474 611 l 1024 611 l 1024 853 l 1522 853 l 1522 1014 l 829 1014 l 829 935 b 542 1028 754 994 656 1028 b 54 507 244 1028 54 804 b 542 -14 54 210 244 -14 z m 542 151 b 256 507 365 151 256 275 b 542 863 256 719 350 863 b 829 507 718 863 829 739 b 542 151 829 294 735 151 z "},"P":{"ha":894,"x_min":0,"x_max":0,"o":"m 99 0 l 293 0 l 293 401 l 522 401 b 872 707 732 401 872 519 b 522 1014 872 892 736 1014 l 99 1014 z m 293 561 l 293 853 l 500 853 b 671 707 603 853 671 800 b 500 561 671 619 607 561 z "},"Þ":{"ha":897,"x_min":0,"x_max":0,"o":"m 99 0 l 293 0 l 293 272 l 511 272 b 875 586 729 272 875 372 b 511 900 875 775 758 900 l 293 900 l 293 1089 l 99 1089 z m 293 433 l 293 739 l 489 739 b 674 586 600 739 674 694 b 489 433 674 494 619 433 z "},"Q":{"ha":1099,"x_min":0,"x_max":0,"o":"m 533 -14 b 674 -4 581 -14 650 -6 b 788 0 749 0 788 0 l 1082 0 l 1082 164 l 993 164 b 835 147 943 164 872 157 l 835 151 b 1013 507 943 221 1013 342 b 533 1028 1013 819 821 1028 b 54 507 246 1028 54 819 b 533 -14 54 194 246 -14 z m 533 151 b 256 507 367 151 256 294 b 533 863 256 719 367 863 b 811 507 700 863 811 719 b 533 151 811 294 704 151 z "},"R":{"ha":985,"x_min":0,"x_max":0,"o":"m 99 0 l 293 0 l 293 390 l 471 390 b 651 286 572 390 626 379 b 735 0 676 196 688 47 l 957 0 l 957 8 b 849 307 900 57 893 193 b 693 464 814 397 776 443 l 693 468 b 933 718 822 486 933 561 b 586 1014 933 893 835 1014 l 99 1014 z m 293 551 l 293 853 l 565 853 b 732 704 667 853 732 799 b 565 551 732 618 679 551 z "},"Ŕ":{"ha":985,"x_min":0,"x_max":0,"o":"m 376 1069 l 561 1069 l 703 1256 l 474 1256 z m 99 0 l 293 0 l 293 390 l 471 390 b 651 286 572 390 626 379 b 735 0 676 196 688 47 l 957 0 l 957 8 b 849 307 900 57 893 193 b 693 464 814 397 776 443 l 693 468 b 933 718 822 486 933 561 b 586 1014 933 893 835 1014 l 99 1014 z m 293 551 l 293 853 l 565 853 b 732 704 667 853 732 799 b 565 551 732 618 679 551 z "},"Ř":{"ha":985,"x_min":0,"x_max":0,"o":"m 400 1064 l 538 1064 l 733 1265 l 574 1265 l 468 1168 l 364 1265 l 204 1265 z m 99 0 l 293 0 l 293 390 l 471 390 b 651 286 572 390 626 379 b 735 0 676 196 688 47 l 957 0 l 957 8 b 849 307 900 57 893 193 b 693 464 814 397 776 443 l 693 468 b 933 718 822 486 933 561 b 586 1014 933 893 835 1014 l 99 1014 z m 293 551 l 293 853 l 565 853 b 732 704 667 853 732 799 b 565 551 732 618 679 551 z "},"Ŗ":{"ha":985,"x_min":0,"x_max":0,"o":"m 99 0 l 293 0 l 293 390 l 471 390 b 651 286 572 390 626 379 b 735 0 676 196 688 47 l 957 0 l 957 8 b 849 307 900 57 893 193 b 693 464 814 397 776 443 l 693 468 b 933 718 822 486 933 561 b 586 1014 933 893 835 1014 l 99 1014 z m 293 551 l 293 853 l 565 853 b 732 704 667 853 732 799 b 565 551 732 618 679 551 z m 404 -342 l 488 -342 l 599 -212 l 599 -56 l 418 -56 l 418 -206 l 489 -206 l 489 -212 z "},"S":{"ha":911,"x_min":0,"x_max":0,"o":"m 467 -14 b 864 293 699 -14 864 111 b 485 601 864 519 694 543 b 289 746 343 642 289 667 b 453 863 289 813 354 863 b 622 710 554 863 621 808 l 838 710 b 453 1028 838 896 688 1028 b 81 729 225 1028 81 894 b 421 424 81 521 258 468 b 649 272 599 375 649 344 b 467 151 649 200 590 151 b 275 335 350 151 272 217 l 53 335 b 467 -14 53 126 208 -14 z "},"Ś":{"ha":911,"x_min":0,"x_max":0,"o":"m 361 1069 l 546 1069 l 688 1256 l 458 1256 z m 467 -14 b 864 293 699 -14 864 111 b 485 601 864 519 694 543 b 289 746 343 642 289 667 b 453 863 289 813 354 863 b 622 710 554 863 621 808 l 838 710 b 453 1028 838 896 688 1028 b 81 729 225 1028 81 894 b 421 424 81 521 258 468 b 649 272 599 375 649 344 b 467 151 649 200 590 151 b 275 335 350 151 272 217 l 53 335 b 467 -14 53 126 208 -14 z "},"Š":{"ha":911,"x_min":0,"x_max":0,"o":"m 385 1064 l 522 1064 l 718 1265 l 558 1265 l 453 1168 l 349 1265 l 189 1265 z m 467 -14 b 864 293 699 -14 864 111 b 485 601 864 519 694 543 b 289 746 343 642 289 667 b 453 863 289 813 354 863 b 622 710 554 863 621 808 l 838 710 b 453 1028 838 896 688 1028 b 81 729 225 1028 81 894 b 421 424 81 521 258 468 b 649 272 599 375 649 344 b 467 151 649 200 590 151 b 275 335 350 151 272 217 l 53 335 b 467 -14 53 126 208 -14 z "},"Ş":{"ha":911,"x_min":0,"x_max":0,"o":"m 864 293 b 485 601 864 519 694 543 b 289 746 343 642 289 667 b 453 863 289 813 354 863 b 622 710 554 863 621 808 l 838 710 b 453 1028 838 896 688 1028 b 81 729 225 1028 81 894 b 421 424 81 521 258 468 b 649 272 599 375 649 344 b 467 151 649 200 590 151 b 275 335 350 151 272 217 l 53 335 b 419 -12 53 139 190 4 l 363 -78 l 390 -125 b 442 -108 390 -125 406 -108 b 488 -146 469 -108 488 -119 b 428 -185 488 -169 469 -185 b 329 -153 378 -185 347 -165 l 307 -206 b 449 -257 328 -229 386 -257 b 608 -149 544 -257 608 -214 b 457 -54 608 -79 547 -40 l 454 -51 l 492 -14 b 864 293 711 -4 864 118 z "},"Ŝ":{"ha":911,"x_min":0,"x_max":0,"o":"m 189 1064 l 349 1064 l 453 1161 l 558 1064 l 718 1064 l 522 1265 l 385 1265 z m 467 -14 b 864 293 699 -14 864 111 b 485 601 864 519 694 543 b 289 746 343 642 289 667 b 453 863 289 813 354 863 b 622 710 554 863 621 808 l 838 710 b 453 1028 838 896 688 1028 b 81 729 225 1028 81 894 b 421 424 81 521 258 468 b 649 272 599 375 649 344 b 467 151 649 200 590 151 b 275 335 350 151 272 217 l 53 335 b 467 -14 53 126 208 -14 z "},"Ș":{"ha":911,"x_min":0,"x_max":0,"o":"m 467 -14 b 864 293 699 -14 864 111 b 485 601 864 519 694 543 b 289 746 343 642 289 667 b 453 863 289 813 354 863 b 622 710 554 863 621 808 l 838 710 b 453 1028 838 896 688 1028 b 81 729 225 1028 81 894 b 421 424 81 521 258 468 b 649 272 599 375 649 344 b 467 151 649 200 590 151 b 275 335 350 151 272 217 l 53 335 b 467 -14 53 126 208 -14 z m 363 -342 l 446 -342 l 557 -212 l 557 -56 l 376 -56 l 376 -206 l 447 -206 l 447 -212 z "},"Ə":{"ha":999,"x_min":0,"x_max":0,"o":"m 497 -14 b 951 501 761 -14 951 158 b 492 1028 951 815 785 1028 b 58 675 264 1028 88 896 l 254 675 b 496 863 278 788 363 863 b 750 544 654 863 749 747 l 47 544 b 46 493 46 528 46 510 b 497 -14 46 182 213 -14 z m 497 151 b 249 385 358 151 249 243 l 750 385 b 497 151 750 249 644 151 z "},"T":{"ha":857,"x_min":0,"x_max":0,"o":"m 332 0 l 526 0 l 526 849 l 832 849 l 832 1014 l 25 1014 l 25 849 l 332 849 z "},"Ŧ":{"ha":857,"x_min":0,"x_max":0,"o":"m 832 849 l 832 1014 l 25 1014 l 25 849 l 332 849 l 332 586 l 117 586 l 117 431 l 332 431 l 332 0 l 526 0 l 526 431 l 742 431 l 742 586 l 526 586 l 526 849 z "},"Ť":{"ha":857,"x_min":0,"x_max":0,"o":"m 361 1064 l 499 1064 l 694 1265 l 535 1265 l 429 1168 l 325 1265 l 165 1265 z m 332 0 l 526 0 l 526 849 l 832 849 l 832 1014 l 25 1014 l 25 849 l 332 849 z "},"Ţ":{"ha":857,"x_min":0,"x_max":0,"o":"m 526 0 l 526 849 l 832 849 l 832 1014 l 25 1014 l 25 849 l 332 849 l 332 0 l 393 0 l 325 -78 l 353 -125 b 404 -108 353 -125 368 -108 b 450 -146 432 -108 450 -119 b 390 -185 450 -169 432 -185 b 292 -153 340 -185 310 -165 l 269 -206 b 411 -257 290 -229 349 -257 b 571 -149 507 -257 571 -214 b 419 -54 571 -79 510 -40 l 417 -51 l 468 0 z "},"Ț":{"ha":857,"x_min":0,"x_max":0,"o":"m 332 0 l 526 0 l 526 849 l 832 849 l 832 1014 l 25 1014 l 25 849 l 332 849 z m 325 -342 l 408 -342 l 519 -212 l 519 -56 l 339 -56 l 339 -206 l 410 -206 l 410 -212 z "},"U":{"ha":990,"x_min":0,"x_max":0,"o":"m 496 -14 b 901 404 754 -14 901 140 l 901 1014 l 707 1014 l 707 363 b 496 151 707 236 632 151 b 283 363 368 151 283 228 l 283 1014 l 89 1014 l 89 404 b 496 -14 89 160 222 -14 z "},"Ú":{"ha":990,"x_min":0,"x_max":0,"o":"m 404 1069 l 589 1069 l 731 1256 l 501 1256 z m 496 -14 b 901 404 754 -14 901 140 l 901 1014 l 707 1014 l 707 363 b 496 151 707 236 632 151 b 283 363 368 151 283 228 l 283 1014 l 89 1014 l 89 404 b 496 -14 89 160 222 -14 z "},"Ŭ":{"ha":990,"x_min":0,"x_max":0,"o":"m 496 1063 b 721 1258 618 1063 707 1133 l 594 1258 b 496 1186 582 1215 546 1186 b 396 1258 449 1186 410 1213 l 271 1258 b 496 1063 282 1142 365 1063 z m 496 -14 b 901 404 754 -14 901 140 l 901 1014 l 707 1014 l 707 363 b 496 151 707 236 632 151 b 283 363 368 151 283 228 l 283 1014 l 89 1014 l 89 404 b 496 -14 89 160 222 -14 z "},"Û":{"ha":990,"x_min":0,"x_max":0,"o":"m 232 1064 l 392 1064 l 496 1161 l 601 1064 l 761 1064 l 565 1265 l 428 1265 z m 496 -14 b 901 404 754 -14 901 140 l 901 1014 l 707 1014 l 707 363 b 496 151 707 236 632 151 b 283 363 368 151 283 228 l 283 1014 l 89 1014 l 89 404 b 496 -14 89 160 222 -14 z "},"Ü":{"ha":990,"x_min":0,"x_max":0,"o":"m 236 1074 l 426 1074 l 426 1244 l 236 1244 z m 565 1074 l 754 1074 l 754 1244 l 565 1244 z m 496 -14 b 901 404 754 -14 901 140 l 901 1014 l 707 1014 l 707 363 b 496 151 707 236 632 151 b 283 363 368 151 283 228 l 283 1014 l 89 1014 l 89 404 b 496 -14 89 160 222 -14 z "},"Ù":{"ha":990,"x_min":0,"x_max":0,"o":"m 404 1069 l 589 1069 l 492 1256 l 263 1256 z m 496 -14 b 901 404 754 -14 901 140 l 901 1014 l 707 1014 l 707 363 b 496 151 707 236 632 151 b 283 363 368 151 283 228 l 283 1014 l 89 1014 l 89 404 b 496 -14 89 160 222 -14 z "},"Ű":{"ha":990,"x_min":0,"x_max":0,"o":"m 304 1069 l 457 1069 l 553 1258 l 372 1258 z m 533 1069 l 686 1069 l 782 1258 l 601 1258 z m 496 -14 b 901 404 754 -14 901 140 l 901 1014 l 707 1014 l 707 363 b 496 151 707 236 632 151 b 283 363 368 151 283 228 l 283 1014 l 89 1014 l 89 404 b 496 -14 89 160 222 -14 z "},"Ū":{"ha":990,"x_min":0,"x_max":0,"o":"m 264 1104 l 728 1104 l 728 1242 l 264 1242 z m 496 -14 b 901 404 754 -14 901 140 l 901 1014 l 707 1014 l 707 363 b 496 151 707 236 632 151 b 283 363 368 151 283 228 l 283 1014 l 89 1014 l 89 404 b 496 -14 89 160 222 -14 z "},"Ų":{"ha":990,"x_min":0,"x_max":0,"o":"m 511 -276 b 628 -249 568 -276 599 -268 l 628 -142 l 618 -142 b 565 -156 601 -151 586 -156 b 515 -106 533 -156 515 -137 b 626 1 515 -62 550 -22 b 901 404 808 54 901 189 l 901 1014 l 707 1014 l 707 363 b 496 151 707 236 632 151 b 283 363 368 151 283 228 l 283 1014 l 89 1014 l 89 404 b 454 -12 89 174 208 6 b 354 -151 381 -47 354 -101 b 511 -276 354 -226 413 -276 z "},"Ů":{"ha":990,"x_min":0,"x_max":0,"o":"m 496 1063 b 647 1208 582 1063 647 1122 b 496 1356 647 1294 582 1356 b 344 1208 410 1356 344 1294 b 496 1063 344 1122 410 1063 z m 496 1136 b 424 1208 456 1136 424 1165 b 496 1282 424 1253 456 1282 b 568 1208 538 1282 568 1253 b 496 1136 568 1165 538 1136 z m 496 -14 b 901 404 754 -14 901 140 l 901 1014 l 707 1014 l 707 363 b 496 151 707 236 632 151 b 283 363 368 151 283 228 l 283 1014 l 89 1014 l 89 404 b 496 -14 89 160 222 -14 z "},"Ũ":{"ha":990,"x_min":0,"x_max":0,"o":"m 596 1063 b 776 1192 678 1063 746 1115 l 688 1249 b 593 1193 667 1215 639 1193 b 396 1251 538 1193 461 1251 b 215 1122 314 1251 246 1200 l 304 1067 b 399 1122 325 1099 353 1122 b 596 1063 454 1122 531 1063 z m 496 -14 b 901 404 754 -14 901 140 l 901 1014 l 707 1014 l 707 363 b 496 151 707 236 632 151 b 283 363 368 151 283 228 l 283 1014 l 89 1014 l 89 404 b 496 -14 89 160 222 -14 z "},"V":{"ha":978,"x_min":0,"x_max":0,"o":"m 388 0 l 604 0 l 963 1014 l 761 1014 b 546 376 761 1014 568 446 b 497 208 511 265 496 208 l 494 208 b 446 376 494 208 479 265 b 224 1014 425 446 224 1014 l 15 1014 z "},"W":{"ha":1439,"x_min":0,"x_max":0,"o":"m 296 0 l 535 0 l 685 614 b 718 807 715 747 718 807 l 721 807 b 757 614 721 807 724 747 l 917 0 l 1149 0 l 1413 1014 l 1204 1014 l 1060 396 b 1029 210 1032 275 1029 210 l 1025 210 b 989 396 1025 210 1018 275 l 838 1014 l 601 1014 l 458 396 b 421 210 431 278 421 210 l 418 210 b 385 396 418 210 413 279 l 235 1014 l 26 1014 z "},"Ẃ":{"ha":1439,"x_min":0,"x_max":0,"o":"m 628 1069 l 813 1069 l 954 1256 l 725 1256 z m 296 0 l 535 0 l 685 614 b 718 807 715 747 718 807 l 721 807 b 757 614 721 807 724 747 l 917 0 l 1149 0 l 1413 1014 l 1204 1014 l 1060 396 b 1029 210 1032 275 1029 210 l 1025 210 b 989 396 1025 210 1018 275 l 838 1014 l 601 1014 l 458 396 b 421 210 431 278 421 210 l 418 210 b 385 396 418 210 413 279 l 235 1014 l 26 1014 z "},"Ŵ":{"ha":1439,"x_min":0,"x_max":0,"o":"m 456 1064 l 615 1064 l 719 1161 l 825 1064 l 985 1064 l 789 1265 l 651 1265 z m 296 0 l 535 0 l 685 614 b 718 807 715 747 718 807 l 721 807 b 757 614 721 807 724 747 l 917 0 l 1149 0 l 1413 1014 l 1204 1014 l 1060 396 b 1029 210 1032 275 1029 210 l 1025 210 b 989 396 1025 210 1018 275 l 838 1014 l 601 1014 l 458 396 b 421 210 431 278 421 210 l 418 210 b 385 396 418 210 413 279 l 235 1014 l 26 1014 z "},"Ẅ":{"ha":1439,"x_min":0,"x_max":0,"o":"m 439 1074 l 628 1074 l 628 1244 l 439 1244 z m 810 1074 l 1000 1074 l 1000 1244 l 810 1244 z m 296 0 l 535 0 l 685 614 b 718 807 715 747 718 807 l 721 807 b 757 614 721 807 724 747 l 917 0 l 1149 0 l 1413 1014 l 1204 1014 l 1060 396 b 1029 210 1032 275 1029 210 l 1025 210 b 989 396 1025 210 1018 275 l 838 1014 l 601 1014 l 458 396 b 421 210 431 278 421 210 l 418 210 b 385 396 418 210 413 279 l 235 1014 l 26 1014 z "},"Ẁ":{"ha":1439,"x_min":0,"x_max":0,"o":"m 628 1069 l 813 1069 l 715 1256 l 486 1256 z m 296 0 l 535 0 l 685 614 b 718 807 715 747 718 807 l 721 807 b 757 614 721 807 724 747 l 917 0 l 1149 0 l 1413 1014 l 1204 1014 l 1060 396 b 1029 210 1032 275 1029 210 l 1025 210 b 989 396 1025 210 1018 275 l 838 1014 l 601 1014 l 458 396 b 421 210 431 278 421 210 l 418 210 b 385 396 418 210 413 279 l 235 1014 l 26 1014 z "},"X":{"ha":982,"x_min":0,"x_max":0,"o":"m 13 -1 l 228 -1 l 393 244 b 478 390 464 350 478 390 l 482 390 b 571 244 482 390 500 350 l 740 -1 l 969 -1 l 603 528 l 932 1014 l 717 1014 l 563 788 b 486 657 493 685 486 657 l 483 657 b 406 788 483 657 475 685 l 250 1014 l 21 1014 l 364 528 z "},"Y":{"ha":940,"x_min":0,"x_max":0,"o":"m 376 0 l 571 0 l 571 386 l 932 1014 l 724 1014 l 549 706 b 475 542 476 581 475 542 l 472 542 b 397 706 472 542 469 581 l 224 1014 l 8 1014 l 376 386 z "},"Ý":{"ha":940,"x_min":0,"x_max":0,"o":"m 382 1069 l 567 1069 l 708 1256 l 479 1256 z m 376 0 l 571 0 l 571 386 l 932 1014 l 724 1014 l 549 706 b 475 542 476 581 475 542 l 472 542 b 397 706 472 542 469 581 l 224 1014 l 8 1014 l 376 386 z "},"Ŷ":{"ha":940,"x_min":0,"x_max":0,"o":"m 210 1064 l 369 1064 l 474 1161 l 579 1064 l 739 1064 l 543 1265 l 406 1265 z m 376 0 l 571 0 l 571 386 l 932 1014 l 724 1014 l 549 706 b 475 542 476 581 475 542 l 472 542 b 397 706 472 542 469 581 l 224 1014 l 8 1014 l 376 386 z "},"Ÿ":{"ha":940,"x_min":0,"x_max":0,"o":"m 193 1074 l 382 1074 l 382 1244 l 193 1244 z m 564 1074 l 754 1074 l 754 1244 l 564 1244 z m 376 0 l 571 0 l 571 386 l 932 1014 l 724 1014 l 549 706 b 475 542 476 581 475 542 l 472 542 b 397 706 472 542 469 581 l 224 1014 l 8 1014 l 376 386 z "},"Ỳ":{"ha":940,"x_min":0,"x_max":0,"o":"m 382 1069 l 567 1069 l 469 1256 l 240 1256 z m 376 0 l 571 0 l 571 386 l 932 1014 l 724 1014 l 549 706 b 475 542 476 581 475 542 l 472 542 b 397 706 472 542 469 581 l 224 1014 l 8 1014 l 376 386 z "},"Z":{"ha":939,"x_min":0,"x_max":0,"o":"m 58 0 l 892 0 l 892 165 l 454 165 b 281 158 318 165 281 158 l 281 163 b 481 376 281 163 357 224 l 878 867 l 878 1014 l 93 1014 l 93 853 l 474 853 b 649 860 600 853 649 860 l 649 856 b 450 650 649 856 586 819 l 58 163 z "},"Ź":{"ha":939,"x_min":0,"x_max":0,"o":"m 382 1069 l 567 1069 l 708 1256 l 479 1256 z m 58 0 l 892 0 l 892 165 l 454 165 b 281 158 318 165 281 158 l 281 163 b 481 376 281 163 357 224 l 878 867 l 878 1014 l 93 1014 l 93 853 l 474 853 b 649 860 600 853 649 860 l 649 856 b 450 650 649 856 586 819 l 58 163 z "},"Ž":{"ha":939,"x_min":0,"x_max":0,"o":"m 406 1064 l 543 1064 l 739 1265 l 579 1265 l 474 1168 l 369 1265 l 210 1265 z m 58 0 l 892 0 l 892 165 l 454 165 b 281 158 318 165 281 158 l 281 163 b 481 376 281 163 357 224 l 878 867 l 878 1014 l 93 1014 l 93 853 l 474 853 b 649 860 600 853 649 860 l 649 856 b 450 650 649 856 586 819 l 58 163 z "},"Ż":{"ha":939,"x_min":0,"x_max":0,"o":"m 379 1074 l 567 1074 l 567 1244 l 379 1244 z m 58 0 l 892 0 l 892 165 l 454 165 b 281 158 318 165 281 158 l 281 163 b 481 376 281 163 357 224 l 878 867 l 878 1014 l 93 1014 l 93 853 l 474 853 b 649 860 600 853 649 860 l 649 856 b 450 650 649 856 586 819 l 58 163 z "},"Ƶ":{"ha":939,"x_min":0,"x_max":0,"o":"m 454 165 b 281 158 318 165 281 158 l 281 163 b 481 376 281 163 357 224 l 525 431 l 806 431 l 806 581 l 646 581 l 878 867 l 878 1014 l 93 1014 l 93 853 l 474 853 b 649 860 600 853 649 860 l 649 856 b 450 650 649 856 586 819 l 394 581 l 153 581 l 153 431 l 274 431 l 58 163 l 58 0 l 892 0 l 892 165 z "},"a":{"ha":804,"x_min":0,"x_max":0,"o":"m 304 -14 b 542 97 400 -14 499 19 l 546 97 b 567 0 546 69 554 19 l 743 0 l 743 10 b 718 149 725 38 718 53 l 718 467 b 397 753 718 639 603 753 b 78 500 207 753 79 650 l 265 500 b 400 617 265 569 310 617 b 533 453 482 617 533 569 l 389 443 b 54 206 192 428 54 374 b 304 -14 54 74 154 -14 z m 368 124 b 249 219 299 124 249 161 b 386 319 249 276 294 310 l 533 333 l 533 303 b 368 124 533 201 474 124 z "},"á":{"ha":804,"x_min":0,"x_max":0,"o":"m 324 813 l 474 813 l 622 1026 l 400 1026 z m 304 -14 b 542 97 400 -14 499 19 l 546 97 b 567 0 546 69 554 19 l 743 0 l 743 10 b 718 149 725 38 718 53 l 718 467 b 397 753 718 639 603 753 b 78 500 207 753 79 650 l 265 500 b 400 617 265 569 310 617 b 533 453 482 617 533 569 l 389 443 b 54 206 192 428 54 374 b 304 -14 54 74 154 -14 z m 368 124 b 249 219 299 124 249 161 b 386 319 249 276 294 310 l 533 333 l 533 303 b 368 124 533 201 474 124 z "},"ă":{"ha":804,"x_min":0,"x_max":0,"o":"m 397 806 b 622 1026 529 806 619 888 l 496 1026 b 397 929 493 968 457 929 b 297 1026 340 929 300 965 l 172 1026 b 397 806 174 888 264 806 z m 304 -14 b 542 97 400 -14 499 19 l 546 97 b 567 0 546 69 554 19 l 743 0 l 743 10 b 718 149 725 38 718 53 l 718 467 b 397 753 718 639 603 753 b 78 500 207 753 79 650 l 265 500 b 400 617 265 569 310 617 b 533 453 482 617 533 569 l 389 443 b 54 206 192 428 54 374 b 304 -14 54 74 154 -14 z m 368 124 b 249 219 299 124 249 161 b 386 319 249 276 294 310 l 533 333 l 533 303 b 368 124 533 201 474 124 z "},"â":{"ha":804,"x_min":0,"x_max":0,"o":"m 164 813 l 304 813 l 396 935 l 399 935 l 489 813 l 631 813 l 458 1043 l 336 1043 z m 304 -14 b 542 97 400 -14 499 19 l 546 97 b 567 0 546 69 554 19 l 743 0 l 743 10 b 718 149 725 38 718 53 l 718 467 b 397 753 718 639 603 753 b 78 500 207 753 79 650 l 265 500 b 400 617 265 569 310 617 b 533 453 482 617 533 569 l 389 443 b 54 206 192 428 54 374 b 304 -14 54 74 154 -14 z m 368 124 b 249 219 299 124 249 161 b 386 319 249 276 294 310 l 533 333 l 533 303 b 368 124 533 201 474 124 z "},"ä":{"ha":804,"x_min":0,"x_max":0,"o":"m 135 828 l 326 828 l 326 1006 l 135 1006 z m 468 828 l 660 828 l 660 1006 l 468 1006 z m 304 -14 b 542 97 400 -14 499 19 l 546 97 b 567 0 546 69 554 19 l 743 0 l 743 10 b 718 149 725 38 718 53 l 718 467 b 397 753 718 639 603 753 b 78 500 207 753 79 650 l 265 500 b 400 617 265 569 310 617 b 533 453 482 617 533 569 l 389 443 b 54 206 192 428 54 374 b 304 -14 54 74 154 -14 z m 368 124 b 249 219 299 124 249 161 b 386 319 249 276 294 310 l 533 333 l 533 303 b 368 124 533 201 474 124 z "},"à":{"ha":804,"x_min":0,"x_max":0,"o":"m 322 813 l 472 813 l 396 1026 l 174 1026 z m 304 -14 b 542 97 400 -14 499 19 l 546 97 b 567 0 546 69 554 19 l 743 0 l 743 10 b 718 149 725 38 718 53 l 718 467 b 397 753 718 639 603 753 b 78 500 207 753 79 650 l 265 500 b 400 617 265 569 310 617 b 533 453 482 617 533 569 l 389 443 b 54 206 192 428 54 374 b 304 -14 54 74 154 -14 z m 368 124 b 249 219 299 124 249 161 b 386 319 249 276 294 310 l 533 333 l 533 303 b 368 124 533 201 474 124 z "},"ā":{"ha":804,"x_min":0,"x_max":0,"o":"m 150 840 l 642 840 l 642 978 l 150 978 z m 304 -14 b 542 97 400 -14 499 19 l 546 97 b 567 0 546 69 554 19 l 743 0 l 743 10 b 718 149 725 38 718 53 l 718 467 b 397 753 718 639 603 753 b 78 500 207 753 79 650 l 265 500 b 400 617 265 569 310 617 b 533 453 482 617 533 569 l 389 443 b 54 206 192 428 54 374 b 304 -14 54 74 154 -14 z m 368 124 b 249 219 299 124 249 161 b 386 319 249 276 294 310 l 533 333 l 533 303 b 368 124 533 201 474 124 z "},"ą":{"ha":804,"x_min":0,"x_max":0,"o":"m 743 0 l 743 10 b 718 149 725 38 718 53 l 718 467 b 397 753 718 639 603 753 b 78 500 207 753 79 650 l 265 500 b 400 617 265 569 310 617 b 533 453 482 617 533 569 l 389 443 b 54 206 192 428 54 374 b 304 -14 54 74 154 -14 b 542 97 400 -14 499 19 l 546 97 b 567 0 546 69 554 19 b 469 -142 503 -22 469 -79 b 626 -276 469 -222 532 -276 b 743 -249 683 -276 714 -268 l 743 -142 l 733 -142 b 681 -156 717 -151 701 -156 b 631 -106 649 -156 631 -137 b 743 0 631 -65 672 -28 z m 533 303 b 368 124 533 201 474 124 b 249 219 299 124 249 161 b 386 319 249 276 294 310 l 533 333 z "},"å":{"ha":804,"x_min":0,"x_max":0,"o":"m 397 790 b 550 935 485 790 550 850 b 397 1082 550 1022 485 1082 b 246 935 311 1082 246 1022 b 397 790 246 850 311 790 z m 397 863 b 325 935 358 863 325 892 b 397 1008 325 979 358 1008 b 469 935 439 1008 469 979 b 397 863 469 892 439 863 z m 304 -14 b 542 97 400 -14 499 19 l 546 97 b 567 0 546 69 554 19 l 743 0 l 743 10 b 718 149 725 38 718 53 l 718 467 b 397 753 718 639 603 753 b 78 500 207 753 79 650 l 265 500 b 400 617 265 569 310 617 b 533 453 482 617 533 569 l 389 443 b 54 206 192 428 54 374 b 304 -14 54 74 154 -14 z m 368 124 b 249 219 299 124 249 161 b 386 319 249 276 294 310 l 533 333 l 533 303 b 368 124 533 201 474 124 z "},"ǻ":{"ha":804,"x_min":0,"x_max":0,"o":"m 322 1114 l 507 1114 l 649 1300 l 419 1300 z m 397 790 b 550 935 485 790 550 850 b 397 1082 550 1022 485 1082 b 246 935 311 1082 246 1022 b 397 790 246 850 311 790 z m 397 863 b 325 935 358 863 325 892 b 397 1008 325 979 358 1008 b 469 935 439 1008 469 979 b 397 863 469 892 439 863 z m 304 -14 b 542 97 400 -14 499 19 l 546 97 b 567 0 546 69 554 19 l 743 0 l 743 10 b 718 149 725 38 718 53 l 718 467 b 397 753 718 639 603 753 b 78 500 207 753 79 650 l 265 500 b 400 617 265 569 310 617 b 533 453 482 617 533 569 l 389 443 b 54 206 192 428 54 374 b 304 -14 54 74 154 -14 z m 368 124 b 249 219 299 124 249 161 b 386 319 249 276 294 310 l 533 333 l 533 303 b 368 124 533 201 474 124 z "},"ã":{"ha":804,"x_min":0,"x_max":0,"o":"m 497 836 b 678 967 579 836 647 889 l 589 1022 b 494 968 568 990 536 968 b 297 1026 439 968 363 1026 b 117 896 214 1026 147 974 l 204 840 b 300 894 226 872 257 894 b 497 836 356 894 432 836 z m 304 -14 b 542 97 400 -14 499 19 l 546 97 b 567 0 546 69 554 19 l 743 0 l 743 10 b 718 149 725 38 718 53 l 718 467 b 397 753 718 639 603 753 b 78 500 207 753 79 650 l 265 500 b 400 617 265 569 310 617 b 533 453 482 617 533 569 l 389 443 b 54 206 192 428 54 374 b 304 -14 54 74 154 -14 z m 368 124 b 249 219 299 124 249 161 b 386 319 249 276 294 310 l 533 333 l 533 303 b 368 124 533 201 474 124 z "},"æ":{"ha":1300,"x_min":0,"x_max":0,"o":"m 329 -14 b 624 131 464 -14 578 38 l 626 131 b 903 -14 679 32 799 -14 b 1243 236 1078 -14 1222 90 l 1061 236 b 907 133 1038 171 989 133 b 726 331 804 133 728 199 l 1250 331 b 896 753 1258 538 1164 753 b 646 639 803 753 706 710 l 643 639 b 401 753 593 707 510 753 b 82 500 210 753 83 649 l 268 500 b 401 617 269 569 318 617 b 538 450 492 617 538 554 l 393 450 b 54 206 182 450 54 374 b 329 -14 54 79 168 -14 z m 728 450 b 896 606 736 543 799 606 b 1064 450 988 606 1057 551 z m 369 124 b 249 219 297 124 249 163 b 399 331 249 285 296 331 l 538 331 l 538 303 b 369 124 536 201 472 124 z "},"ǽ":{"ha":1300,"x_min":0,"x_max":0,"o":"m 571 813 l 721 813 l 869 1026 l 647 1026 z m 329 -14 b 624 131 464 -14 578 38 l 626 131 b 903 -14 679 32 799 -14 b 1243 236 1078 -14 1222 90 l 1061 236 b 907 133 1038 171 989 133 b 726 331 804 133 728 199 l 1250 331 b 896 753 1258 538 1164 753 b 646 639 803 753 706 710 l 643 639 b 401 753 593 707 510 753 b 82 500 210 753 83 649 l 268 500 b 401 617 269 569 318 617 b 538 450 492 617 538 554 l 393 450 b 54 206 182 450 54 374 b 329 -14 54 79 168 -14 z m 728 450 b 896 606 736 543 799 606 b 1064 450 988 606 1057 551 z m 369 124 b 249 219 297 124 249 163 b 399 331 249 285 296 331 l 538 331 l 538 303 b 369 124 536 201 472 124 z "},"b":{"ha":861,"x_min":0,"x_max":0,"o":"m 492 -14 b 811 368 683 -14 811 128 b 489 753 811 599 692 753 b 268 647 404 753 318 718 l 264 647 b 269 1014 269 769 269 1014 l 85 1014 l 85 0 l 269 0 l 269 88 l 272 88 b 492 -14 319 22 399 -14 z m 439 133 b 260 368 332 133 260 218 b 438 606 260 511 324 606 b 617 368 544 606 617 517 b 439 133 617 226 550 133 z "},"c":{"ha":815,"x_min":0,"x_max":0,"o":"m 419 -14 b 765 267 625 -14 746 100 l 576 267 b 419 133 563 186 507 133 b 244 371 314 133 244 213 b 422 606 244 513 303 606 b 576 474 500 606 561 561 l 765 474 b 422 753 751 639 611 753 b 50 371 199 753 50 600 b 419 -14 50 140 193 -14 z "},"ć":{"ha":815,"x_min":0,"x_max":0,"o":"m 349 813 l 499 813 l 647 1026 l 425 1026 z m 419 -14 b 765 267 625 -14 746 100 l 576 267 b 419 133 563 186 507 133 b 244 371 314 133 244 213 b 422 606 244 513 303 606 b 576 474 500 606 561 561 l 765 474 b 422 753 751 639 611 753 b 50 371 199 753 50 600 b 419 -14 50 140 193 -14 z "},"č":{"ha":815,"x_min":0,"x_max":0,"o":"m 361 813 l 483 813 l 656 1043 l 514 1043 l 424 922 l 421 922 l 329 1043 l 189 1043 z m 419 -14 b 765 267 625 -14 746 100 l 576 267 b 419 133 563 186 507 133 b 244 371 314 133 244 213 b 422 606 244 513 303 606 b 576 474 500 606 561 561 l 765 474 b 422 753 751 639 611 753 b 50 371 199 753 50 600 b 419 -14 50 140 193 -14 z "},"ç":{"ha":815,"x_min":0,"x_max":0,"o":"m 419 133 b 244 371 314 133 244 213 b 422 606 244 513 303 606 b 576 474 500 606 561 561 l 765 474 b 422 753 751 639 611 753 b 50 371 199 753 50 600 b 374 -11 50 157 174 8 l 315 -78 l 343 -125 b 394 -108 343 -125 358 -108 b 440 -146 422 -108 440 -119 b 381 -185 440 -169 422 -185 b 282 -153 331 -185 300 -165 l 260 -206 b 401 -257 281 -229 339 -257 b 561 -149 497 -257 561 -214 b 410 -54 561 -79 500 -40 l 407 -51 l 444 -14 b 765 267 635 -4 747 107 l 576 267 b 419 133 563 186 507 133 z "},"ĉ":{"ha":815,"x_min":0,"x_max":0,"o":"m 189 813 l 329 813 l 421 935 l 424 935 l 514 813 l 656 813 l 483 1043 l 361 1043 z m 419 -14 b 765 267 625 -14 746 100 l 576 267 b 419 133 563 186 507 133 b 244 371 314 133 244 213 b 422 606 244 513 303 606 b 576 474 500 606 561 561 l 765 474 b 422 753 751 639 611 753 b 50 371 199 753 50 600 b 419 -14 50 140 193 -14 z "},"ċ":{"ha":815,"x_min":0,"x_max":0,"o":"m 322 833 l 524 833 l 524 1014 l 322 1014 z m 419 -14 b 765 267 625 -14 746 100 l 576 267 b 419 133 563 186 507 133 b 244 371 314 133 244 213 b 422 606 244 513 303 606 b 576 474 500 606 561 561 l 765 474 b 422 753 751 639 611 753 b 50 371 199 753 50 600 b 419 -14 50 140 193 -14 z "},"d":{"ha":869,"x_min":0,"x_max":0,"o":"m 369 -14 b 589 88 463 -14 542 22 l 592 88 b 610 0 592 53 599 18 l 801 0 l 801 7 b 776 149 786 38 775 90 l 776 1014 l 592 1014 b 594 647 592 1014 592 769 l 590 647 b 372 753 540 718 456 753 b 50 368 169 753 50 599 b 369 -14 50 128 176 -14 z m 422 133 b 244 368 315 133 244 221 b 424 606 244 511 311 606 b 601 368 531 606 601 519 b 422 133 601 226 538 133 z "},"ð":{"ha":842,"x_min":0,"x_max":0,"o":"m 625 901 l 711 925 l 674 1063 l 499 1017 b 419 1065 474 1033 447 1050 l 160 1065 b 335 972 219 1038 279 1007 l 167 928 l 201 788 l 478 863 b 596 678 531 810 572 749 l 592 678 b 408 753 556 725 482 753 b 50 374 193 753 50 601 b 422 -14 50 140 199 -14 b 794 396 644 -14 794 135 b 625 901 794 589 742 764 z m 424 133 b 244 368 317 133 244 218 b 426 606 244 511 310 606 b 607 368 535 606 607 519 b 424 133 607 228 540 133 z "},"ď":{"ha":869,"x_min":0,"x_max":0,"o":"m 369 -14 b 589 88 463 -14 542 22 l 592 88 b 610 0 592 53 599 18 l 801 0 l 801 7 b 776 149 786 38 775 90 l 776 1014 l 592 1014 b 594 647 592 1014 592 769 l 590 647 b 372 753 540 718 456 753 b 50 368 169 753 50 599 b 369 -14 50 128 176 -14 z m 819 764 l 889 764 l 974 874 l 974 1014 l 819 1014 l 819 879 l 875 879 l 875 874 z m 422 133 b 244 368 315 133 244 221 b 424 606 244 511 311 606 b 601 368 531 606 601 519 b 422 133 601 226 538 133 z "},"đ":{"ha":869,"x_min":0,"x_max":0,"o":"m 776 828 l 864 828 l 864 944 l 776 944 l 776 1014 l 592 1014 l 592 944 l 336 944 l 336 828 l 592 828 b 594 647 593 764 593 696 l 590 647 b 372 753 540 718 456 753 b 50 368 169 753 50 599 b 369 -14 50 128 176 -14 b 589 88 463 -14 542 22 l 592 88 b 610 0 592 53 599 18 l 801 0 l 801 7 b 776 149 786 38 775 90 z m 422 133 b 244 368 315 133 244 221 b 424 606 244 511 311 606 b 601 368 531 606 601 519 b 422 133 601 226 538 133 z "},"e":{"ha":819,"x_min":0,"x_max":0,"o":"m 421 -14 b 761 236 594 -14 742 90 l 579 236 b 425 133 556 171 507 133 b 244 328 321 133 244 200 l 768 328 b 769 388 769 357 769 369 b 415 753 769 607 617 753 b 50 369 206 753 50 600 b 421 -14 50 151 201 -14 z m 246 447 b 415 606 254 542 317 606 b 582 447 507 606 574 550 z "},"é":{"ha":819,"x_min":0,"x_max":0,"o":"m 342 813 l 492 813 l 640 1026 l 418 1026 z m 421 -14 b 761 236 594 -14 742 90 l 579 236 b 425 133 556 171 507 133 b 244 328 321 133 244 200 l 768 328 b 769 388 769 357 769 369 b 415 753 769 607 617 753 b 50 369 206 753 50 600 b 421 -14 50 151 201 -14 z m 246 447 b 415 606 254 542 317 606 b 582 447 507 606 574 550 z "},"ĕ":{"ha":819,"x_min":0,"x_max":0,"o":"m 415 806 b 640 1026 547 806 638 888 l 514 1026 b 415 929 511 968 475 929 b 315 1026 358 929 318 965 l 190 1026 b 415 806 192 888 282 806 z m 421 -14 b 761 236 594 -14 742 90 l 579 236 b 425 133 556 171 507 133 b 244 328 321 133 244 200 l 768 328 b 769 388 769 357 769 369 b 415 753 769 607 617 753 b 50 369 206 753 50 600 b 421 -14 50 151 201 -14 z m 246 447 b 415 606 254 542 317 606 b 582 447 507 606 574 550 z "},"ě":{"ha":819,"x_min":0,"x_max":0,"o":"m 354 813 l 476 813 l 649 1043 l 507 1043 l 417 922 l 414 922 l 322 1043 l 182 1043 z m 421 -14 b 761 236 594 -14 742 90 l 579 236 b 425 133 556 171 507 133 b 244 328 321 133 244 200 l 768 328 b 769 388 769 357 769 369 b 415 753 769 607 617 753 b 50 369 206 753 50 600 b 421 -14 50 151 201 -14 z m 246 447 b 415 606 254 542 317 606 b 582 447 507 606 574 550 z "},"ê":{"ha":819,"x_min":0,"x_max":0,"o":"m 182 813 l 322 813 l 414 935 l 417 935 l 507 813 l 649 813 l 476 1043 l 354 1043 z m 421 -14 b 761 236 594 -14 742 90 l 579 236 b 425 133 556 171 507 133 b 244 328 321 133 244 200 l 768 328 b 769 388 769 357 769 369 b 415 753 769 607 617 753 b 50 369 206 753 50 600 b 421 -14 50 151 201 -14 z m 246 447 b 415 606 254 542 317 606 b 582 447 507 606 574 550 z "},"ë":{"ha":819,"x_min":0,"x_max":0,"o":"m 153 828 l 344 828 l 344 1006 l 153 1006 z m 486 828 l 678 828 l 678 1006 l 486 1006 z m 421 -14 b 761 236 594 -14 742 90 l 579 236 b 425 133 556 171 507 133 b 244 328 321 133 244 200 l 768 328 b 769 388 769 357 769 369 b 415 753 769 607 617 753 b 50 369 206 753 50 600 b 421 -14 50 151 201 -14 z m 246 447 b 415 606 254 542 317 606 b 582 447 507 606 574 550 z "},"ė":{"ha":819,"x_min":0,"x_max":0,"o":"m 315 833 l 517 833 l 517 1014 l 315 1014 z m 421 -14 b 761 236 594 -14 742 90 l 579 236 b 425 133 556 171 507 133 b 244 328 321 133 244 200 l 768 328 b 769 388 769 357 769 369 b 415 753 769 607 617 753 b 50 369 206 753 50 600 b 421 -14 50 151 201 -14 z m 246 447 b 415 606 254 542 317 606 b 582 447 507 606 574 550 z "},"è":{"ha":819,"x_min":0,"x_max":0,"o":"m 340 813 l 490 813 l 414 1026 l 192 1026 z m 421 -14 b 761 236 594 -14 742 90 l 579 236 b 425 133 556 171 507 133 b 244 328 321 133 244 200 l 768 328 b 769 388 769 357 769 369 b 415 753 769 607 617 753 b 50 369 206 753 50 600 b 421 -14 50 151 201 -14 z m 246 447 b 415 606 254 542 317 606 b 582 447 507 606 574 550 z "},"ē":{"ha":819,"x_min":0,"x_max":0,"o":"m 168 840 l 660 840 l 660 978 l 168 978 z m 421 -14 b 761 236 594 -14 742 90 l 579 236 b 425 133 556 171 507 133 b 244 328 321 133 244 200 l 768 328 b 769 388 769 357 769 369 b 415 753 769 607 617 753 b 50 369 206 753 50 600 b 421 -14 50 151 201 -14 z m 246 447 b 415 606 254 542 317 606 b 582 447 507 606 574 550 z "},"ę":{"ha":819,"x_min":0,"x_max":0,"o":"m 769 388 b 415 753 769 607 617 753 b 50 369 206 753 50 600 b 358 -10 50 172 174 19 b 253 -151 279 -44 253 -99 b 410 -276 253 -226 310 -276 b 526 -249 467 -276 496 -268 l 526 -142 l 517 -142 b 464 -156 499 -151 483 -156 b 414 -106 431 -156 414 -137 b 522 -1 414 -67 453 -29 b 761 236 649 31 746 119 l 579 236 b 425 133 556 171 507 133 b 244 328 321 133 244 200 l 768 328 b 769 388 769 357 769 369 z m 246 447 b 415 606 254 542 317 606 b 582 447 507 606 574 550 z "},"f":{"ha":514,"x_min":0,"x_max":0,"o":"m 147 0 l 332 0 l 332 599 l 489 599 l 489 739 l 332 739 l 332 781 b 489 876 332 871 381 885 l 489 1015 b 386 1028 460 1024 422 1028 b 147 818 242 1028 147 965 l 147 739 l 25 739 l 25 599 l 147 599 z "},"g":{"ha":857,"x_min":0,"x_max":0,"o":"m 422 -281 b 775 21 625 -281 775 -172 l 775 739 l 590 739 l 592 647 l 589 647 b 376 753 556 708 469 753 b 50 392 179 753 50 608 b 374 25 50 172 179 25 b 599 131 469 25 568 67 l 604 131 l 600 28 b 422 -144 596 -75 549 -144 b 256 -28 335 -144 274 -111 l 71 -28 b 422 -281 86 -179 222 -281 z m 419 172 b 243 390 313 172 243 260 b 422 606 243 519 314 606 b 600 388 529 606 600 525 b 419 172 600 258 532 172 z "},"ğ":{"ha":857,"x_min":0,"x_max":0,"o":"m 425 806 b 650 1026 557 806 647 888 l 524 1026 b 425 929 521 968 485 929 b 325 1026 368 929 328 965 l 200 1026 b 425 806 201 888 292 806 z m 422 -281 b 775 21 625 -281 775 -172 l 775 739 l 590 739 l 592 647 l 589 647 b 376 753 556 708 469 753 b 50 392 179 753 50 608 b 374 25 50 172 179 25 b 599 131 469 25 568 67 l 604 131 l 600 28 b 422 -144 596 -75 549 -144 b 256 -28 335 -144 274 -111 l 71 -28 b 422 -281 86 -179 222 -281 z m 419 172 b 243 390 313 172 243 260 b 422 606 243 519 314 606 b 600 388 529 606 600 525 b 419 172 600 258 532 172 z "},"ĝ":{"ha":857,"x_min":0,"x_max":0,"o":"m 192 813 l 332 813 l 424 935 l 426 935 l 517 813 l 658 813 l 486 1043 l 364 1043 z m 422 -281 b 775 21 625 -281 775 -172 l 775 739 l 590 739 l 592 647 l 589 647 b 376 753 556 708 469 753 b 50 392 179 753 50 608 b 374 25 50 172 179 25 b 599 131 469 25 568 67 l 604 131 l 600 28 b 422 -144 596 -75 549 -144 b 256 -28 335 -144 274 -111 l 71 -28 b 422 -281 86 -179 222 -281 z m 419 172 b 243 390 313 172 243 260 b 422 606 243 519 314 606 b 600 388 529 606 600 525 b 419 172 600 258 532 172 z "},"ģ":{"ha":857,"x_min":0,"x_max":0,"o":"m 286 832 l 465 832 l 465 982 l 394 982 l 394 989 l 481 1119 l 397 1119 l 286 989 z m 422 -281 b 775 21 625 -281 775 -172 l 775 739 l 590 739 l 592 647 l 589 647 b 376 753 556 708 469 753 b 50 392 179 753 50 608 b 374 25 50 172 179 25 b 599 131 469 25 568 67 l 604 131 l 600 28 b 422 -144 596 -75 549 -144 b 256 -28 335 -144 274 -111 l 71 -28 b 422 -281 86 -179 222 -281 z m 419 172 b 243 390 313 172 243 260 b 422 606 243 519 314 606 b 600 388 529 606 600 525 b 419 172 600 258 532 172 z "},"ġ":{"ha":857,"x_min":0,"x_max":0,"o":"m 325 833 l 526 833 l 526 1014 l 325 1014 z m 422 -281 b 775 21 625 -281 775 -172 l 775 739 l 590 739 l 592 647 l 589 647 b 376 753 556 708 469 753 b 50 392 179 753 50 608 b 374 25 50 172 179 25 b 599 131 469 25 568 67 l 604 131 l 600 28 b 422 -144 596 -75 549 -144 b 256 -28 335 -144 274 -111 l 71 -28 b 422 -281 86 -179 222 -281 z m 419 172 b 243 390 313 172 243 260 b 422 606 243 519 314 606 b 600 388 529 606 600 525 b 419 172 600 258 532 172 z "},"h":{"ha":832,"x_min":0,"x_max":0,"o":"m 85 0 l 269 0 l 269 400 b 435 611 269 526 319 611 b 574 457 518 611 574 558 l 574 0 l 758 0 l 758 457 b 478 753 758 628 665 753 b 268 647 388 753 310 719 l 264 647 b 269 1014 269 769 269 1014 l 85 1014 z "},"ħ":{"ha":832,"x_min":0,"x_max":0,"o":"m 478 753 b 268 647 388 753 310 719 l 264 647 b 268 828 267 696 268 764 l 519 828 l 519 944 l 269 944 l 269 1014 l 85 1014 l 85 944 l -8 944 l -8 828 l 85 828 l 85 0 l 269 0 l 269 400 b 435 611 269 526 319 611 b 574 457 518 611 574 558 l 574 0 l 758 0 l 758 457 b 478 753 758 628 665 753 z "},"ĥ":{"ha":832,"x_min":0,"x_max":0,"o":"m 171 1064 l 331 1064 l 435 1161 l 540 1064 l 700 1064 l 504 1265 l 367 1265 z m 85 0 l 269 0 l 269 400 b 435 611 269 526 319 611 b 574 457 518 611 574 558 l 574 0 l 758 0 l 758 457 b 478 753 758 628 665 753 b 268 647 388 753 310 719 l 264 647 b 269 1014 269 769 269 1014 l 85 1014 z "},"i":{"ha":369,"x_min":0,"x_max":0,"o":"m 85 833 l 286 833 l 286 1014 l 85 1014 z m 93 0 l 278 0 l 278 739 l 93 739 z "},"ı":{"ha":369,"x_min":0,"x_max":0,"o":"m 93 0 l 278 0 l 278 739 l 93 739 z "},"í":{"ha":369,"x_min":0,"x_max":0,"o":"m 111 813 l 261 813 l 410 1026 l 188 1026 z m 93 0 l 278 0 l 278 739 l 93 739 z "},"î":{"ha":369,"x_min":0,"x_max":0,"o":"m -49 813 l 92 813 l 183 935 l 186 935 l 276 813 l 418 813 l 246 1043 l 124 1043 z m 93 0 l 278 0 l 278 739 l 93 739 z "},"ï":{"ha":369,"x_min":0,"x_max":0,"o":"m -29 828 l 149 828 l 149 1006 l -29 1006 z m 219 828 l 397 828 l 397 1006 l 219 1006 z m 93 0 l 278 0 l 278 739 l 93 739 z "},"ì":{"ha":369,"x_min":0,"x_max":0,"o":"m 110 813 l 260 813 l 183 1026 l -39 1026 z m 93 0 l 278 0 l 278 739 l 93 739 z "},"ĳ":{"ha":713,"x_min":0,"x_max":0,"o":"m 85 833 l 286 833 l 286 1014 l 85 1014 z m 426 833 l 628 833 l 628 1014 l 426 1014 z m 93 0 l 278 0 l 278 739 l 93 739 z m 289 -271 b 619 15 558 -281 619 -218 l 619 739 l 435 739 l 435 35 b 289 -119 435 -92 422 -119 z "},"ī":{"ha":369,"x_min":0,"x_max":0,"o":"m -22 840 l 392 840 l 392 978 l -22 978 z m 93 0 l 278 0 l 278 739 l 93 739 z "},"į":{"ha":369,"x_min":0,"x_max":0,"o":"m 85 1014 l 85 833 l 286 833 l 286 1014 z m 93 0 l 132 0 b 4 -151 36 -35 4 -94 b 161 -276 4 -226 61 -276 b 278 -249 218 -276 247 -268 l 278 -142 l 268 -142 b 215 -156 250 -151 235 -156 b 165 -106 182 -156 165 -137 b 278 0 165 -65 206 -28 l 278 739 l 93 739 z "},"ĩ":{"ha":369,"x_min":0,"x_max":0,"o":"m 285 836 b 465 967 367 836 435 889 l 376 1022 b 282 968 356 990 324 968 b 85 1026 226 968 150 1026 b -96 896 1 1026 -65 974 l -8 840 b 88 894 14 872 44 894 b 285 836 143 894 219 836 z m 93 0 l 278 0 l 278 739 l 93 739 z "},"j":{"ha":374,"x_min":0,"x_max":0,"o":"m 88 833 l 289 833 l 289 1014 l 88 1014 z m -50 -271 b 281 15 219 -281 281 -218 l 281 739 l 96 739 l 96 35 b -50 -119 96 -92 83 -119 z "},"ȷ":{"ha":371,"x_min":0,"x_max":0,"o":"m -50 -271 b 281 15 219 -281 281 -218 l 281 739 l 96 739 l 96 35 b -50 -119 96 -92 83 -119 z "},"ĵ":{"ha":371,"x_min":0,"x_max":0,"o":"m -44 813 l 96 813 l 188 935 l 190 935 l 281 813 l 422 813 l 250 1043 l 128 1043 z m -50 -271 b 281 15 219 -281 281 -218 l 281 739 l 96 739 l 96 35 b -50 -119 96 -92 83 -119 z "},"k":{"ha":831,"x_min":0,"x_max":0,"o":"m 85 0 l 269 0 l 269 238 l 339 306 l 608 0 l 826 0 l 453 419 l 775 739 l 544 739 l 269 463 l 267 463 b 269 689 267 463 269 497 l 269 1014 l 85 1014 z "},"ķ":{"ha":831,"x_min":0,"x_max":0,"o":"m 85 0 l 269 0 l 269 238 l 339 306 l 608 0 l 826 0 l 453 419 l 775 739 l 544 739 l 269 463 l 267 463 b 269 689 267 463 269 497 l 269 1014 l 85 1014 z m 319 -342 l 403 -342 l 514 -212 l 514 -56 l 333 -56 l 333 -206 l 404 -206 l 404 -212 z "},"ĸ":{"ha":831,"x_min":0,"x_max":0,"o":"m 85 0 l 269 0 l 269 242 l 342 310 l 608 0 l 826 0 l 453 419 l 782 739 l 557 739 l 269 456 l 267 456 b 269 650 267 456 269 492 l 269 739 l 85 739 z "},"l":{"ha":353,"x_min":0,"x_max":0,"o":"m 85 0 l 269 0 l 269 1014 l 85 1014 z "},"ĺ":{"ha":353,"x_min":0,"x_max":0,"o":"m 85 1069 l 269 1069 l 411 1256 l 182 1256 z m 85 0 l 269 0 l 269 1014 l 85 1014 z "},"ľ":{"ha":353,"x_min":0,"x_max":0,"o":"m 85 0 l 269 0 l 269 1014 l 85 1014 z m 324 764 l 393 764 l 478 874 l 478 1014 l 324 1014 l 324 879 l 379 879 l 379 874 z "},"ļ":{"ha":357,"x_min":0,"x_max":0,"o":"m 86 0 l 271 0 l 271 1014 l 86 1014 z m 74 -342 l 157 -342 l 268 -212 l 268 -56 l 89 -56 l 89 -206 l 160 -206 l 160 -212 z "},"ŀ":{"ha":554,"x_min":0,"x_max":0,"o":"m 85 0 l 269 0 l 269 1014 l 85 1014 z m 351 415 l 554 415 l 554 619 l 351 619 z "},"ł":{"ha":475,"x_min":0,"x_max":0,"o":"m 485 575 l 410 704 l 331 658 l 331 1014 l 146 1014 l 146 553 l -10 463 l 65 332 l 146 379 l 146 0 l 331 0 l 331 486 z "},"m":{"ha":1274,"x_min":0,"x_max":0,"o":"m 85 0 l 269 0 l 269 400 b 415 606 269 524 318 606 b 550 456 496 606 550 556 l 550 0 l 735 0 l 735 400 b 883 606 735 524 783 606 b 1015 453 963 606 1015 557 l 1015 0 l 1200 0 l 1200 463 b 922 753 1200 636 1108 753 b 686 638 831 753 739 711 l 683 638 b 475 753 643 711 578 753 b 272 642 392 753 311 710 l 269 642 l 269 739 l 85 739 z "},"n":{"ha":832,"x_min":0,"x_max":0,"o":"m 85 0 l 269 0 l 269 394 b 435 606 269 521 325 606 b 574 453 518 606 574 557 l 574 0 l 758 0 l 758 457 b 488 753 758 628 675 753 b 272 642 399 753 314 707 l 269 642 l 269 739 l 85 739 z "},"ń":{"ha":832,"x_min":0,"x_max":0,"o":"m 361 813 l 511 813 l 660 1026 l 438 1026 z m 85 0 l 269 0 l 269 394 b 435 606 269 521 325 606 b 574 453 518 606 574 557 l 574 0 l 758 0 l 758 457 b 488 753 758 628 675 753 b 272 642 399 753 314 707 l 269 642 l 269 739 l 85 739 z "},"ŉ":{"ha":832,"x_min":0,"x_max":0,"o":"m -110 726 l -24 726 l 88 913 l 88 1118 l -117 1118 l -117 926 l -24 926 l -24 918 z m 85 0 l 269 0 l 269 394 b 435 606 269 521 325 606 b 574 453 518 606 574 557 l 574 0 l 758 0 l 758 457 b 488 753 758 628 675 753 b 272 642 399 753 314 707 l 269 642 l 269 739 l 85 739 z "},"ň":{"ha":832,"x_min":0,"x_max":0,"o":"m 374 813 l 496 813 l 668 1043 l 526 1043 l 436 922 l 433 922 l 342 1043 l 201 1043 z m 85 0 l 269 0 l 269 394 b 435 606 269 521 325 606 b 574 453 518 606 574 557 l 574 0 l 758 0 l 758 457 b 488 753 758 628 675 753 b 272 642 399 753 314 707 l 269 642 l 269 739 l 85 739 z "},"ņ":{"ha":832,"x_min":0,"x_max":0,"o":"m 85 0 l 269 0 l 269 394 b 435 606 269 521 325 606 b 574 453 518 606 574 557 l 574 0 l 758 0 l 758 457 b 488 753 758 628 675 753 b 272 642 399 753 314 707 l 269 642 l 269 739 l 85 739 z m 318 -342 l 401 -342 l 513 -212 l 513 -56 l 332 -56 l 332 -206 l 403 -206 l 403 -212 z "},"ŋ":{"ha":832,"x_min":0,"x_max":0,"o":"m 447 -271 b 758 0 604 -271 758 -256 l 758 457 b 478 753 758 628 665 753 b 272 647 389 753 310 715 l 269 647 l 269 739 l 85 739 l 85 0 l 269 0 l 269 400 b 435 611 269 526 319 611 b 574 457 518 611 574 558 l 574 0 b 447 -119 574 -92 564 -119 z "},"ñ":{"ha":832,"x_min":0,"x_max":0,"o":"m 535 836 b 715 967 617 836 685 889 l 626 1022 b 532 968 606 990 574 968 b 335 1026 476 968 400 1026 b 154 896 251 1026 185 974 l 242 840 b 338 894 264 872 294 894 b 535 836 393 894 469 836 z m 85 0 l 269 0 l 269 394 b 435 606 269 521 325 606 b 574 453 518 606 574 557 l 574 0 l 758 0 l 758 457 b 488 753 758 628 675 753 b 272 642 399 753 314 707 l 269 642 l 269 739 l 85 739 z "},"o":{"ha":851,"x_min":0,"x_max":0,"o":"m 426 -14 b 801 371 651 -14 801 138 b 426 753 801 603 651 753 b 50 371 200 753 50 603 b 426 -14 50 138 200 -14 z m 426 133 b 244 371 317 133 244 218 b 426 606 244 511 310 606 b 607 371 535 606 607 521 b 426 133 607 228 543 133 z "},"ó":{"ha":851,"x_min":0,"x_max":0,"o":"m 353 813 l 503 813 l 651 1026 l 429 1026 z m 426 -14 b 801 371 651 -14 801 138 b 426 753 801 603 651 753 b 50 371 200 753 50 603 b 426 -14 50 138 200 -14 z m 426 133 b 244 371 317 133 244 218 b 426 606 244 511 310 606 b 607 371 535 606 607 521 b 426 133 607 228 543 133 z "},"ŏ":{"ha":851,"x_min":0,"x_max":0,"o":"m 426 806 b 651 1026 558 806 649 888 l 525 1026 b 426 929 522 968 486 929 b 326 1026 369 929 329 965 l 201 1026 b 426 806 203 888 293 806 z m 426 -14 b 801 371 651 -14 801 138 b 426 753 801 603 651 753 b 50 371 200 753 50 603 b 426 -14 50 138 200 -14 z m 426 133 b 244 371 317 133 244 218 b 426 606 244 511 310 606 b 607 371 535 606 607 521 b 426 133 607 228 543 133 z "},"ô":{"ha":851,"x_min":0,"x_max":0,"o":"m 193 813 l 333 813 l 425 935 l 428 935 l 518 813 l 660 813 l 488 1043 l 365 1043 z m 426 -14 b 801 371 651 -14 801 138 b 426 753 801 603 651 753 b 50 371 200 753 50 603 b 426 -14 50 138 200 -14 z m 426 133 b 244 371 317 133 244 218 b 426 606 244 511 310 606 b 607 371 535 606 607 521 b 426 133 607 228 543 133 z "},"ö":{"ha":851,"x_min":0,"x_max":0,"o":"m 164 828 l 356 828 l 356 1006 l 164 1006 z m 497 828 l 689 828 l 689 1006 l 497 1006 z m 426 -14 b 801 371 651 -14 801 138 b 426 753 801 603 651 753 b 50 371 200 753 50 603 b 426 -14 50 138 200 -14 z m 426 133 b 244 371 317 133 244 218 b 426 606 244 511 310 606 b 607 371 535 606 607 521 b 426 133 607 228 543 133 z "},"ò":{"ha":851,"x_min":0,"x_max":0,"o":"m 351 813 l 501 813 l 425 1026 l 203 1026 z m 426 -14 b 801 371 651 -14 801 138 b 426 753 801 603 651 753 b 50 371 200 753 50 603 b 426 -14 50 138 200 -14 z m 426 133 b 244 371 317 133 244 218 b 426 606 244 511 310 606 b 607 371 535 606 607 521 b 426 133 607 228 543 133 z "},"ő":{"ha":851,"x_min":0,"x_max":0,"o":"m 236 813 l 389 813 l 485 1026 l 304 1026 z m 465 813 l 618 813 l 714 1026 l 533 1026 z m 426 -14 b 801 371 651 -14 801 138 b 426 753 801 603 651 753 b 50 371 200 753 50 603 b 426 -14 50 138 200 -14 z m 426 133 b 244 371 317 133 244 218 b 426 606 244 511 310 606 b 607 371 535 606 607 521 b 426 133 607 228 543 133 z "},"ō":{"ha":851,"x_min":0,"x_max":0,"o":"m 179 840 l 671 840 l 671 978 l 179 978 z m 426 -14 b 801 371 651 -14 801 138 b 426 753 801 603 651 753 b 50 371 200 753 50 603 b 426 -14 50 138 200 -14 z m 426 133 b 244 371 317 133 244 218 b 426 606 244 511 310 606 b 607 371 535 606 607 521 b 426 133 607 228 543 133 z "},"ø":{"ha":851,"x_min":0,"x_max":0,"o":"m 706 642 l 758 704 l 703 750 l 651 689 b 426 753 590 731 514 753 b 50 371 200 753 50 603 b 151 93 50 256 86 160 l 96 28 l 150 -21 l 207 47 b 426 -14 267 7 342 -14 b 801 371 651 -14 801 138 b 706 642 801 482 767 575 z m 244 371 b 426 606 244 511 310 606 b 543 560 474 606 513 590 l 269 235 b 244 371 254 271 244 317 z m 426 133 b 314 174 382 133 343 147 l 585 497 b 607 371 599 463 607 421 b 426 133 607 228 543 133 z "},"ǿ":{"ha":851,"x_min":0,"x_max":0,"o":"m 651 1026 l 429 1026 l 353 813 l 503 813 z m 706 642 l 758 704 l 703 750 l 651 689 b 426 753 590 731 514 753 b 50 371 200 753 50 603 b 151 93 50 256 86 160 l 96 28 l 150 -21 l 207 47 b 426 -14 267 7 342 -14 b 801 371 651 -14 801 138 b 706 642 801 482 767 575 z m 244 371 b 426 606 244 511 310 606 b 543 560 474 606 513 590 l 269 235 b 244 371 254 271 244 317 z m 426 133 b 314 174 382 133 343 147 l 585 497 b 607 371 599 463 607 421 b 426 133 607 228 543 133 z "},"õ":{"ha":851,"x_min":0,"x_max":0,"o":"m 526 836 b 707 967 608 836 676 889 l 618 1022 b 524 968 597 990 565 968 b 326 1026 468 968 392 1026 b 146 896 243 1026 176 974 l 233 840 b 329 894 256 872 286 894 b 526 836 385 894 461 836 z m 426 -14 b 801 371 651 -14 801 138 b 426 753 801 603 651 753 b 50 371 200 753 50 603 b 426 -14 50 138 200 -14 z m 426 133 b 244 371 317 133 244 218 b 426 606 244 511 310 606 b 607 371 535 606 607 521 b 426 133 607 228 543 133 z "},"œ":{"ha":1383,"x_min":0,"x_max":0,"o":"m 426 -14 b 711 128 550 -14 657 42 b 992 -12 767 43 874 -12 b 1326 238 1167 -12 1307 92 l 1144 238 b 992 133 1122 172 1074 133 b 810 328 888 133 813 203 l 1333 328 b 979 754 1342 531 1258 754 b 708 617 863 754 769 701 b 426 753 649 700 549 753 b 50 371 200 753 50 603 b 426 -14 50 138 200 -14 z m 813 447 b 979 607 819 543 879 607 b 1147 447 1072 607 1140 554 z m 426 133 b 244 371 317 133 244 218 b 426 606 244 511 310 606 b 607 371 535 606 607 521 b 426 133 607 228 543 133 z "},"p":{"ha":861,"x_min":0,"x_max":0,"o":"m 85 -271 l 269 -271 b 264 88 269 -271 269 -18 l 267 88 b 490 -14 317 18 406 -14 b 811 371 692 -14 811 140 b 493 753 811 611 685 753 b 272 647 401 753 319 713 l 269 647 l 269 739 l 85 739 z m 438 133 b 260 371 326 133 260 225 b 439 606 260 518 329 606 b 617 371 550 606 617 513 b 438 133 617 222 544 133 z "},"þ":{"ha":861,"x_min":0,"x_max":0,"o":"m 85 -271 l 269 -271 b 264 88 269 -271 269 -18 l 267 88 b 490 -14 317 18 406 -14 b 811 371 692 -14 811 140 b 493 753 811 611 685 753 b 272 647 401 753 319 713 l 269 647 l 269 1014 l 85 1014 z m 438 133 b 260 371 326 133 260 225 b 439 606 260 518 329 606 b 617 371 550 606 617 513 b 438 133 617 222 544 133 z "},"q":{"ha":861,"x_min":0,"x_max":0,"o":"m 592 -271 l 776 -271 l 776 739 l 592 739 l 592 647 l 589 647 b 368 753 542 711 467 753 b 50 371 181 753 50 611 b 371 -14 50 140 169 -14 b 594 88 461 -14 551 26 l 597 88 b 592 -271 590 -18 592 -271 z m 424 133 b 244 371 315 133 244 222 b 422 606 244 513 306 606 b 601 371 532 606 601 513 b 424 133 601 225 535 133 z "},"r":{"ha":553,"x_min":0,"x_max":0,"o":"m 64 0 l 249 0 l 249 317 b 469 560 249 475 326 560 b 532 554 515 560 532 554 l 538 554 l 538 739 b 492 744 528 742 514 744 b 253 603 361 744 285 674 l 249 603 l 249 739 l 64 739 z "},"ŕ":{"ha":553,"x_min":0,"x_max":0,"o":"m 192 813 l 342 813 l 490 1026 l 268 1026 z m 64 0 l 249 0 l 249 317 b 469 560 249 475 326 560 b 532 554 515 560 532 554 l 538 554 l 538 739 b 492 744 528 742 514 744 b 253 603 361 744 285 674 l 249 603 l 249 739 l 64 739 z "},"ř":{"ha":553,"x_min":0,"x_max":0,"o":"m 204 813 l 326 813 l 499 1043 l 357 1043 l 267 922 l 264 922 l 172 1043 l 32 1043 z m 64 0 l 249 0 l 249 317 b 469 560 249 475 326 560 b 532 554 515 560 532 554 l 538 554 l 538 739 b 492 744 528 742 514 744 b 253 603 361 744 285 674 l 249 603 l 249 739 l 64 739 z "},"ŗ":{"ha":553,"x_min":0,"x_max":0,"o":"m 64 0 l 249 0 l 249 317 b 469 560 249 475 326 560 b 532 554 515 560 532 554 l 538 554 l 538 739 b 492 744 528 742 514 744 b 253 603 361 744 285 674 l 249 603 l 249 739 l 64 739 z m 53 -342 l 136 -342 l 247 -212 l 247 -56 l 67 -56 l 67 -206 l 138 -206 l 138 -212 z "},"s":{"ha":714,"x_min":0,"x_max":0,"o":"m 363 -14 b 682 217 553 -14 682 78 b 371 460 682 401 503 426 b 244 549 276 485 244 501 b 353 621 244 592 285 621 b 472 515 429 621 472 578 l 651 515 b 353 753 651 658 544 753 b 61 528 176 753 61 658 b 286 311 61 413 125 357 b 488 200 436 271 488 265 b 363 124 488 154 442 124 b 219 250 279 124 219 172 l 40 250 b 363 -14 40 92 168 -14 z "},"ś":{"ha":714,"x_min":0,"x_max":0,"o":"m 279 813 l 429 813 l 578 1026 l 356 1026 z m 363 -14 b 682 217 553 -14 682 78 b 371 460 682 401 503 426 b 244 549 276 485 244 501 b 353 621 244 592 285 621 b 472 515 429 621 472 578 l 651 515 b 353 753 651 658 544 753 b 61 528 176 753 61 658 b 286 311 61 413 125 357 b 488 200 436 271 488 265 b 363 124 488 154 442 124 b 219 250 279 124 219 172 l 40 250 b 363 -14 40 92 168 -14 z "},"š":{"ha":714,"x_min":0,"x_max":0,"o":"m 292 813 l 414 813 l 586 1043 l 444 1043 l 354 922 l 351 922 l 260 1043 l 119 1043 z m 363 -14 b 682 217 553 -14 682 78 b 371 460 682 401 503 426 b 244 549 276 485 244 501 b 353 621 244 592 285 621 b 472 515 429 621 472 578 l 651 515 b 353 753 651 658 544 753 b 61 528 176 753 61 658 b 286 311 61 413 125 357 b 488 200 436 271 488 265 b 363 124 488 154 442 124 b 219 250 279 124 219 172 l 40 250 b 363 -14 40 92 168 -14 z "},"ş":{"ha":714,"x_min":0,"x_max":0,"o":"m 682 217 b 371 460 682 401 503 426 b 244 549 276 485 244 501 b 353 621 244 592 285 621 b 472 515 429 621 472 578 l 651 515 b 353 753 651 658 544 753 b 61 528 176 753 61 658 b 286 311 61 413 125 357 b 488 200 436 271 488 265 b 363 124 488 154 442 124 b 219 250 279 124 219 172 l 40 250 b 317 -11 40 104 149 4 l 258 -78 l 286 -125 b 338 -108 286 -125 301 -108 b 383 -146 365 -108 383 -119 b 324 -185 383 -169 365 -185 b 225 -153 274 -185 243 -165 l 203 -206 b 344 -257 224 -229 282 -257 b 504 -149 440 -257 504 -214 b 353 -54 504 -79 443 -40 l 350 -51 l 388 -14 b 682 217 564 -6 682 85 z "},"ŝ":{"ha":714,"x_min":0,"x_max":0,"o":"m 119 813 l 260 813 l 351 935 l 354 935 l 444 813 l 586 813 l 414 1043 l 292 1043 z m 363 -14 b 682 217 553 -14 682 78 b 371 460 682 401 503 426 b 244 549 276 485 244 501 b 353 621 244 592 285 621 b 472 515 429 621 472 578 l 651 515 b 353 753 651 658 544 753 b 61 528 176 753 61 658 b 286 311 61 413 125 357 b 488 200 436 271 488 265 b 363 124 488 154 442 124 b 219 250 279 124 219 172 l 40 250 b 363 -14 40 92 168 -14 z "},"ș":{"ha":714,"x_min":0,"x_max":0,"o":"m 363 -14 b 682 217 553 -14 682 78 b 371 460 682 401 503 426 b 244 549 276 485 244 501 b 353 621 244 592 285 621 b 472 515 429 621 472 578 l 651 515 b 353 753 651 658 544 753 b 61 528 176 753 61 658 b 286 311 61 413 125 357 b 488 200 436 271 488 265 b 363 124 488 154 442 124 b 219 250 279 124 219 172 l 40 250 b 363 -14 40 92 168 -14 z m 258 -342 l 342 -342 l 453 -212 l 453 -56 l 272 -56 l 272 -206 l 343 -206 l 343 -212 z "},"ß":{"ha":990,"x_min":0,"x_max":0,"o":"m 649 -14 b 957 206 833 -14 957 65 b 721 422 957 318 883 372 b 542 518 593 463 542 474 b 756 779 542 592 756 588 b 438 1028 756 928 635 1028 b 85 661 225 1028 85 896 l 85 0 l 269 0 l 269 660 b 439 868 269 789 325 868 b 568 783 515 868 568 838 b 358 510 568 660 354 688 b 576 306 361 414 410 356 b 763 200 726 261 763 251 b 647 133 763 160 726 133 b 496 256 556 133 496 172 l 318 256 b 649 -14 318 92 436 -14 z "},"ſ":{"ha":444,"x_min":0,"x_max":0,"o":"m 139 0 l 324 0 l 324 781 b 481 876 324 871 372 885 l 481 1015 b 378 1028 453 1024 415 1028 b 139 818 233 1028 139 965 l 139 739 l 25 739 l 25 599 l 139 599 z "},"ə":{"ha":819,"x_min":0,"x_max":0,"o":"m 404 -14 b 769 369 614 -14 769 139 b 399 753 769 588 618 753 b 58 503 225 753 78 649 l 240 503 b 394 606 264 568 311 606 b 575 411 499 606 575 539 l 51 411 b 50 351 50 382 50 369 b 404 -14 50 132 201 -14 z m 404 133 b 238 292 313 133 244 189 l 574 292 b 404 133 565 197 503 133 z "},"t":{"ha":496,"x_min":0,"x_max":0,"o":"m 353 -7 b 456 0 396 -7 435 -4 l 456 151 b 418 149 449 150 433 149 b 318 240 350 149 318 168 l 318 599 l 456 599 l 456 739 l 318 739 l 318 938 l 133 938 l 133 739 l 15 739 l 15 599 l 133 599 l 133 174 b 353 -7 133 72 199 -7 z "},"ŧ":{"ha":515,"x_min":0,"x_max":0,"o":"m 465 344 l 465 486 l 318 486 l 318 599 l 456 599 l 456 739 l 318 739 l 318 938 l 133 938 l 133 739 l 15 739 l 15 599 l 133 599 l 133 486 l 25 486 l 25 344 l 133 344 l 133 174 b 353 -7 133 72 199 -7 b 456 0 396 -7 435 -4 l 456 151 b 418 149 449 150 433 149 b 318 240 350 149 318 168 l 318 344 z "},"ť":{"ha":506,"x_min":0,"x_max":0,"o":"m 383 764 l 453 764 l 538 874 l 538 1014 l 383 1014 l 383 879 l 439 879 l 439 874 z m 353 -7 b 456 0 396 -7 435 -4 l 456 151 b 418 149 449 150 433 149 b 318 240 350 149 318 168 l 318 599 l 456 599 l 456 739 l 318 739 l 318 938 l 133 938 l 133 739 l 15 739 l 15 599 l 133 599 l 133 174 b 353 -7 133 72 199 -7 z "},"ţ":{"ha":496,"x_min":0,"x_max":0,"o":"m 308 -54 l 306 -51 l 350 -7 l 353 -7 b 456 0 396 -7 435 -4 l 456 151 b 418 149 449 150 433 149 b 318 240 350 149 318 168 l 318 599 l 456 599 l 456 739 l 318 739 l 318 938 l 133 938 l 133 739 l 15 739 l 15 599 l 133 599 l 133 174 b 282 0 133 89 178 21 l 214 -78 l 242 -125 b 293 -108 242 -125 257 -108 b 339 -146 321 -108 339 -119 b 279 -185 339 -169 321 -185 b 181 -153 229 -185 199 -165 l 158 -206 b 300 -257 179 -229 238 -257 b 460 -149 396 -257 460 -214 b 308 -54 460 -79 399 -40 z "},"ț":{"ha":515,"x_min":0,"x_max":0,"o":"m 364 -7 b 465 0 406 -7 444 -4 l 465 151 b 428 149 458 150 443 149 b 328 240 360 149 328 168 l 328 599 l 465 599 l 465 739 l 328 739 l 328 938 l 143 938 l 143 739 l 25 739 l 25 599 l 143 599 l 143 174 b 364 -7 143 72 208 -7 z m 156 -342 l 239 -342 l 350 -212 l 350 -56 l 171 -56 l 171 -206 l 242 -206 l 242 -212 z "},"u":{"ha":819,"x_min":0,"x_max":0,"o":"m 343 -14 b 546 92 431 -14 507 21 l 550 92 l 550 0 l 735 0 l 735 739 l 550 739 l 550 344 b 386 133 550 218 496 133 b 260 286 308 133 260 182 l 260 739 l 75 739 l 75 282 b 343 -14 75 104 160 -14 z "},"ú":{"ha":819,"x_min":0,"x_max":0,"o":"m 332 813 l 482 813 l 631 1026 l 408 1026 z m 343 -14 b 546 92 431 -14 507 21 l 550 92 l 550 0 l 735 0 l 735 739 l 550 739 l 550 344 b 386 133 550 218 496 133 b 260 286 308 133 260 182 l 260 739 l 75 739 l 75 282 b 343 -14 75 104 160 -14 z "},"ŭ":{"ha":819,"x_min":0,"x_max":0,"o":"m 406 806 b 631 1026 538 806 628 888 l 504 1026 b 406 929 501 968 465 929 b 306 1026 349 929 308 965 l 181 1026 b 406 806 182 888 272 806 z m 343 -14 b 546 92 431 -14 507 21 l 550 92 l 550 0 l 735 0 l 735 739 l 550 739 l 550 344 b 386 133 550 218 496 133 b 260 286 308 133 260 182 l 260 739 l 75 739 l 75 282 b 343 -14 75 104 160 -14 z "},"û":{"ha":819,"x_min":0,"x_max":0,"o":"m 172 813 l 313 813 l 404 935 l 407 935 l 497 813 l 639 813 l 467 1043 l 344 1043 z m 343 -14 b 546 92 431 -14 507 21 l 550 92 l 550 0 l 735 0 l 735 739 l 550 739 l 550 344 b 386 133 550 218 496 133 b 260 286 308 133 260 182 l 260 739 l 75 739 l 75 282 b 343 -14 75 104 160 -14 z "},"ü":{"ha":819,"x_min":0,"x_max":0,"o":"m 143 828 l 335 828 l 335 1006 l 143 1006 z m 476 828 l 668 828 l 668 1006 l 476 1006 z m 343 -14 b 546 92 431 -14 507 21 l 550 92 l 550 0 l 735 0 l 735 739 l 550 739 l 550 344 b 386 133 550 218 496 133 b 260 286 308 133 260 182 l 260 739 l 75 739 l 75 282 b 343 -14 75 104 160 -14 z "},"ù":{"ha":819,"x_min":0,"x_max":0,"o":"m 331 813 l 481 813 l 404 1026 l 182 1026 z m 343 -14 b 546 92 431 -14 507 21 l 550 92 l 550 0 l 735 0 l 735 739 l 550 739 l 550 344 b 386 133 550 218 496 133 b 260 286 308 133 260 182 l 260 739 l 75 739 l 75 282 b 343 -14 75 104 160 -14 z "},"ű":{"ha":819,"x_min":0,"x_max":0,"o":"m 215 813 l 368 813 l 464 1026 l 283 1026 z m 444 813 l 597 813 l 693 1026 l 513 1026 z m 343 -14 b 546 92 431 -14 507 21 l 550 92 l 550 0 l 735 0 l 735 739 l 550 739 l 550 344 b 386 133 550 218 496 133 b 260 286 308 133 260 182 l 260 739 l 75 739 l 75 282 b 343 -14 75 104 160 -14 z "},"ū":{"ha":819,"x_min":0,"x_max":0,"o":"m 158 840 l 650 840 l 650 978 l 158 978 z m 343 -14 b 546 92 431 -14 507 21 l 550 92 l 550 0 l 735 0 l 735 739 l 550 739 l 550 344 b 386 133 550 218 496 133 b 260 286 308 133 260 182 l 260 739 l 75 739 l 75 282 b 343 -14 75 104 160 -14 z "},"ų":{"ha":819,"x_min":0,"x_max":0,"o":"m 735 0 l 735 739 l 550 739 l 550 344 b 386 133 550 218 496 133 b 260 286 308 133 260 182 l 260 739 l 75 739 l 75 282 b 343 -14 75 104 160 -14 b 546 92 431 -14 507 21 l 550 92 l 550 0 l 589 0 b 461 -151 493 -35 461 -94 b 618 -276 461 -226 518 -276 b 735 -249 675 -276 704 -268 l 735 -142 l 725 -142 b 672 -156 707 -151 692 -156 b 622 -106 639 -156 622 -137 b 735 0 622 -65 663 -28 z "},"ů":{"ha":819,"x_min":0,"x_max":0,"o":"m 406 790 b 558 935 493 790 558 850 b 406 1082 558 1022 493 1082 b 254 935 319 1082 254 1022 b 406 790 254 850 319 790 z m 406 863 b 333 935 367 863 333 892 b 406 1008 333 979 367 1008 b 478 935 447 1008 478 979 b 406 863 478 892 447 863 z m 343 -14 b 546 92 431 -14 507 21 l 550 92 l 550 0 l 735 0 l 735 739 l 550 739 l 550 344 b 386 133 550 218 496 133 b 260 286 308 133 260 182 l 260 739 l 75 739 l 75 282 b 343 -14 75 104 160 -14 z "},"ũ":{"ha":819,"x_min":0,"x_max":0,"o":"m 506 836 b 686 967 588 836 656 889 l 597 1022 b 503 968 576 990 544 968 b 306 1026 447 968 371 1026 b 125 896 222 1026 156 974 l 213 840 b 308 894 235 872 265 894 b 506 836 364 894 440 836 z m 343 -14 b 546 92 431 -14 507 21 l 550 92 l 550 0 l 735 0 l 735 739 l 550 739 l 550 344 b 386 133 550 218 496 133 b 260 286 308 133 260 182 l 260 739 l 75 739 l 75 282 b 343 -14 75 104 160 -14 z "},"v":{"ha":807,"x_min":0,"x_max":0,"o":"m 300 0 l 521 0 l 800 739 l 604 739 l 472 353 b 413 151 415 186 415 169 l 408 151 b 346 353 406 169 406 185 l 207 739 l 7 739 z "},"w":{"ha":1235,"x_min":0,"x_max":0,"o":"m 238 0 l 447 0 l 569 396 b 614 568 603 506 611 551 l 617 568 b 661 396 619 551 628 507 l 778 0 l 992 0 l 1217 739 l 1022 739 l 928 351 b 881 156 897 235 883 174 l 876 156 b 825 351 867 196 849 271 l 713 739 l 518 739 l 404 351 b 354 156 381 272 364 194 l 351 156 b 311 351 349 172 340 233 l 217 739 l 18 739 z "},"ẃ":{"ha":1235,"x_min":0,"x_max":0,"o":"m 542 813 l 692 813 l 840 1026 l 618 1026 z m 238 0 l 447 0 l 569 396 b 614 568 603 506 611 551 l 617 568 b 661 396 619 551 628 507 l 778 0 l 992 0 l 1217 739 l 1022 739 l 928 351 b 881 156 897 235 883 174 l 876 156 b 825 351 867 196 849 271 l 713 739 l 518 739 l 404 351 b 354 156 381 272 364 194 l 351 156 b 311 351 349 172 340 233 l 217 739 l 18 739 z "},"ŵ":{"ha":1235,"x_min":0,"x_max":0,"o":"m 382 813 l 522 813 l 614 935 l 617 935 l 707 813 l 849 813 l 676 1043 l 554 1043 z m 238 0 l 447 0 l 569 396 b 614 568 603 506 611 551 l 617 568 b 661 396 619 551 628 507 l 778 0 l 992 0 l 1217 739 l 1022 739 l 928 351 b 881 156 897 235 883 174 l 876 156 b 825 351 867 196 849 271 l 713 739 l 518 739 l 404 351 b 354 156 381 272 364 194 l 351 156 b 311 351 349 172 340 233 l 217 739 l 18 739 z "},"ẅ":{"ha":1235,"x_min":0,"x_max":0,"o":"m 353 828 l 544 828 l 544 1006 l 353 1006 z m 686 828 l 878 828 l 878 1006 l 686 1006 z m 238 0 l 447 0 l 569 396 b 614 568 603 506 611 551 l 617 568 b 661 396 619 551 628 507 l 778 0 l 992 0 l 1217 739 l 1022 739 l 928 351 b 881 156 897 235 883 174 l 876 156 b 825 351 867 196 849 271 l 713 739 l 518 739 l 404 351 b 354 156 381 272 364 194 l 351 156 b 311 351 349 172 340 233 l 217 739 l 18 739 z "},"ẁ":{"ha":1240,"x_min":0,"x_max":0,"o":"m 539 813 l 689 813 l 613 1026 l 390 1026 z m 238 0 l 447 0 l 569 396 b 614 568 603 506 610 551 l 615 568 b 661 396 618 551 628 507 l 778 0 l 992 0 l 1222 739 l 1028 739 l 931 351 b 881 144 896 213 885 164 l 878 144 b 822 351 868 186 850 250 l 713 739 l 518 739 l 404 351 b 354 156 383 282 364 194 l 351 156 b 311 351 349 172 339 243 l 217 739 l 18 739 z "},"x":{"ha":831,"x_min":0,"x_max":0,"o":"m 28 0 l 233 0 l 338 147 b 414 268 389 218 410 257 l 417 268 b 496 147 421 257 443 218 l 601 0 l 814 0 l 533 371 l 811 739 l 607 739 l 497 592 b 421 467 432 501 425 478 l 418 467 b 339 592 414 478 407 500 l 228 739 l 15 739 l 303 371 z "},"y":{"ha":819,"x_min":0,"x_max":0,"o":"m 225 -278 b 488 -87 346 -278 435 -222 l 804 739 l 617 739 l 471 332 b 419 174 428 210 422 189 l 417 174 b 365 332 414 189 410 208 l 218 739 l 15 739 l 318 0 l 300 -47 b 185 -117 282 -90 261 -117 b 79 -107 160 -117 128 -115 l 79 -268 b 225 -278 117 -274 157 -278 z "},"ý":{"ha":819,"x_min":0,"x_max":0,"o":"m 343 813 l 493 813 l 642 1026 l 419 1026 z m 225 -278 b 488 -87 346 -278 435 -222 l 804 739 l 617 739 l 471 332 b 419 174 428 210 422 189 l 417 174 b 365 332 414 189 410 208 l 218 739 l 15 739 l 318 0 l 300 -47 b 185 -117 282 -90 261 -117 b 79 -107 160 -117 128 -115 l 79 -268 b 225 -278 117 -274 157 -278 z "},"ŷ":{"ha":819,"x_min":0,"x_max":0,"o":"m 183 813 l 324 813 l 415 935 l 418 935 l 508 813 l 650 813 l 478 1043 l 356 1043 z m 225 -278 b 488 -87 346 -278 435 -222 l 804 739 l 617 739 l 471 332 b 419 174 428 210 422 189 l 417 174 b 365 332 414 189 410 208 l 218 739 l 15 739 l 318 0 l 300 -47 b 185 -117 282 -90 261 -117 b 79 -107 160 -117 128 -115 l 79 -268 b 225 -278 117 -274 157 -278 z "},"ÿ":{"ha":804,"x_min":0,"x_max":0,"o":"m 146 828 l 338 828 l 338 1006 l 146 1006 z m 481 828 l 672 828 l 672 1006 l 481 1006 z m 217 -278 b 479 -87 339 -278 428 -222 l 797 739 l 608 739 l 464 332 b 413 174 419 210 415 189 l 408 174 b 357 332 406 189 401 208 l 211 739 l 7 739 l 310 0 l 292 -47 b 176 -117 274 -90 254 -117 b 71 -107 153 -117 119 -115 l 71 -268 b 217 -278 108 -274 149 -278 z "},"ỳ":{"ha":819,"x_min":0,"x_max":0,"o":"m 342 813 l 492 813 l 415 1026 l 193 1026 z m 225 -278 b 488 -87 346 -278 435 -222 l 804 739 l 617 739 l 471 332 b 419 174 428 210 422 189 l 417 174 b 365 332 414 189 410 208 l 218 739 l 15 739 l 318 0 l 300 -47 b 185 -117 282 -90 261 -117 b 79 -107 160 -117 128 -115 l 79 -268 b 225 -278 117 -274 157 -278 z "},"z":{"ha":732,"x_min":0,"x_max":0,"o":"m 43 0 l 710 0 l 710 151 l 379 151 b 247 147 286 151 247 149 l 247 150 b 333 232 247 150 269 163 l 689 614 l 689 739 l 64 739 l 64 588 l 343 588 b 464 592 431 588 464 592 l 464 589 b 375 504 464 589 446 579 l 43 153 z "},"ź":{"ha":732,"x_min":0,"x_max":0,"o":"m 300 813 l 450 813 l 599 1026 l 376 1026 z m 43 0 l 710 0 l 710 151 l 379 151 b 247 147 286 151 247 149 l 247 150 b 333 232 247 150 269 163 l 689 614 l 689 739 l 64 739 l 64 588 l 343 588 b 464 592 431 588 464 592 l 464 589 b 375 504 464 589 446 579 l 43 153 z "},"ž":{"ha":732,"x_min":0,"x_max":0,"o":"m 313 813 l 435 813 l 607 1043 l 465 1043 l 375 922 l 372 922 l 281 1043 l 140 1043 z m 43 0 l 710 0 l 710 151 l 379 151 b 247 147 286 151 247 149 l 247 150 b 333 232 247 150 269 163 l 689 614 l 689 739 l 64 739 l 64 588 l 343 588 b 464 592 431 588 464 592 l 464 589 b 375 504 464 589 446 579 l 43 153 z "},"ż":{"ha":732,"x_min":0,"x_max":0,"o":"m 274 833 l 475 833 l 475 1014 l 274 1014 z m 43 0 l 710 0 l 710 151 l 379 151 b 247 147 286 151 247 149 l 247 150 b 333 232 247 150 269 163 l 689 614 l 689 739 l 64 739 l 64 588 l 343 588 b 464 592 431 588 464 592 l 464 589 b 375 504 464 589 446 579 l 43 153 z "},"ƶ":{"ha":732,"x_min":0,"x_max":0,"o":"m 379 151 b 247 147 286 151 247 149 l 247 150 b 333 232 247 150 269 163 l 417 321 l 664 321 l 664 438 l 525 438 l 689 614 l 689 739 l 64 739 l 64 588 l 343 588 b 464 592 431 588 464 592 l 464 589 b 375 504 464 589 446 579 l 313 438 l 79 438 l 79 321 l 201 321 l 43 153 l 43 0 l 710 0 l 710 151 z "},"ª":{"ha":561,"x_min":0,"x_max":0,"o":"m 235 451 b 389 522 301 451 364 479 l 392 522 b 406 461 392 501 394 475 l 535 461 b 522 568 526 478 522 524 l 525 796 b 293 1000 525 918 444 1000 b 60 817 153 1000 60 932 l 192 817 b 293 899 194 864 225 899 b 388 790 350 899 388 865 l 290 786 b 39 610 132 779 39 732 b 235 451 39 515 118 451 z m 264 554 b 181 619 214 554 181 579 b 297 694 181 660 206 686 l 388 701 l 388 678 b 264 554 388 608 339 554 z "},"º":{"ha":588,"x_min":0,"x_max":0,"o":"m 294 451 b 564 726 456 451 564 560 b 294 1000 564 893 456 1000 b 24 726 133 1000 24 893 b 294 451 24 560 133 451 z m 294 560 b 167 726 218 560 167 617 b 294 892 167 826 211 892 b 421 726 369 892 421 835 b 294 560 421 625 376 560 z "},"Δ":{"ha":997,"x_min":0,"x_max":0,"o":"m 601 1014 l 390 1014 l 10 0 l 988 0 z m 268 165 l 432 644 b 493 863 492 825 493 863 l 496 863 b 558 644 496 863 499 825 l 722 165 z "},"Ω":{"ha":1094,"x_min":0,"x_max":0,"o":"m 54 0 l 479 0 l 479 265 b 258 569 347 296 258 414 b 547 861 258 746 375 861 b 835 569 719 861 835 746 b 614 265 835 414 747 296 l 614 0 l 1040 0 l 1040 165 l 807 165 l 807 186 b 1036 569 943 244 1036 393 b 547 1026 1036 842 839 1026 b 57 569 256 1026 57 842 b 288 186 57 393 151 244 l 288 165 l 54 165 z "},"μ":{"ha":847,"x_min":0,"x_max":0,"o":"m 85 -271 l 269 -271 l 269 7 l 272 7 b 357 -14 279 0 314 -14 b 561 88 444 -14 519 17 l 565 88 b 582 0 565 64 569 22 l 772 0 b 749 165 758 32 749 101 l 749 739 l 564 739 l 564 344 b 397 133 564 217 507 133 b 269 286 321 133 269 182 l 269 739 l 85 739 z "},"π":{"ha":854,"x_min":0,"x_max":0,"o":"m 710 -8 b 818 0 756 -8 794 -6 l 818 151 b 768 144 799 146 785 144 b 675 238 711 144 675 168 l 675 599 l 818 599 l 818 739 l 13 739 l 13 599 l 139 599 l 139 0 l 324 0 l 324 599 l 490 599 l 490 174 b 710 -8 490 72 556 -8 z "},"⁄":{"ha":249,"x_min":0,"x_max":0,"o":"m -161 0 l 513 963 l 438 1014 l -236 51 z "},"½":{"ha":1153,"x_min":0,"x_max":0,"o":"m 232 0 l 906 963 l 831 1014 l 157 51 z m 169 403 l 288 403 l 288 986 l 179 986 b 26 861 174 911 138 861 l 26 790 l 169 790 z m 678 0 l 1119 0 l 1119 100 l 808 100 b 960 218 813 133 864 164 b 1114 413 1057 272 1114 322 b 906 590 1114 519 1032 590 b 692 369 769 590 689 513 l 810 369 b 906 494 804 444 836 494 b 993 417 958 494 993 464 b 876 286 993 351 947 326 b 678 0 754 218 678 178 z "},"⅓":{"ha":1161,"x_min":0,"x_max":0,"o":"m 232 0 l 906 963 l 831 1014 l 157 51 z m 169 403 l 288 403 l 288 986 l 179 986 b 26 861 174 911 138 861 l 26 790 l 169 790 z m 897 -7 b 1121 168 1032 -7 1121 58 b 1018 299 1121 232 1076 286 l 1018 301 b 1101 428 1068 318 1101 364 b 892 592 1101 525 1024 592 b 674 400 761 592 674 521 l 799 400 b 893 496 799 458 828 496 b 982 424 946 496 982 471 b 883 347 982 376 950 343 l 833 349 l 833 250 l 883 253 b 996 168 951 256 996 231 b 897 89 994 119 958 89 b 789 199 833 89 789 124 l 665 199 b 897 -7 665 75 751 -7 z "},"⅔":{"ha":1278,"x_min":0,"x_max":0,"o":"m 347 0 l 1021 963 l 946 1014 l 272 51 z m 32 403 l 474 403 l 474 503 l 163 503 b 314 621 167 536 218 567 b 468 815 411 675 468 725 b 260 993 468 922 386 993 b 46 772 124 993 43 915 l 164 772 b 260 897 158 847 190 897 b 347 819 313 897 347 867 b 231 689 347 754 301 729 b 32 403 108 621 32 581 z m 1013 -7 b 1238 168 1149 -7 1238 58 b 1135 299 1238 232 1193 286 l 1135 301 b 1218 428 1185 318 1218 364 b 1007 592 1218 525 1140 592 b 790 400 878 592 790 521 l 914 400 b 1010 496 914 458 944 496 b 1097 424 1063 496 1097 471 b 1000 347 1097 376 1067 343 l 950 349 l 950 250 l 1000 253 b 1113 168 1068 256 1113 231 b 1014 89 1111 119 1075 89 b 906 199 949 89 906 124 l 782 199 b 1013 -7 782 75 868 -7 z "},"¼":{"ha":1161,"x_min":0,"x_max":0,"o":"m 235 0 l 908 963 l 833 1014 l 160 51 z m 172 403 l 290 403 l 290 986 l 182 986 b 29 861 178 911 140 861 l 29 790 l 172 790 z m 935 0 l 1051 0 l 1051 128 l 1139 128 l 1139 228 l 1051 228 l 1051 583 l 922 583 l 643 228 l 643 128 l 935 128 z m 753 228 l 753 231 b 797 278 753 231 774 250 l 885 389 b 932 454 914 425 932 454 l 935 454 l 935 228 z "},"¾":{"ha":1292,"x_min":0,"x_max":0,"o":"m 361 0 l 1035 963 l 960 1014 l 286 51 z m 257 394 b 482 569 392 394 482 460 b 378 700 482 635 438 688 l 378 703 b 461 829 428 721 461 767 b 251 993 461 926 383 993 b 35 801 121 993 35 922 l 158 801 b 253 897 158 860 189 897 b 342 825 307 897 342 872 b 244 749 342 778 310 746 l 193 750 l 193 651 l 244 654 b 356 569 311 657 356 632 b 258 490 354 521 319 490 b 149 600 193 490 149 525 l 26 600 b 257 394 26 476 113 394 z m 1061 0 l 1178 0 l 1178 128 l 1265 128 l 1265 228 l 1178 228 l 1178 583 l 1050 583 l 769 228 l 769 128 l 1061 128 z m 879 228 l 879 231 b 924 278 879 231 899 250 l 1011 389 b 1058 454 1040 425 1058 454 l 1061 454 l 1061 228 z "},"⅛":{"ha":1185,"x_min":0,"x_max":0,"o":"m 232 0 l 906 963 l 831 1014 l 157 51 z m 169 403 l 288 403 l 288 986 l 179 986 b 26 861 174 911 138 861 l 26 790 l 169 790 z m 911 -7 b 1144 168 1051 -7 1144 64 b 1043 310 1144 236 1103 293 l 1043 313 b 1118 433 1089 328 1118 378 b 913 590 1118 526 1036 590 b 706 433 789 590 706 526 b 782 313 706 378 736 328 l 782 310 b 679 168 721 292 679 235 b 911 -7 679 64 772 -7 z m 913 347 b 822 422 858 347 822 376 b 911 494 822 467 857 494 b 1001 422 965 494 1001 467 b 913 347 1001 376 967 347 z m 911 89 b 804 179 847 89 804 124 b 911 271 804 233 846 271 b 1021 179 976 271 1021 235 b 911 89 1021 125 978 89 z "},"⅜":{"ha":1314,"x_min":0,"x_max":0,"o":"m 361 0 l 1035 963 l 960 1014 l 286 51 z m 257 394 b 482 569 392 394 482 460 b 378 700 482 635 438 688 l 378 703 b 461 829 428 721 461 767 b 251 993 461 926 383 993 b 35 801 121 993 35 922 l 158 801 b 253 897 158 860 189 897 b 342 825 307 897 342 872 b 244 749 342 778 310 746 l 193 750 l 193 651 l 244 654 b 356 569 311 657 356 632 b 258 490 354 521 319 490 b 149 600 193 490 149 525 l 26 600 b 257 394 26 476 113 394 z m 1040 -7 b 1274 168 1181 -7 1274 64 b 1172 310 1274 236 1232 293 l 1172 313 b 1249 433 1218 328 1249 378 b 1042 590 1249 526 1165 590 b 835 433 918 590 835 526 b 911 313 835 378 865 328 l 911 310 b 810 168 851 292 810 235 b 1040 -7 810 64 901 -7 z m 1042 347 b 953 422 988 347 953 376 b 1040 494 953 467 988 494 b 1131 422 1096 494 1131 467 b 1042 347 1131 376 1096 347 z m 1040 89 b 933 179 976 89 933 124 b 1040 271 933 233 975 271 b 1150 179 1106 271 1150 235 b 1040 89 1150 125 1107 89 z "},"⅝":{"ha":1321,"x_min":0,"x_max":0,"o":"m 368 0 l 1042 963 l 967 1014 l 293 51 z m 269 396 b 494 597 406 396 494 476 b 293 800 494 719 414 800 b 165 746 236 800 192 781 l 163 746 l 186 886 l 461 886 l 461 986 l 93 986 l 42 635 l 163 635 b 265 706 169 678 211 706 b 372 597 329 706 372 663 b 264 492 372 532 329 492 b 163 565 204 492 165 521 l 40 565 b 269 396 43 464 136 396 z m 1049 -7 b 1282 168 1188 -7 1282 64 b 1181 310 1282 236 1240 293 l 1181 313 b 1256 433 1225 328 1256 378 b 1049 590 1256 526 1174 590 b 843 433 925 590 843 526 b 919 313 843 378 874 328 l 919 310 b 817 168 858 292 817 235 b 1049 -7 817 64 910 -7 z m 1049 347 b 960 422 996 347 960 376 b 1049 494 960 467 994 494 b 1139 422 1103 494 1139 467 b 1049 347 1139 376 1104 347 z m 1049 89 b 940 179 983 89 940 124 b 1049 271 940 233 982 271 b 1158 179 1114 271 1158 235 b 1049 89 1158 125 1115 89 z "},"⅞":{"ha":1219,"x_min":0,"x_max":0,"o":"m 267 0 l 940 963 l 865 1014 l 192 51 z m 96 403 l 224 403 b 450 896 233 607 307 789 l 450 986 l 13 986 l 13 886 l 308 886 l 308 883 b 96 403 194 785 118 619 z m 946 -7 b 1179 168 1086 -7 1179 64 b 1078 310 1179 236 1138 293 l 1078 313 b 1153 433 1124 328 1153 378 b 947 590 1153 526 1071 590 b 740 433 824 590 740 526 b 817 313 740 378 771 328 l 817 310 b 715 168 757 292 715 235 b 946 -7 715 64 807 -7 z m 947 347 b 858 422 893 347 858 376 b 946 494 858 467 892 494 b 1036 422 1000 494 1036 467 b 947 347 1036 376 1001 347 z m 946 89 b 839 179 882 89 839 124 b 946 271 839 233 881 271 b 1056 179 1011 271 1056 235 b 946 89 1056 125 1013 89 z "},"➀":{"ha":1135,"x_min":0,"x_max":0,"o":"m 568 -14 b 1089 507 858 -14 1089 221 b 568 1028 1089 794 856 1028 b 47 507 279 1028 47 794 b 568 -14 47 219 279 -14 z m 568 69 b 131 507 326 69 131 267 b 568 944 131 747 326 944 b 1006 507 808 944 1006 747 b 568 69 1006 267 811 69 z m 533 215 l 651 215 l 651 799 l 543 799 b 390 674 539 724 501 674 l 390 603 l 533 603 z "},"➁":{"ha":1135,"x_min":0,"x_max":0,"o":"m 568 -14 b 1089 507 858 -14 1089 221 b 568 1028 1089 794 856 1028 b 47 507 279 1028 47 794 b 568 -14 47 219 279 -14 z m 568 69 b 131 507 326 69 131 267 b 568 944 131 747 326 944 b 1006 507 808 944 1006 747 b 568 69 1006 267 811 69 z m 342 215 l 782 215 l 782 315 l 471 315 b 622 433 475 349 526 379 b 778 628 721 488 778 538 b 568 806 778 735 694 806 b 354 585 432 806 353 728 l 472 585 b 568 710 468 660 500 710 b 657 632 622 710 657 679 b 540 501 657 567 611 542 b 342 215 418 433 342 393 z "},"➂":{"ha":1135,"x_min":0,"x_max":0,"o":"m 568 -14 b 1089 507 858 -14 1089 221 b 568 1028 1089 794 856 1028 b 47 507 279 1028 47 794 b 568 -14 47 219 279 -14 z m 568 69 b 131 507 326 69 131 267 b 568 944 131 747 326 944 b 1006 507 808 944 1006 747 b 568 69 1006 267 811 69 z m 571 208 b 796 383 707 208 796 274 b 693 514 796 447 751 501 l 693 517 b 776 642 743 533 776 579 b 567 806 776 739 699 806 b 349 614 436 806 349 735 l 474 614 b 568 710 474 672 503 710 b 656 638 621 710 656 685 b 558 563 656 590 625 558 l 508 564 l 508 465 l 558 468 b 671 383 626 471 671 446 b 572 304 669 335 633 304 b 464 414 508 304 464 339 l 340 414 b 571 208 340 290 426 208 z "},"➃":{"ha":1135,"x_min":0,"x_max":0,"o":"m 568 -14 b 1089 507 858 -14 1089 221 b 568 1028 1089 794 856 1028 b 47 507 279 1028 47 794 b 568 -14 47 219 279 -14 z m 568 69 b 131 507 326 69 131 267 b 568 944 131 747 326 944 b 1006 507 808 944 1006 747 b 568 69 1006 267 811 69 z m 585 215 l 701 215 l 701 343 l 789 343 l 789 443 l 701 443 l 701 799 l 572 799 l 293 443 l 293 343 l 585 343 z m 403 443 l 403 446 b 446 493 403 446 422 465 l 533 604 b 582 669 563 640 582 669 l 585 669 l 585 443 z "},"➄":{"ha":1135,"x_min":0,"x_max":0,"o":"m 568 -14 b 1089 507 858 -14 1089 221 b 568 1028 1089 794 856 1028 b 47 507 279 1028 47 794 b 568 -14 47 219 279 -14 z m 568 69 b 131 507 326 69 131 267 b 568 944 131 747 326 944 b 1006 507 808 944 1006 747 b 568 69 1006 267 811 69 z m 571 208 b 796 410 706 208 796 289 b 593 613 796 532 714 613 b 467 558 536 613 492 593 l 464 558 l 488 699 l 761 699 l 761 799 l 393 799 l 343 447 l 463 447 b 567 518 469 490 513 518 b 672 410 631 518 672 475 b 564 304 672 344 629 304 b 464 378 506 304 465 333 l 340 378 b 571 208 344 276 436 208 z "},"➅":{"ha":1135,"x_min":0,"x_max":0,"o":"m 568 -14 b 1089 507 858 -14 1089 221 b 568 1028 1089 794 856 1028 b 47 507 279 1028 47 794 b 568 -14 47 219 279 -14 z m 568 69 b 131 507 326 69 131 267 b 568 944 131 747 326 944 b 1006 507 808 944 1006 747 b 568 69 1006 267 811 69 z m 575 208 b 792 407 704 208 792 289 b 583 607 792 528 707 607 b 449 522 519 607 467 572 l 446 522 b 581 710 447 631 481 710 b 675 636 632 710 671 682 l 797 636 b 581 806 790 729 704 806 b 338 493 426 806 338 697 b 575 208 338 322 426 208 z m 571 304 b 472 407 511 304 472 344 b 571 511 472 469 511 511 b 668 407 629 511 668 471 b 571 304 668 346 629 304 z "},"➆":{"ha":1135,"x_min":0,"x_max":0,"o":"m 568 -14 b 1089 507 858 -14 1089 221 b 568 1028 1089 794 856 1028 b 47 507 279 1028 47 794 b 568 -14 47 219 279 -14 z m 568 69 b 131 507 326 69 131 267 b 568 944 131 747 326 944 b 1006 507 808 944 1006 747 b 568 69 1006 267 811 69 z m 433 215 l 560 215 b 788 708 571 419 643 601 l 788 799 l 349 799 l 349 699 l 646 699 l 646 696 b 433 215 532 597 454 432 z "},"➇":{"ha":1135,"x_min":0,"x_max":0,"o":"m 568 -14 b 1089 507 858 -14 1089 221 b 568 1028 1089 794 856 1028 b 47 507 279 1028 47 794 b 568 -14 47 219 279 -14 z m 568 69 b 131 507 326 69 131 267 b 568 944 131 747 326 944 b 1006 507 808 944 1006 747 b 568 69 1006 267 811 69 z m 567 208 b 800 383 707 208 800 279 b 699 525 800 451 758 508 l 699 528 b 774 649 744 543 774 593 b 568 806 774 742 692 806 b 361 649 444 806 361 742 b 438 528 361 593 392 543 l 438 525 b 335 383 376 507 335 450 b 567 208 335 279 428 208 z m 568 563 b 478 638 514 563 478 592 b 567 710 478 682 513 710 b 657 638 621 710 657 682 b 568 563 657 592 622 563 z m 567 304 b 460 394 503 304 460 339 b 567 486 460 449 501 486 b 676 394 632 486 676 450 b 567 304 676 340 633 304 z "},"➈":{"ha":1135,"x_min":0,"x_max":0,"o":"m 568 -14 b 1089 507 858 -14 1089 221 b 568 1028 1089 794 856 1028 b 47 507 279 1028 47 794 b 568 -14 47 219 279 -14 z m 568 69 b 131 507 326 69 131 267 b 568 944 131 747 326 944 b 1006 507 808 944 1006 747 b 568 69 1006 267 811 69 z m 560 210 b 796 531 714 210 796 339 b 560 807 796 696 699 807 b 339 611 429 807 339 728 b 546 413 339 492 424 413 b 679 486 608 413 663 443 l 682 486 b 560 306 681 383 647 306 b 467 381 504 306 469 331 l 346 381 b 560 210 346 285 439 210 z m 560 508 b 463 611 503 508 463 549 b 560 711 463 671 503 711 b 660 611 619 711 660 671 b 560 508 660 550 619 508 z "},"¹":{"ha":389,"x_min":0,"x_max":0,"o":"m 169 431 l 288 431 l 288 1014 l 179 1014 b 26 889 174 939 138 889 l 26 818 l 169 818 z "},"²":{"ha":500,"x_min":0,"x_max":0,"o":"m 26 431 l 467 431 l 467 531 l 156 531 b 307 649 160 564 211 594 b 463 843 406 703 463 753 b 253 1021 463 950 379 1021 b 40 800 118 1021 38 943 l 158 800 b 254 925 153 875 185 925 b 342 847 307 925 342 894 b 225 717 342 782 296 757 b 26 431 103 649 26 608 z "},"³":{"ha":521,"x_min":0,"x_max":0,"o":"m 257 424 b 482 599 392 424 482 489 b 378 729 482 663 438 717 l 378 732 b 461 857 428 749 461 794 b 251 1021 461 954 383 1021 b 35 829 121 1021 35 950 l 158 829 b 253 925 158 888 189 925 b 342 853 307 925 342 900 b 244 778 342 806 310 774 l 193 779 l 193 681 l 244 683 b 356 599 311 686 356 661 b 258 519 354 550 319 519 b 149 629 193 519 149 554 l 26 629 b 257 424 26 506 113 424 z "},"⁴":{"ha":533,"x_min":0,"x_max":0,"o":"m 304 431 l 421 431 l 421 558 l 507 558 l 507 658 l 421 658 l 421 1014 l 292 1014 l 13 658 l 13 558 l 304 558 z m 122 658 l 122 661 b 165 708 122 661 142 681 l 253 819 b 301 885 282 856 301 885 l 304 885 l 304 658 z "},"⁵":{"ha":535,"x_min":0,"x_max":0,"o":"m 269 424 b 494 625 406 424 494 504 b 293 828 494 747 414 828 b 165 774 236 828 192 808 l 163 774 l 186 914 l 461 914 l 461 1014 l 93 1014 l 42 663 l 163 663 b 265 733 169 706 211 733 b 372 625 329 733 372 690 b 264 519 372 560 329 519 b 163 593 204 519 165 549 l 40 593 b 269 424 43 492 136 424 z "},"⁶":{"ha":526,"x_min":0,"x_max":0,"o":"m 264 424 b 481 622 393 424 481 504 b 271 822 481 743 396 822 b 136 738 207 822 156 788 l 133 738 b 269 925 136 846 168 925 b 364 851 321 925 358 897 l 485 851 b 269 1021 479 944 393 1021 b 26 708 114 1021 26 913 b 264 424 26 538 114 424 z m 260 519 b 160 622 199 519 160 560 b 260 726 160 685 199 726 b 356 622 317 726 356 686 b 260 519 356 561 317 519 z "},"⁷":{"ha":463,"x_min":0,"x_max":0,"o":"m 96 431 l 224 431 b 450 924 233 635 307 817 l 450 1014 l 13 1014 l 13 914 l 308 914 l 308 911 b 96 431 194 813 118 647 z "},"⁸":{"ha":544,"x_min":0,"x_max":0,"o":"m 271 424 b 504 599 411 424 504 494 b 403 740 504 667 463 724 l 403 743 b 479 864 449 758 479 808 b 272 1021 479 957 396 1021 b 65 864 149 1021 65 957 b 142 743 65 808 96 758 l 142 740 b 40 599 82 722 40 665 b 271 424 40 494 132 424 z m 272 778 b 183 853 218 778 183 807 b 271 925 183 897 218 925 b 361 853 326 925 361 897 b 272 778 361 807 326 778 z m 271 519 b 164 610 207 519 164 554 b 271 701 164 664 206 701 b 381 610 336 701 381 665 b 271 519 381 556 338 519 z "},"⁹":{"ha":508,"x_min":0,"x_max":0,"o":"m 246 424 b 483 743 400 424 483 553 b 246 1021 483 910 386 1021 b 26 825 115 1021 26 940 b 232 626 26 706 110 626 b 367 700 296 626 349 657 l 369 700 b 246 519 367 597 335 519 b 154 594 192 519 156 544 l 32 594 b 246 424 32 499 125 424 z m 247 722 b 149 825 189 722 149 763 b 247 925 149 885 189 925 b 347 825 306 925 347 885 b 247 722 347 764 306 722 z "},"Ⅰ":{"ha":692,"x_min":0,"x_max":0,"o":"m 68 0 l 624 0 l 624 161 l 440 161 l 440 825 l 624 825 l 624 986 l 68 986 l 68 825 l 253 825 l 253 161 l 68 161 z "},"Ⅱ":{"ha":1081,"x_min":0,"x_max":0,"o":"m 68 0 l 1013 0 l 1013 161 l 832 161 l 832 825 l 1013 825 l 1013 986 l 68 986 l 68 825 l 249 825 l 249 161 l 68 161 z m 436 161 l 436 825 l 644 825 l 644 161 z "},"Ⅲ":{"ha":1464,"x_min":0,"x_max":0,"o":"m 68 0 l 1397 0 l 1397 161 l 1217 161 l 1217 825 l 1397 825 l 1397 986 l 68 986 l 68 825 l 249 825 l 249 161 l 68 161 z m 436 161 l 436 825 l 638 825 l 638 161 z m 826 161 l 826 825 l 1029 825 l 1029 161 z "},"Ⅳ":{"ha":1485,"x_min":0,"x_max":0,"o":"m 68 0 l 1417 0 l 1417 161 l 1032 161 l 1272 825 l 1417 825 l 1417 986 l 68 986 l 68 825 l 225 825 l 225 161 l 68 161 z m 413 161 l 413 825 l 468 825 l 719 161 z m 872 246 l 676 825 l 1071 825 l 878 246 z "},"Ⅴ":{"ha":1229,"x_min":0,"x_max":0,"o":"m 68 0 l 1161 0 l 1161 161 l 775 161 l 1017 825 l 1161 825 l 1161 986 l 68 986 l 68 825 l 213 825 l 464 161 l 68 161 z m 617 246 l 421 825 l 815 825 l 622 246 z "},"Ⅵ":{"ha":1504,"x_min":0,"x_max":0,"o":"m 68 0 l 1438 0 l 1438 161 l 1260 161 l 1260 825 l 1438 825 l 1438 986 l 68 986 l 68 825 l 213 825 l 461 161 l 68 161 z m 613 246 l 419 825 l 814 825 l 618 246 z m 772 161 l 1017 825 l 1072 825 l 1072 161 z "},"Ⅶ":{"ha":1900,"x_min":0,"x_max":0,"o":"m 68 0 l 1832 0 l 1832 161 l 1656 161 l 1656 825 l 1832 825 l 1832 986 l 68 986 l 68 825 l 213 825 l 461 161 l 68 161 z m 613 246 l 419 825 l 814 825 l 618 246 z m 772 161 l 1017 825 l 1072 825 l 1072 161 z m 1260 161 l 1260 825 l 1468 825 l 1468 161 z "},"Ⅷ":{"ha":2276,"x_min":0,"x_max":0,"o":"m 68 0 l 2208 0 l 2208 161 l 2032 161 l 2032 825 l 2208 825 l 2208 986 l 68 986 l 68 825 l 213 825 l 461 161 l 68 161 z m 613 246 l 419 825 l 814 825 l 618 246 z m 772 161 l 1017 825 l 1072 825 l 1072 161 z m 1260 161 l 1260 825 l 1458 825 l 1458 161 z m 1646 161 l 1646 825 l 1844 825 l 1844 161 z "},"Ⅸ":{"ha":1439,"x_min":0,"x_max":0,"o":"m 68 0 l 1371 0 l 1371 161 l 1229 161 l 960 504 l 1208 825 l 1371 825 l 1371 986 l 68 986 l 68 825 l 244 825 l 244 161 l 68 161 z m 432 161 l 432 825 l 500 825 l 760 504 l 496 161 z m 857 639 l 722 825 l 993 825 l 863 639 z m 711 161 l 854 360 l 860 360 l 1007 161 z "},"Ⅹ":{"ha":1169,"x_min":0,"x_max":0,"o":"m 68 0 l 1101 0 l 1101 161 l 960 161 l 689 504 l 939 825 l 1101 825 l 1101 986 l 68 986 l 68 825 l 231 825 l 489 504 l 226 161 l 68 161 z m 588 639 l 453 825 l 724 825 l 593 639 z m 442 161 l 585 360 l 590 360 l 738 161 z "},"Ⅺ":{"ha":1468,"x_min":0,"x_max":0,"o":"m 68 0 l 1401 0 l 1401 161 l 1225 161 l 1225 825 l 1401 825 l 1401 986 l 68 986 l 68 825 l 231 825 l 486 504 l 221 161 l 68 161 z m 585 639 l 450 825 l 721 825 l 590 639 z m 954 161 l 686 504 l 939 825 l 1038 825 l 1038 161 z m 439 161 l 583 360 l 589 360 l 735 161 z "},"Ⅻ":{"ha":1868,"x_min":0,"x_max":0,"o":"m 68 0 l 1800 0 l 1800 161 l 1619 161 l 1619 825 l 1800 825 l 1800 986 l 68 986 l 68 825 l 231 825 l 486 504 l 221 161 l 68 161 z m 585 639 l 450 825 l 721 825 l 590 639 z m 954 161 l 686 504 l 939 825 l 1038 825 l 1038 161 z m 1225 161 l 1225 825 l 1432 825 l 1432 161 z m 439 161 l 583 360 l 589 360 l 735 161 z "},"Ⅼ":{"ha":950,"x_min":0,"x_max":0,"o":"m 68 0 l 863 0 l 863 375 l 694 375 l 694 161 l 392 161 l 392 825 l 529 825 l 529 986 l 68 986 l 68 825 l 204 825 l 204 161 l 68 161 z "},"Ⅽ":{"ha":1056,"x_min":0,"x_max":0,"o":"m 540 -14 b 815 99 644 -14 761 31 l 819 99 l 819 0 l 986 0 l 988 360 l 788 360 b 544 151 767 229 669 151 b 267 493 371 151 267 289 b 544 835 267 697 371 835 b 788 626 671 835 767 757 l 988 626 l 986 986 l 819 986 l 819 888 l 815 888 b 540 1000 763 956 644 1000 b 68 493 253 1000 68 813 b 540 -14 68 174 253 -14 z "},"Ⅾ":{"ha":1114,"x_min":0,"x_max":0,"o":"m 68 0 l 594 0 b 1082 510 886 0 1082 189 b 594 1006 1082 807 901 1006 l 68 1006 l 68 846 l 235 846 l 235 161 l 68 161 z m 426 161 l 426 846 l 583 846 b 882 510 763 846 882 719 b 583 161 882 300 771 161 z "},"Ⅿ":{"ha":1526,"x_min":0,"x_max":0,"o":"m 68 0 l 532 0 l 532 161 l 422 161 l 422 818 l 426 818 l 675 0 l 849 0 l 1101 818 l 1106 818 l 1106 161 l 996 161 l 996 0 l 1458 0 l 1458 161 l 1296 161 l 1296 846 l 1458 846 l 1458 1006 l 993 1006 l 765 244 l 761 244 l 540 1006 l 68 1006 l 68 846 l 231 846 l 231 161 l 68 161 z "},"*":{"ha":739,"x_min":0,"x_max":0,"o":"m 265 426 l 369 651 l 372 651 l 475 426 l 626 535 l 446 703 l 446 707 l 693 736 l 636 914 l 419 793 l 415 796 l 464 1040 l 278 1040 l 324 796 l 321 793 l 104 914 l 47 736 l 293 707 l 293 703 l 113 535 z "},"\\":{"ha":581,"x_min":0,"x_max":0,"o":"m 394 0 l 556 0 l 186 1014 l 25 1014 z "},"·":{"ha":381,"x_min":0,"x_max":0,"o":"m 89 415 l 292 415 l 292 619 l 89 619 z "},"•":{"ha":542,"x_min":0,"x_max":0,"o":"m 271 276 b 440 446 364 276 440 353 b 271 613 440 538 364 613 b 103 446 179 613 103 538 b 271 276 103 353 179 276 z "},":":{"ha":358,"x_min":0,"x_max":0,"o":"m 78 488 l 281 488 l 281 693 l 78 693 z m 78 0 l 281 0 l 281 206 l 78 206 z "},",":{"ha":343,"x_min":0,"x_max":0,"o":"m 79 -214 l 165 -214 l 276 -14 l 276 206 l 72 206 l 72 0 l 165 0 l 165 -8 z "},"…":{"ha":1025,"x_min":0,"x_max":0,"o":"m 61 0 l 264 0 l 264 206 l 61 206 z m 411 0 l 614 0 l 614 206 l 411 206 z m 761 0 l 964 0 l 964 206 l 761 206 z "},"!":{"ha":382,"x_min":0,"x_max":0,"o":"m 138 296 l 243 296 l 290 715 l 290 1014 l 90 1014 l 90 715 z m 89 0 l 293 0 l 293 206 l 89 206 z "},"‼":{"ha":732,"x_min":0,"x_max":0,"o":"m 138 296 l 243 296 l 290 715 l 290 1014 l 90 1014 l 90 715 z m 489 296 l 594 296 l 642 715 l 642 1014 l 442 1014 l 442 715 z m 89 0 l 293 0 l 293 206 l 89 206 z m 440 0 l 644 0 l 644 206 l 440 206 z "},"¡":{"ha":382,"x_min":0,"x_max":0,"o":"m 89 533 l 293 533 l 293 739 l 89 739 z m 90 -275 l 290 -275 l 290 24 l 243 443 l 138 443 l 90 24 z "},"‽":{"ha":799,"x_min":0,"x_max":0,"o":"m 386 1028 b 42 664 161 1028 24 893 l 228 664 b 392 882 213 794 267 882 b 553 743 489 882 553 826 b 444 554 553 663 515 610 l 443 553 l 457 761 l 288 761 l 321 261 l 481 261 b 594 469 482 363 521 414 b 740 736 678 532 740 611 b 386 1028 740 911 599 1028 z m 300 0 l 503 0 l 503 190 l 300 190 z "},"#":{"ha":1044,"x_min":0,"x_max":0,"o":"m 160 0 l 321 0 l 367 269 l 589 269 l 543 0 l 706 0 l 751 269 l 900 269 l 926 417 l 776 417 l 810 611 l 960 611 l 983 758 l 835 758 l 874 986 l 713 986 l 674 758 l 451 758 l 490 986 l 329 986 l 292 758 l 146 758 l 119 611 l 265 611 l 232 417 l 86 417 l 61 269 l 207 269 z m 393 417 l 426 611 l 649 611 l 615 417 z "},".":{"ha":339,"x_min":0,"x_max":0,"o":"m 68 0 l 271 0 l 271 206 l 68 206 z "},"?":{"ha":779,"x_min":0,"x_max":0,"o":"m 251 261 l 432 261 b 556 464 433 363 482 410 b 725 736 639 526 725 611 b 388 1028 725 911 590 1028 b 40 700 168 1028 40 901 b 43 639 40 679 42 660 l 228 639 b 225 685 226 654 225 671 b 390 882 225 804 283 882 b 538 743 479 882 538 835 b 406 554 538 663 476 610 b 251 261 301 472 251 403 z m 240 0 l 444 0 l 444 190 l 240 190 z "},"¿":{"ha":779,"x_min":0,"x_max":0,"o":"m 335 549 l 539 549 l 539 739 l 335 739 z m 392 -289 b 739 39 611 -289 739 -162 b 736 100 739 60 738 79 l 551 100 b 554 54 553 85 554 69 b 389 -143 554 -65 496 -143 b 242 -4 300 -143 242 -96 b 374 185 242 76 303 129 b 528 478 478 267 528 336 l 347 478 b 224 275 346 376 297 329 b 54 3 140 213 54 128 b 392 -289 54 -172 189 -289 z "},"\"":{"ha":565,"x_min":0,"x_max":0,"o":"m 118 614 l 179 614 l 242 1024 l 57 1024 z m 386 614 l 447 614 l 508 1024 l 325 1024 z "},"'":{"ha":297,"x_min":0,"x_max":0,"o":"m 118 614 l 179 614 l 242 1024 l 57 1024 z "},";":{"ha":358,"x_min":0,"x_max":0,"o":"m 78 488 l 281 488 l 281 693 l 78 693 z m 85 -214 l 169 -214 l 281 -14 l 281 206 l 78 206 l 78 0 l 169 0 l 169 -14 z "},"/":{"ha":581,"x_min":0,"x_max":0,"o":"m 25 0 l 186 0 l 556 1014 l 394 1014 z "},"_":{"ha":669,"x_min":0,"x_max":0,"o":"m 13 -257 l 658 -257 l 658 -131 l 13 -131 z "},"⁂":{"ha":1319,"x_min":0,"x_max":0,"o":"m 572 574 l 658 763 l 661 763 l 749 574 l 876 664 l 724 807 l 724 810 l 932 833 l 883 982 l 700 881 l 699 883 l 739 1089 l 582 1089 l 621 883 l 619 881 l 436 982 l 388 833 l 596 810 l 596 807 l 444 664 z m 231 0 l 318 189 l 321 189 l 407 0 l 535 90 l 382 233 l 382 236 l 590 260 l 542 408 l 360 308 l 357 310 l 397 515 l 242 515 l 281 310 l 278 308 l 96 408 l 47 260 l 256 236 l 256 233 l 104 90 z m 913 0 l 1000 189 l 1003 189 l 1089 0 l 1217 90 l 1064 233 l 1064 236 l 1272 260 l 1225 408 l 1042 308 l 1039 310 l 1081 515 l 924 515 l 963 310 l 960 308 l 778 408 l 729 260 l 938 236 l 938 233 l 786 90 z "},"⁑":{"ha":679,"x_min":0,"x_max":0,"o":"m 251 574 l 339 763 l 342 763 l 428 574 l 556 664 l 403 807 l 403 808 l 611 833 l 563 982 l 381 881 l 378 883 l 418 1088 l 263 1088 l 301 883 l 300 881 l 117 982 l 68 833 l 276 808 l 278 807 l 125 664 z m 251 0 l 339 189 l 342 189 l 428 0 l 556 90 l 403 233 l 403 236 l 611 260 l 563 408 l 381 308 l 378 310 l 418 515 l 263 515 l 301 310 l 300 308 l 117 408 l 68 260 l 276 236 l 278 233 l 125 90 z "},"{":{"ha":558,"x_min":0,"x_max":0,"o":"m 467 -194 l 547 -194 l 547 -47 l 526 -47 b 394 85 433 -47 394 -6 l 394 264 b 278 456 394 360 347 431 l 278 461 b 394 653 347 486 394 557 l 394 832 b 526 964 394 922 433 964 l 547 964 l 547 1111 l 467 1111 b 207 882 297 1111 207 1019 l 207 653 b 54 517 207 565 151 517 l 54 400 b 207 264 151 400 207 351 l 207 35 b 467 -194 207 -103 297 -194 z "},"}":{"ha":558,"x_min":0,"x_max":0,"o":"m 11 -194 l 92 -194 b 351 35 261 -194 351 -103 l 351 264 b 504 400 351 351 407 400 l 504 517 b 351 653 407 517 351 565 l 351 882 b 92 1111 351 1019 261 1111 l 11 1111 l 11 964 l 32 964 b 164 832 125 964 164 922 l 164 653 b 281 461 164 557 211 486 l 281 456 b 164 264 211 431 164 360 l 164 85 b 32 -47 164 -6 125 -47 l 11 -47 z "},"[":{"ha":440,"x_min":0,"x_max":0,"o":"m 89 -194 l 429 -194 l 429 -57 l 274 -57 l 274 974 l 429 974 l 429 1111 l 89 1111 z "},"]":{"ha":440,"x_min":0,"x_max":0,"o":"m 11 -194 l 351 -194 l 351 1111 l 11 1111 l 11 974 l 167 974 l 167 -57 l 11 -57 z "},"(":{"ha":508,"x_min":0,"x_max":0,"o":"m 381 -194 l 499 -194 b 274 458 363 -35 274 185 b 499 1111 274 689 339 922 l 381 1111 b 82 458 201 960 82 719 b 381 -194 82 219 188 -28 z "},")":{"ha":508,"x_min":0,"x_max":0,"o":"m 10 -194 l 126 -194 b 426 458 321 -28 426 219 b 126 1111 426 719 307 960 l 10 1111 b 235 458 169 922 235 689 b 10 -194 235 185 144 -35 z "},"—":{"ha":1168,"x_min":0,"x_max":0,"o":"m 85 294 l 1085 294 l 1085 446 l 85 446 z "},"–":{"ha":835,"x_min":0,"x_max":0,"o":"m 85 294 l 750 294 l 750 446 l 85 446 z "},"-":{"ha":619,"x_min":0,"x_max":0,"o":"m 85 294 l 536 294 l 536 446 l 85 446 z "},"«":{"ha":758,"x_min":0,"x_max":0,"o":"m 247 0 l 418 0 l 244 276 l 244 279 l 418 556 l 247 556 l 43 278 z m 554 0 l 725 0 l 551 276 l 551 279 l 725 556 l 554 556 l 350 278 z "},"»":{"ha":758,"x_min":0,"x_max":0,"o":"m 33 0 l 204 0 l 408 278 l 204 556 l 33 556 l 207 279 l 207 276 z m 340 0 l 511 0 l 715 278 l 511 556 l 340 556 l 514 279 l 514 276 z "},"‹":{"ha":450,"x_min":0,"x_max":0,"o":"m 247 0 l 418 0 l 244 276 l 244 279 l 418 556 l 247 556 l 43 278 z "},"›":{"ha":450,"x_min":0,"x_max":0,"o":"m 33 0 l 204 0 l 408 278 l 204 556 l 33 556 l 207 279 l 207 276 z "},"„":{"ha":611,"x_min":0,"x_max":0,"o":"m 79 -200 l 165 -200 l 276 -14 l 276 192 l 72 192 l 72 0 l 165 0 l 165 -8 z m 346 -200 l 432 -200 l 543 -14 l 543 192 l 339 192 l 339 0 l 432 0 l 432 -8 z "},"“":{"ha":589,"x_min":0,"x_max":0,"o":"m 57 622 l 260 622 l 260 814 l 168 814 l 168 822 l 253 1014 l 168 1014 l 57 828 z m 324 622 l 526 622 l 526 814 l 435 814 l 435 822 l 519 1014 l 435 1014 l 324 828 z "},"”":{"ha":589,"x_min":0,"x_max":0,"o":"m 68 622 l 154 622 l 265 808 l 265 1014 l 61 1014 l 61 822 l 154 822 l 154 814 z m 335 622 l 421 622 l 532 808 l 532 1014 l 328 1014 l 328 822 l 421 822 l 421 814 z "},"‘":{"ha":321,"x_min":0,"x_max":0,"o":"m 57 622 l 260 622 l 260 814 l 168 814 l 168 822 l 253 1014 l 168 1014 l 57 828 z "},"’":{"ha":321,"x_min":0,"x_max":0,"o":"m 68 622 l 154 622 l 265 808 l 265 1014 l 61 1014 l 61 822 l 154 822 l 154 814 z "},"‚":{"ha":339,"x_min":0,"x_max":0,"o":"m 75 -200 l 160 -200 l 271 -14 l 271 192 l 68 192 l 68 0 l 160 0 l 160 -8 z "}," ":{"ha":319,"x_min":0,"x_max":0,"o":""},"¢":{"ha":815,"x_min":0,"x_max":0,"o":"m 419 133 b 244 371 314 133 244 213 b 422 606 244 513 303 606 b 576 474 500 606 561 561 l 765 474 b 465 751 753 626 632 735 l 465 844 l 363 844 l 363 749 b 50 371 172 724 50 579 b 363 -11 50 160 169 14 l 363 -112 l 465 -112 l 465 -12 b 765 267 643 4 747 113 l 576 267 b 419 133 563 186 507 133 z "},"¤":{"ha":854,"x_min":0,"x_max":0,"o":"m 157 85 l 251 179 b 428 135 300 151 363 135 b 603 179 492 135 556 151 l 699 85 l 801 188 l 708 281 b 754 451 738 329 754 388 b 703 631 754 517 735 579 l 801 729 l 699 832 l 594 729 b 428 768 547 753 489 768 b 261 729 365 768 307 753 l 157 832 l 54 729 l 151 631 b 101 451 119 579 101 517 b 146 281 101 388 117 329 l 54 188 z m 428 268 b 282 451 339 268 282 329 b 428 635 282 565 335 635 b 574 451 515 635 574 572 b 428 268 574 338 521 268 z "},"$":{"ha":901,"x_min":0,"x_max":0,"o":"m 854 285 b 550 574 854 438 772 503 l 510 586 l 510 840 b 632 682 576 821 626 769 l 822 682 b 510 997 822 858 717 978 l 510 1111 l 407 1111 l 407 999 b 74 704 192 985 74 856 b 382 421 74 565 147 488 b 407 414 390 418 399 417 l 407 143 b 249 335 311 165 247 238 l 53 335 b 407 -11 53 140 190 7 l 407 -111 l 510 -111 l 510 -12 b 854 285 722 3 854 115 z m 283 732 b 407 846 283 792 329 836 l 407 618 b 283 732 319 647 283 669 z m 510 140 l 510 382 b 640 257 613 347 640 318 b 510 140 640 196 592 151 z "},"€":{"ha":1015,"x_min":0,"x_max":0,"o":"m 772 340 b 563 138 756 218 688 138 b 336 364 449 138 365 213 l 586 364 l 611 460 l 325 460 b 325 493 325 471 325 482 l 325 524 l 628 524 l 654 619 l 338 619 b 572 849 367 761 447 849 b 772 679 669 849 749 789 l 965 679 b 572 1000 944 872 790 1000 b 142 619 343 1000 182 856 l 40 619 l 40 524 l 131 524 b 131 493 131 514 131 503 l 131 460 l 40 460 l 40 364 l 142 364 b 563 -14 182 133 336 -14 b 968 340 785 -14 947 124 z "},"ƒ":{"ha":706,"x_min":0,"x_max":0,"o":"m 607 881 b 699 864 639 881 672 875 l 699 1015 b 575 1042 667 1032 621 1042 b 336 863 476 1042 361 1003 l 304 694 l 136 694 l 136 543 l 275 543 l 179 50 b 83 -26 171 3 133 -26 b -8 -10 51 -26 18 -21 l -8 -161 b 115 -187 22 -178 68 -187 b 353 -8 213 -187 328 -149 l 458 543 l 658 543 l 658 694 l 488 694 l 508 804 b 607 881 518 851 557 881 z "},"£":{"ha":850,"x_min":0,"x_max":0,"o":"m 61 0 l 803 0 l 803 161 l 307 161 l 307 164 b 396 407 307 164 447 239 l 564 407 l 564 528 l 354 528 l 319 622 b 451 849 272 744 328 849 b 608 643 568 849 615 763 l 796 643 b 451 1000 810 844 696 1000 b 146 583 132 1000 72 747 l 169 528 l 79 528 l 79 407 l 204 407 b 61 172 261 235 61 172 z "},"¥":{"ha":936,"x_min":0,"x_max":0,"o":"m 928 986 l 725 986 l 551 714 b 474 569 485 606 474 569 l 469 569 b 392 714 469 569 458 606 l 218 986 l 8 986 l 376 425 l 188 425 l 188 329 l 378 329 l 378 265 l 188 265 l 188 169 l 378 169 l 378 0 l 563 0 l 563 169 l 754 169 l 754 265 l 563 265 l 563 329 l 754 329 l 754 425 l 564 425 z "},"≈":{"ha":835,"x_min":0,"x_max":0,"o":"m 161 397 b 279 479 200 451 232 479 b 564 389 357 479 438 389 b 801 560 669 389 753 451 l 690 618 b 576 540 653 563 624 540 b 292 631 499 540 419 631 b 51 456 188 631 100 563 z m 161 111 b 279 193 200 165 232 193 b 564 103 357 193 438 103 b 801 274 669 103 753 165 l 690 332 b 576 256 653 278 624 256 b 292 344 499 256 419 344 b 51 169 188 344 100 278 z "},"~":{"ha":844,"x_min":0,"x_max":0,"o":"m 157 382 b 275 464 196 438 228 464 b 560 375 353 464 433 375 b 797 546 665 375 749 438 l 688 603 b 572 526 649 549 619 526 b 289 617 496 526 415 617 b 47 440 183 617 96 549 z "},"÷":{"ha":806,"x_min":0,"x_max":0,"o":"m 307 529 l 500 529 l 500 714 l 307 714 z m 47 283 l 760 283 l 760 431 l 47 431 z m 307 0 l 500 0 l 500 186 l 307 186 z "},"⋅":{"ha":381,"x_min":0,"x_max":0,"o":"m 89 394 l 292 394 l 292 590 l 89 590 z "},"∅":{"ha":856,"x_min":0,"x_max":0,"o":"m 706 640 l 768 714 l 713 760 l 651 688 b 428 753 590 729 515 753 b 54 369 204 753 54 600 b 154 93 54 256 90 161 l 97 25 l 151 -21 l 208 49 b 428 -14 268 8 343 -14 b 801 369 651 -14 801 138 b 706 640 801 481 767 574 z m 225 369 b 428 606 225 511 301 606 b 550 567 476 606 518 593 l 261 221 b 225 369 238 260 225 310 z m 428 133 b 310 168 382 133 342 146 l 597 511 b 631 369 618 474 631 425 b 428 133 631 228 554 133 z "},"=":{"ha":833,"x_min":0,"x_max":0,"o":"m 61 431 l 774 431 l 774 578 l 61 578 z m 61 144 l 774 144 l 774 292 l 61 292 z "},">":{"ha":881,"x_min":0,"x_max":0,"o":"m 82 136 l 811 374 l 811 536 l 82 774 l 82 604 l 638 457 l 638 453 l 82 306 z "},"≥":{"ha":881,"x_min":0,"x_max":0,"o":"m 82 169 l 811 407 l 811 569 l 82 807 l 82 638 l 638 490 l 638 486 l 82 339 z m 82 0 l 811 0 l 811 140 l 82 140 z "},"∞":{"ha":1135,"x_min":0,"x_max":0,"o":"m 332 164 b 565 281 424 164 514 207 l 571 281 b 803 164 624 207 713 164 b 1081 418 974 164 1081 265 b 803 672 1081 571 974 672 b 571 547 707 672 618 622 l 567 547 b 332 672 519 622 431 672 b 54 418 163 672 54 571 b 332 164 54 265 163 164 z m 342 311 b 228 418 274 311 228 354 b 342 525 228 482 274 525 b 481 418 399 525 454 482 b 342 311 453 354 397 311 z m 793 311 b 654 418 738 311 682 354 b 793 525 681 482 736 525 b 907 418 863 525 907 482 b 793 311 907 354 863 311 z "},"∫":{"ha":540,"x_min":0,"x_max":0,"o":"m 100 -281 b 349 -61 250 -281 349 -203 l 349 746 b 515 831 349 826 392 849 l 515 978 b 413 1000 483 996 440 1000 b 164 781 263 1000 164 922 l 164 -26 b -3 -111 164 -107 121 -129 l -3 -258 b 100 -281 29 -276 72 -281 z "},"<":{"ha":881,"x_min":0,"x_max":0,"o":"m 800 136 l 800 306 l 244 453 l 244 457 l 800 604 l 800 774 l 71 536 l 71 374 z "},"≤":{"ha":881,"x_min":0,"x_max":0,"o":"m 800 169 l 800 339 l 244 486 l 244 490 l 800 638 l 800 807 l 71 569 l 71 407 z m 71 0 l 800 0 l 800 140 l 71 140 z "},"¬":{"ha":718,"x_min":0,"x_max":0,"o":"m 492 146 l 658 146 l 658 543 l 33 543 l 33 396 l 492 396 z "},"−":{"ha":833,"x_min":0,"x_max":0,"o":"m 61 283 l 774 283 l 774 431 l 61 431 z "},"×":{"ha":829,"x_min":0,"x_max":0,"o":"m 157 0 l 415 257 l 672 0 l 776 104 l 518 361 l 769 611 l 665 714 l 415 464 l 164 714 l 61 611 l 311 361 l 54 104 z "},"≠":{"ha":833,"x_min":0,"x_max":0,"o":"m 774 411 l 774 557 l 565 557 l 629 729 l 482 729 l 418 557 l 61 557 l 61 411 l 365 411 l 314 271 l 61 271 l 61 125 l 260 125 l 204 -28 l 351 -28 l 407 125 l 774 125 l 774 271 l 461 271 l 513 411 z "},"∂":{"ha":849,"x_min":0,"x_max":0,"o":"m 392 -14 b 796 446 636 -14 796 161 b 206 1014 796 793 578 1014 l 206 867 b 649 532 460 863 628 746 l 646 532 b 396 664 607 611 511 664 b 47 315 188 664 47 525 b 392 -14 47 119 186 -14 z m 404 133 b 242 315 307 133 242 200 b 425 517 242 436 311 517 b 588 335 522 517 588 449 b 404 133 588 214 519 133 z "},"%":{"ha":1176,"x_min":0,"x_max":0,"o":"m 286 488 b 524 758 428 488 524 596 b 286 1028 524 919 428 1028 b 47 758 143 1028 47 919 b 286 488 47 596 143 488 z m 168 0 l 299 0 l 1008 1014 l 878 1014 z m 286 611 b 182 758 224 611 182 665 b 286 906 182 846 221 906 b 389 758 347 906 389 850 b 286 611 389 669 350 611 z m 890 -14 b 1129 256 1033 -14 1129 94 b 890 526 1129 418 1033 526 b 653 256 749 526 653 418 b 890 -14 653 94 749 -14 z m 890 108 b 788 256 829 108 788 164 b 890 403 788 344 826 403 b 994 256 953 403 994 349 b 890 108 994 168 956 108 z "},"‰":{"ha":1686,"x_min":0,"x_max":0,"o":"m 286 488 b 524 758 428 488 524 596 b 286 1028 524 919 428 1028 b 47 758 143 1028 47 919 b 286 488 47 596 143 488 z m 168 0 l 299 0 l 1008 1014 l 878 1014 z m 286 611 b 182 758 224 611 182 665 b 286 906 182 846 221 906 b 389 758 347 906 389 850 b 286 611 389 669 350 611 z m 890 -14 b 1129 256 1033 -14 1129 94 b 890 526 1129 418 1033 526 b 653 256 749 526 653 418 b 890 -14 653 94 749 -14 z m 1400 -14 b 1639 256 1543 -14 1639 94 b 1400 526 1639 418 1543 526 b 1161 256 1257 526 1161 418 b 1400 -14 1161 94 1257 -14 z m 890 108 b 788 256 829 108 788 164 b 890 403 788 344 826 403 b 994 256 953 403 994 349 b 890 108 994 168 956 108 z m 1400 108 b 1296 256 1338 108 1296 164 b 1400 403 1296 344 1335 403 b 1504 256 1463 403 1504 349 b 1400 108 1504 168 1465 108 z "},"+":{"ha":833,"x_min":0,"x_max":0,"o":"m 774 431 l 490 431 l 490 714 l 343 714 l 343 431 l 61 431 l 61 283 l 343 283 l 343 0 l 490 0 l 490 283 l 774 283 z "},"±":{"ha":833,"x_min":0,"x_max":0,"o":"m 490 543 l 490 714 l 343 714 l 343 543 l 61 543 l 61 396 l 343 396 l 343 224 l 490 224 l 490 396 l 774 396 l 774 543 z m 61 0 l 774 0 l 774 147 l 61 147 z "},"∏":{"ha":974,"x_min":0,"x_max":0,"o":"m 99 -132 l 283 -132 l 283 863 l 692 863 l 692 -132 l 876 -132 l 876 1014 l 99 1014 z "},"√":{"ha":951,"x_min":0,"x_max":0,"o":"m 276 0 l 499 0 l 878 1042 l 1051 1042 l 1051 1203 l 757 1203 l 388 181 l 385 181 l 188 725 l 13 725 z "},"∑":{"ha":899,"x_min":0,"x_max":0,"o":"m 47 -125 l 853 -125 l 853 158 l 686 158 l 686 26 l 275 26 l 275 29 l 624 411 l 624 478 l 275 860 l 275 863 l 679 863 l 679 731 l 846 731 l 846 1014 l 47 1014 l 47 875 l 429 446 l 429 443 l 47 14 z "},"⦻":{"ha":1149,"x_min":0,"x_max":0,"o":"m 575 -14 b 1096 507 865 -14 1096 221 b 575 1028 1096 794 863 1028 b 54 507 286 1028 54 794 b 575 -14 54 219 286 -14 z m 575 611 l 351 835 b 575 904 414 879 492 904 b 799 835 657 904 735 879 z m 247 283 b 176 507 203 347 176 424 b 247 731 176 590 203 667 l 471 507 z m 903 283 l 678 507 l 903 731 b 972 507 946 667 972 590 b 903 283 972 424 947 346 z m 575 110 b 351 179 492 110 414 135 l 575 403 l 799 179 b 575 110 735 135 658 110 z "},"↑":{"ha":693,"x_min":0,"x_max":0,"o":"m 274 -257 l 421 -257 l 421 825 l 654 825 l 347 1132 l 40 825 l 275 825 z "},"↗":{"ha":1114,"x_min":0,"x_max":0,"o":"m 143 -21 l 908 744 l 1075 579 l 1075 1014 l 640 1014 l 806 849 l 40 83 z "},"→":{"ha":1468,"x_min":0,"x_max":0,"o":"m 1122 136 l 1429 443 l 1122 750 l 1122 515 l 40 517 l 40 369 l 1121 369 z "},"↘":{"ha":1114,"x_min":0,"x_max":0,"o":"m 640 0 l 1075 0 l 1075 435 l 908 269 l 143 1035 l 40 931 l 806 165 z "},"↓":{"ha":693,"x_min":0,"x_max":0,"o":"m 347 -257 l 654 50 l 421 50 l 421 1132 l 274 1132 l 275 50 l 40 50 z "},"↙":{"ha":1114,"x_min":0,"x_max":0,"o":"m 40 0 l 475 0 l 308 165 l 1075 931 l 971 1035 l 206 269 l 40 435 z "},"←":{"ha":1468,"x_min":0,"x_max":0,"o":"m 346 136 l 347 369 l 1429 369 l 1429 517 l 347 515 l 347 750 l 40 443 z "},"↖":{"ha":1114,"x_min":0,"x_max":0,"o":"m 971 -21 l 1075 83 l 308 849 l 475 1014 l 40 1014 l 40 579 l 206 744 z "},"↔":{"ha":1468,"x_min":0,"x_max":0,"o":"m 346 136 l 347 369 l 1121 369 l 1122 136 l 1429 443 l 1122 750 l 1122 517 l 347 517 l 347 750 l 40 443 z "},"↕":{"ha":693,"x_min":0,"x_max":0,"o":"m 347 -257 l 654 50 l 421 51 l 421 824 l 654 825 l 347 1132 l 40 825 l 274 825 l 274 50 l 40 50 z "},"◯":{"ha":1149,"x_min":0,"x_max":0,"o":"m 575 -14 b 1096 507 865 -14 1096 221 b 575 1028 1096 794 863 1028 b 54 507 286 1028 54 794 b 575 -14 54 219 286 -14 z m 575 110 b 176 507 354 110 176 289 b 575 904 176 725 354 904 b 972 507 793 904 972 725 b 575 110 972 289 796 110 z "},"◊":{"ha":825,"x_min":0,"x_max":0,"o":"m 340 0 l 486 0 l 779 507 l 488 1014 l 340 1014 l 47 507 z m 411 92 l 169 507 l 411 922 l 414 922 l 657 507 l 414 92 z "},"□":{"ha":1163,"x_min":0,"x_max":0,"o":"m 75 0 l 1089 0 l 1089 1014 l 75 1014 z m 193 118 l 193 896 l 971 896 l 971 118 z "},"△":{"ha":1201,"x_min":0,"x_max":0,"o":"m 7 0 l 1194 0 l 601 1028 z m 211 118 l 601 792 l 990 118 z "},"╳":{"ha":1182,"x_min":0,"x_max":0,"o":"m 85 0 l 1099 0 l 1099 1014 l 85 1014 z m 203 118 l 203 896 l 981 896 l 981 118 z m 381 196 l 592 407 l 801 196 l 901 296 l 692 507 l 901 718 l 801 818 l 592 607 l 381 818 l 281 718 l 492 507 l 281 296 z "},"✓":{"ha":1435,"x_min":0,"x_max":0,"o":"m 497 0 l 1408 913 l 1319 1001 l 497 178 l 115 560 l 26 471 z "},"✕":{"ha":1067,"x_min":0,"x_max":0,"o":"m 115 0 l 533 418 l 953 0 l 1040 89 l 622 508 l 1040 926 l 953 1015 l 533 597 l 115 1015 l 26 926 l 444 508 l 26 89 z "},"|":{"ha":369,"x_min":0,"x_max":0,"o":"m 103 -208 l 267 -208 l 267 1042 l 103 1042 z "},"¦":{"ha":369,"x_min":0,"x_max":0,"o":"m 103 521 l 267 521 l 267 1042 l 103 1042 z m 103 -208 l 267 -208 l 267 313 l 103 313 z "},"@":{"ha":1339,"x_min":0,"x_max":0,"o":"m 674 -197 b 1075 -79 840 -197 996 -147 l 1007 33 b 674 -62 936 -22 807 -62 b 196 401 397 -62 196 122 b 688 893 196 692 394 893 b 1138 497 964 893 1138 729 b 996 226 1138 331 1083 226 b 928 364 950 226 917 253 l 968 740 l 821 740 l 813 674 l 810 674 b 647 753 786 721 726 753 b 339 450 483 753 360 632 b 593 115 319 250 421 115 b 821 233 711 115 779 163 l 824 233 b 982 115 832 157 896 115 b 1285 497 1165 115 1285 258 b 688 1028 1285 811 1047 1028 b 54 401 307 1028 54 774 b 674 -197 54 42 318 -197 z m 617 249 b 503 438 536 249 489 318 b 668 619 515 547 578 619 b 782 443 747 619 794 554 b 617 249 769 326 707 249 z "},"&":{"ha":983,"x_min":0,"x_max":0,"o":"m 407 -14 b 696 88 522 -14 633 22 l 772 0 l 1010 0 l 800 218 b 890 571 854 297 893 417 l 701 571 b 671 349 708 485 694 400 l 668 349 l 471 550 l 471 553 b 656 776 556 594 650 660 b 386 1019 664 918 557 1019 b 114 785 222 1019 114 922 b 239 565 114 707 144 653 l 239 563 b 43 278 126 500 43 413 b 407 -14 43 101 178 -14 z m 371 646 b 288 788 319 693 288 735 b 386 874 288 838 326 874 b 482 781 444 874 482 836 b 374 646 482 721 433 679 z m 403 133 b 238 285 300 133 238 194 b 351 454 238 350 278 414 l 354 454 l 579 213 b 403 133 544 165 476 133 z "},"¶":{"ha":908,"x_min":0,"x_max":0,"o":"m 208 -271 b 524 19 418 -271 524 -201 l 524 867 l 640 867 l 640 0 l 811 0 l 811 1014 l 283 1014 b 40 771 149 1014 40 906 b 283 528 40 636 149 528 l 353 528 l 353 19 b 208 -118 353 -65 332 -118 z "},"©":{"ha":1146,"x_min":0,"x_max":0,"o":"m 572 -14 b 1093 507 863 -14 1093 221 b 572 1028 1093 794 860 1028 b 51 507 283 1028 51 794 b 572 -14 51 219 283 -14 z m 572 69 b 135 507 331 69 135 267 b 572 944 135 747 331 944 b 1010 507 813 944 1010 747 b 572 69 1010 267 815 69 z m 582 215 b 831 425 719 215 819 300 l 715 425 b 582 311 703 357 658 311 b 428 507 489 311 428 379 b 582 703 428 625 482 703 b 711 590 653 703 701 667 l 828 590 b 582 799 815 715 717 799 b 313 507 419 799 313 690 b 582 215 313 333 413 215 z "},"®":{"ha":1146,"x_min":0,"x_max":0,"o":"m 572 -14 b 1093 507 863 -14 1093 221 b 572 1028 1093 794 860 1028 b 51 507 283 1028 51 794 b 572 -14 51 219 283 -14 z m 572 69 b 135 507 331 69 135 267 b 572 944 135 747 331 944 b 1010 507 813 944 1010 747 b 572 69 1010 267 815 69 z m 372 224 l 483 224 l 483 443 l 561 443 l 689 224 l 817 224 l 671 454 b 801 617 747 472 801 528 b 600 790 801 722 735 790 l 372 790 z m 483 536 l 483 699 l 588 699 b 685 617 647 699 685 676 b 588 536 685 568 658 536 z "},"§":{"ha":1001,"x_min":0,"x_max":0,"o":"m 510 -289 b 876 7 731 -289 876 -174 b 846 132 876 53 867 99 b 899 285 881 171 899 219 b 639 585 899 406 839 511 b 340 750 425 663 340 667 b 497 863 340 818 397 863 b 667 707 594 863 661 807 l 860 707 b 497 1028 860 879 724 1028 b 150 736 283 1028 150 914 b 186 608 150 679 161 642 b 103 440 135 575 103 515 b 424 142 103 300 194 208 b 678 -11 633 79 682 63 b 514 -124 675 -75 619 -124 b 317 72 394 -124 317 -51 l 117 72 b 510 -289 117 -137 267 -289 z m 703 231 b 607 268 676 243 644 256 b 286 450 392 335 286 360 b 314 514 286 472 296 497 b 446 468 351 497 394 483 b 711 278 656 406 711 371 b 703 231 711 263 708 246 z "},"™":{"ha":826,"x_min":0,"x_max":0,"o":"m 131 618 l 210 618 l 210 946 l 328 946 l 328 1014 l 13 1014 l 13 946 l 131 946 z m 357 618 l 436 618 l 436 918 l 529 618 l 607 618 l 701 918 l 700 618 l 781 618 l 781 1014 l 667 1014 l 568 701 l 472 1014 l 357 1014 z "},"°":{"ha":439,"x_min":0,"x_max":0,"o":"m 218 653 b 393 825 313 653 393 731 b 218 1000 393 919 313 1000 b 46 825 122 1000 46 919 b 218 653 46 731 122 653 z m 218 715 b 113 825 156 715 113 760 b 218 935 113 890 156 935 b 324 825 282 935 324 890 b 218 715 324 760 282 715 z "},"ℓ":{"ha":593,"x_min":0,"x_max":0,"o":"m 331 -14 b 460 11 389 -14 429 -4 l 460 149 b 381 138 440 139 403 138 b 300 208 326 138 300 161 l 300 307 b 567 750 426 382 567 515 b 336 1000 567 894 488 1000 b 115 782 211 1000 115 926 l 115 374 b 26 336 97 363 68 351 l 26 214 b 115 242 54 221 90 232 l 115 179 b 331 -14 115 51 192 -14 z m 300 474 l 300 768 b 358 849 300 817 314 849 b 422 738 396 849 422 822 b 300 474 422 626 367 517 z "},"^":{"ha":747,"x_min":0,"x_max":0,"o":"m 31 604 l 218 604 l 335 803 b 369 869 365 854 369 869 l 372 869 b 410 803 372 869 378 854 l 529 604 l 717 604 l 463 1014 l 279 1014 z "},"†":{"ha":708,"x_min":0,"x_max":0,"o":"m 263 -97 l 447 -97 l 447 578 l 683 578 l 683 729 l 447 729 l 447 1014 l 263 1014 l 263 729 l 26 729 l 26 578 l 263 578 z "},"‡":{"ha":708,"x_min":0,"x_max":0,"o":"m 683 578 l 683 729 l 447 729 l 447 1014 l 263 1014 l 263 729 l 26 729 l 26 578 l 263 578 l 263 339 l 26 339 l 26 188 l 263 188 l 263 -97 l 447 -97 l 447 188 l 683 188 l 683 339 l 447 339 l 447 578 z "},"℠":{"ha":851,"x_min":0,"x_max":0,"o":"m 194 614 b 351 731 289 614 351 657 b 246 846 351 785 325 819 b 122 910 167 872 122 872 b 189 951 122 935 144 951 b 261 893 231 951 258 933 l 340 893 b 189 1021 338 971 283 1021 b 40 910 99 1021 40 975 b 164 788 40 843 72 814 b 267 725 244 763 267 758 b 196 682 267 699 243 682 b 108 756 142 682 107 707 l 26 756 b 194 614 26 667 88 614 z m 382 618 l 461 618 l 461 918 l 554 618 l 632 618 l 726 918 l 725 618 l 806 618 l 806 1014 l 692 1014 l 593 701 l 497 1014 l 382 1014 z "},"Ⓟ":{"ha":1149,"x_min":0,"x_max":0,"o":"m 575 -14 b 1096 507 865 -14 1096 221 b 575 1028 1096 794 863 1028 b 54 507 286 1028 54 794 b 575 -14 54 219 286 -14 z m 575 69 b 138 507 333 69 138 267 b 575 944 138 747 333 944 b 1013 507 815 944 1013 747 b 575 69 1013 267 818 69 z m 400 224 l 513 224 l 513 440 l 628 440 b 831 615 750 440 831 500 b 629 790 831 719 764 790 l 400 790 z m 513 533 l 513 697 l 618 697 b 715 615 678 697 715 672 b 618 533 715 565 686 533 z "},"´":{"ha":378,"x_min":0,"x_max":0,"o":"m 47 813 l 197 813 l 346 1026 l 124 1026 z "},"˘":{"ha":531,"x_min":0,"x_max":0,"o":"m 265 806 b 490 1026 397 806 488 888 l 364 1026 b 265 929 361 968 325 929 b 165 1026 208 929 168 965 l 40 1026 b 265 806 42 888 132 806 z "},"ˇ":{"ha":533,"x_min":0,"x_max":0,"o":"m 206 813 l 328 813 l 500 1043 l 358 1043 l 268 922 l 265 922 l 174 1043 l 33 1043 z "},"¸":{"ha":382,"x_min":0,"x_max":0,"o":"m 182 -257 b 342 -149 278 -257 342 -214 b 190 -54 342 -79 281 -40 l 188 -51 l 239 0 l 164 0 l 96 -78 l 124 -125 b 175 -108 124 -125 139 -108 b 221 -146 203 -108 221 -119 b 161 -185 221 -169 203 -185 b 63 -153 111 -185 81 -165 l 40 -206 b 182 -257 61 -229 119 -257 z "},"ˆ":{"ha":533,"x_min":0,"x_max":0,"o":"m 33 813 l 174 813 l 265 935 l 268 935 l 358 813 l 500 813 l 328 1043 l 206 1043 z "},"¨":{"ha":786,"x_min":0,"x_max":0,"o":"m 131 828 l 322 828 l 322 1006 l 131 1006 z m 464 828 l 656 828 l 656 1006 l 464 1006 z "},"˙":{"ha":322,"x_min":0,"x_max":0,"o":"m 61 833 l 263 833 l 263 1014 l 61 1014 z "},"`":{"ha":378,"x_min":0,"x_max":0,"o":"m 182 813 l 332 813 l 256 1026 l 33 1026 z "},"˝":{"ha":558,"x_min":0,"x_max":0,"o":"m 40 813 l 193 813 l 289 1026 l 108 1026 z m 269 813 l 422 813 l 518 1026 l 338 1026 z "},"¯":{"ha":556,"x_min":0,"x_max":0,"o":"m 32 840 l 524 840 l 524 978 l 32 978 z "},"˛":{"ha":354,"x_min":0,"x_max":0,"o":"m 197 -276 b 314 -249 254 -276 283 -268 l 314 -142 l 304 -142 b 251 -156 286 -151 271 -156 b 201 -106 218 -156 201 -137 b 314 0 201 -65 242 -28 l 168 0 b 40 -151 72 -35 40 -94 b 197 -276 40 -226 97 -276 z "},"˚":{"ha":374,"x_min":0,"x_max":0,"o":"m 186 790 b 339 935 274 790 339 850 b 186 1082 339 1022 274 1082 b 35 935 100 1082 35 1022 b 186 790 35 850 100 790 z m 186 863 b 114 935 147 863 114 892 b 186 1008 114 979 147 1008 b 258 935 228 1008 258 979 b 186 863 258 892 228 863 z "},"˜":{"ha":642,"x_min":0,"x_max":0,"o":"m 421 836 b 601 967 503 836 571 889 l 513 1022 b 418 968 492 990 460 968 b 221 1026 363 968 286 1026 b 40 896 138 1026 71 974 l 128 840 b 224 894 150 872 181 894 b 421 836 279 894 356 836 z "},"̦":{"ha":0,"x_min":0,"x_max":0,"o":"m -254 -342 l -171 -342 l -60 -212 l -60 -56 l -240 -56 l -240 -206 l -169 -206 l -169 -212 z "},"⁰":{"ha":525,"x_min":0,"x_max":0,"o":"m 263 424 b 499 722 411 424 499 543 b 263 1021 499 910 404 1021 b 26 722 121 1021 26 910 b 263 424 26 543 113 424 z m 263 519 b 151 722 196 519 151 586 b 263 925 151 844 186 925 b 374 722 329 925 374 861 b 263 519 374 601 338 519 z "},"₀":{"ha":525,"x_min":0,"x_max":0,"o":"m 263 -143 b 499 156 411 -143 499 -24 b 263 454 499 343 404 454 b 26 156 121 454 26 343 b 263 -143 26 -24 113 -143 z m 263 -47 b 151 156 196 -47 151 19 b 263 358 151 278 186 358 b 374 156 329 358 374 294 b 263 -47 374 35 338 -47 z "},"₁":{"ha":389,"x_min":0,"x_max":0,"o":"m 169 -136 l 288 -136 l 288 447 l 179 447 b 26 322 174 372 138 322 l 26 251 l 169 251 z "},"₂":{"ha":500,"x_min":0,"x_max":0,"o":"m 26 -136 l 467 -136 l 467 -36 l 156 -36 b 307 82 160 -3 211 28 b 463 276 406 136 463 186 b 253 454 463 383 379 454 b 40 233 118 454 38 376 l 158 233 b 254 358 153 308 185 358 b 342 281 307 358 342 328 b 225 150 342 215 296 190 b 26 -136 103 82 26 42 z "},"₃":{"ha":521,"x_min":0,"x_max":0,"o":"m 257 -143 b 482 32 392 -143 482 -78 b 378 163 482 96 438 150 l 378 165 b 461 290 428 182 461 228 b 251 454 461 388 383 454 b 35 263 121 454 35 383 l 158 263 b 253 358 158 321 189 358 b 342 286 307 358 342 333 b 244 211 342 239 310 207 l 193 213 l 193 114 l 244 117 b 356 32 311 119 356 94 b 258 -47 354 -17 319 -47 b 149 63 193 -47 149 -12 l 26 63 b 257 -143 26 -61 113 -143 z "},"₄":{"ha":533,"x_min":0,"x_max":0,"o":"m 304 -136 l 421 -136 l 421 -8 l 507 -8 l 507 92 l 421 92 l 421 447 l 292 447 l 13 92 l 13 -8 l 304 -8 z m 122 92 l 122 94 b 165 142 122 94 142 114 l 253 253 b 301 318 282 289 301 318 l 304 318 l 304 92 z "},"₅":{"ha":535,"x_min":0,"x_max":0,"o":"m 269 -143 b 494 58 406 -143 494 -62 b 293 261 494 181 414 261 b 165 207 236 261 192 242 l 163 207 l 186 347 l 461 347 l 461 447 l 93 447 l 42 96 l 163 96 b 265 167 169 139 211 167 b 372 58 329 167 372 124 b 264 -47 372 -7 329 -47 b 163 26 204 -47 165 -18 l 40 26 b 269 -143 43 -75 136 -143 z "},"₆":{"ha":526,"x_min":0,"x_max":0,"o":"m 265 -143 b 482 56 394 -143 482 -62 b 274 256 482 176 397 256 b 139 171 210 256 157 221 l 136 171 b 271 358 138 279 171 358 b 365 285 322 358 360 331 l 486 285 b 271 454 481 378 394 454 b 28 142 117 454 28 346 b 265 -143 28 -29 117 -143 z m 261 -47 b 163 56 201 -47 163 -7 b 261 160 163 118 201 160 b 358 56 319 160 358 119 b 261 -47 358 -6 319 -47 z "},"₇":{"ha":463,"x_min":0,"x_max":0,"o":"m 96 -136 l 222 -136 b 450 357 233 68 306 250 l 450 447 l 11 447 l 11 347 l 308 347 l 308 344 b 96 -136 194 246 117 81 z "},"₈":{"ha":544,"x_min":0,"x_max":0,"o":"m 271 -143 b 504 32 411 -143 504 -72 b 403 174 504 100 463 157 l 403 176 b 479 297 449 192 479 242 b 272 454 479 390 396 454 b 65 297 149 454 65 390 b 142 176 65 242 96 192 l 142 174 b 40 32 82 156 40 99 b 271 -143 40 -72 132 -143 z m 272 211 b 183 286 218 211 183 240 b 271 358 183 331 218 358 b 361 286 326 358 361 331 b 272 211 361 240 326 211 z m 271 -47 b 164 43 207 -47 164 -12 b 271 135 164 97 206 135 b 381 43 336 135 381 99 b 271 -47 381 -11 338 -47 z "},"₉":{"ha":508,"x_min":0,"x_max":0,"o":"m 246 -143 b 483 176 400 -143 483 -14 b 246 454 483 343 386 454 b 26 258 115 454 26 374 b 232 60 26 139 110 60 b 367 133 296 60 349 90 l 369 133 b 246 -47 367 31 335 -47 b 154 28 192 -47 156 -22 l 32 28 b 246 -143 32 -68 125 -143 z m 247 156 b 149 258 189 156 149 196 b 247 358 149 318 189 358 b 347 258 306 358 347 318 b 247 156 347 197 306 156 z "},"⁕":{"ha":808,"x_min":0,"x_max":0,"o":"m 357 35 l 454 35 l 454 264 l 614 104 l 682 174 l 522 333 l 749 333 l 749 431 l 522 431 l 685 593 l 617 661 l 454 499 l 454 729 l 357 729 l 357 499 l 196 660 l 128 590 l 288 431 l 61 431 l 61 333 l 288 333 l 125 171 l 194 101 l 357 264 z "},"₣":{"ha":889,"x_min":0,"x_max":0,"o":"m 846 825 l 846 986 l 178 986 l 178 294 l 99 294 l 99 178 l 178 178 l 178 0 l 369 0 l 369 178 l 554 178 l 554 294 l 369 294 l 369 426 l 811 426 l 811 588 l 369 588 l 369 825 z "},"₧":{"ha":1260,"x_min":0,"x_max":0,"o":"m 1221 599 l 1221 739 l 1083 739 l 1083 938 l 899 938 l 899 739 l 807 739 b 451 986 785 889 669 986 l 99 986 l 99 0 l 283 0 l 283 374 l 451 374 b 803 599 638 374 769 446 l 899 599 l 899 174 b 1118 -7 899 72 964 -7 b 1221 0 1161 -7 1200 -4 l 1221 151 b 1183 149 1214 150 1199 149 b 1083 240 1114 149 1083 168 l 1083 599 z m 447 535 l 283 535 l 283 825 l 447 825 b 618 681 550 825 618 779 b 447 535 618 593 563 535 z "},"฿":{"ha":929,"x_min":0,"x_max":0,"o":"m 669 517 l 669 519 b 832 732 768 542 832 613 b 501 986 832 888 714 982 l 501 1111 l 399 1111 l 399 986 l 99 986 l 99 0 l 399 0 l 399 -111 l 501 -111 l 501 0 l 517 0 b 867 278 726 0 867 93 b 669 517 867 401 796 490 z m 290 825 l 399 825 l 399 589 l 290 589 z m 633 707 b 501 590 633 640 590 597 l 501 824 b 633 707 581 819 633 785 z m 290 161 l 290 428 l 399 428 l 399 161 z m 501 161 l 501 428 b 663 294 599 425 663 386 b 501 161 663 213 611 164 z "},"₢":{"ha":935,"x_min":0,"x_max":0,"o":"m 692 325 b 536 143 682 229 626 161 l 536 196 b 738 449 536 354 594 449 b 800 443 782 449 800 443 l 804 443 l 804 618 b 760 624 796 621 782 624 b 540 492 629 624 572 563 l 536 492 l 536 618 l 363 618 l 363 169 b 235 493 283 219 235 328 b 492 849 235 707 321 849 b 692 694 585 849 665 797 l 885 694 b 492 1000 854 886 706 1000 b 40 493 204 1000 40 803 b 482 -14 40 189 215 -14 b 888 325 704 -14 867 110 z "},"₤":{"ha":838,"x_min":0,"x_max":0,"o":"m 307 161 l 307 164 b 399 278 307 164 374 200 l 544 278 l 544 394 l 400 394 l 396 407 l 375 464 l 546 464 l 546 582 l 333 582 l 319 622 b 451 849 272 744 328 849 b 608 643 568 849 615 763 l 796 643 b 451 1000 810 844 696 1000 b 146 583 132 1000 72 747 l 146 582 l 89 582 l 89 464 l 185 464 l 204 407 l 208 394 l 89 394 l 89 278 l 197 278 b 61 172 157 203 61 172 l 61 0 l 803 0 l 803 161 z "},"₩":{"ha":1371,"x_min":0,"x_max":0,"o":"m 1360 582 l 1360 689 l 1285 689 l 1358 986 l 1150 986 l 1090 689 l 875 689 l 804 986 l 567 986 l 499 689 l 283 689 l 221 986 l 13 986 l 88 689 l 13 689 l 13 582 l 114 582 l 138 493 l 13 493 l 13 386 l 164 386 l 261 0 l 500 0 l 589 386 l 788 386 l 881 0 l 1115 0 l 1211 386 l 1360 386 l 1360 493 l 1238 493 l 1258 582 z m 683 799 l 688 799 l 714 689 l 658 689 z m 306 582 l 474 582 l 453 493 l 325 493 z m 613 493 l 633 582 l 740 582 l 761 493 z m 1050 493 l 922 493 l 901 582 l 1068 582 z m 388 210 l 385 210 l 347 386 l 428 386 z m 993 210 l 990 210 l 949 386 l 1029 386 z "},"₫":{"ha":874,"x_min":0,"x_max":0,"o":"m 864 929 l 776 929 l 776 986 l 592 986 l 592 929 l 336 929 l 336 813 l 592 813 l 592 647 l 589 647 b 372 753 539 718 456 753 b 50 368 169 753 50 599 b 369 -14 50 128 176 -14 b 589 88 463 -14 542 22 l 592 88 l 592 0 l 776 0 l 776 813 l 864 813 z m 422 133 b 244 368 315 133 244 221 b 424 606 244 511 311 606 b 601 368 531 606 601 519 b 422 133 601 226 538 133 z m 88 -201 l 776 -201 l 776 -85 l 88 -85 z "},"₮":{"ha":846,"x_min":0,"x_max":0,"o":"m 821 825 l 821 986 l 25 986 l 25 825 l 331 825 l 331 565 l 124 446 l 185 340 l 331 425 l 331 347 l 124 228 l 185 122 l 331 207 l 331 0 l 515 0 l 515 313 l 724 433 l 663 539 l 515 454 l 515 531 l 724 651 l 663 757 l 515 672 l 515 825 z "},"₱":{"ha":954,"x_min":0,"x_max":0,"o":"m 129 0 l 314 0 l 314 374 l 482 374 b 838 626 679 374 815 456 l 933 626 l 933 733 l 838 733 b 482 986 817 886 703 986 l 129 986 l 129 733 l 40 733 l 40 626 l 129 626 z m 314 733 l 314 825 l 478 825 b 640 733 560 825 619 796 z m 314 535 l 314 626 l 640 626 b 478 535 621 569 568 535 z "},"₸":{"ha":846,"x_min":0,"x_max":0,"o":"m 25 825 l 821 825 l 821 986 l 25 986 z m 331 0 l 515 0 l 515 600 l 821 600 l 821 761 l 25 761 l 25 600 l 331 600 z "},"₹":{"ha":790,"x_min":0,"x_max":0,"o":"m 769 875 l 769 986 l 99 986 l 99 825 l 269 825 b 419 761 339 825 392 804 l 99 761 l 99 650 l 439 650 b 269 535 426 579 371 535 l 99 535 l 99 374 l 274 374 l 517 0 l 739 0 l 464 406 b 633 650 563 447 625 528 l 769 650 l 769 761 l 626 761 b 574 875 617 804 600 843 z "},"₺":{"ha":824,"x_min":0,"x_max":0,"o":"m 614 347 b 417 157 600 233 519 157 l 363 157 l 363 347 l 557 460 l 497 565 l 363 488 l 363 565 l 557 678 l 497 783 l 363 706 l 363 986 l 178 986 l 178 600 l 8 503 l 71 396 l 178 458 l 178 382 l 8 285 l 71 179 l 178 240 l 178 0 l 429 0 b 794 347 638 0 779 139 z "},"₽":{"ha":903,"x_min":0,"x_max":0,"o":"m 150 0 l 335 0 l 335 199 l 668 199 l 668 319 l 335 319 l 335 394 l 524 394 b 882 690 738 394 882 482 b 524 986 882 874 767 986 l 150 986 l 150 515 l 40 515 l 40 394 l 150 394 l 150 319 l 40 319 l 40 199 l 150 199 z m 335 554 l 335 825 l 518 825 b 689 690 621 825 689 793 b 518 554 689 603 639 554 z "},"⤫":{"ha":1067,"x_min":0,"x_max":0,"o":"m 140 0 l 1040 900 l 926 1014 l 26 114 z m 371 556 l 485 669 l 140 1014 l 26 900 z m 926 0 l 1040 114 l 696 458 l 582 344 z "},"⤬":{"ha":1067,"x_min":0,"x_max":0,"o":"m 926 0 l 1040 114 l 140 1014 l 26 900 z m 696 556 l 1040 900 l 926 1014 l 582 669 z m 140 0 l 485 344 l 371 458 l 26 114 z "},"☑":{"ha":1182,"x_min":0,"x_max":0,"o":"m 85 0 l 1099 0 l 1099 1014 l 85 1014 z m 203 118 l 203 896 l 981 896 l 981 118 z m 500 201 l 954 657 l 842 768 l 488 413 l 329 574 l 229 474 z "},"✖":{"ha":922,"x_min":0,"x_max":0,"o":"m 221 0 l 461 240 l 701 0 l 849 147 l 608 388 l 849 628 l 701 775 l 461 535 l 221 775 l 74 628 l 314 388 l 74 147 z "},"№":{"ha":1378,"x_min":0,"x_max":0,"o":"m 99 0 l 293 0 l 283 786 l 288 786 b 385 576 288 786 321 699 l 689 0 l 922 0 l 922 1014 l 728 1014 l 739 229 l 736 229 b 628 454 736 229 710 296 l 332 1014 l 99 1014 z m 1157 653 b 1332 825 1251 653 1332 731 b 1157 1000 1332 919 1251 1000 b 985 825 1061 1000 985 919 b 1157 653 985 731 1061 653 z m 1157 715 b 1051 825 1094 715 1051 760 b 1157 935 1051 890 1094 935 b 1263 825 1221 935 1263 890 b 1157 715 1263 760 1221 715 z m 985 542 l 1332 542 l 1332 611 l 985 611 z "}}}
